<svg width="337" height="87" viewBox="0 0 337 87" fill="none" xmlns="http://www.w3.org/2000/svg">
    <rect x="1" y="1" width="335" height="85" rx="20" fill="#FFD5C2"/>
    <rect x="1" y="1" width="335" height="85" rx="20" stroke="black" stroke-width="2"/>
    <path d="M29.331 27.2173L27.7372 27.2173C27.6918 26.956 27.608 26.7244 27.4858 26.5227C27.3636 26.3182 27.2116 26.1449 27.0298 26.0028C26.848 25.8608 26.6406 25.7543 26.4077 25.6832C26.1776 25.6094 25.929 25.5724 25.6619 25.5724C25.1875 25.5724 24.767 25.6918 24.4006 25.9304C24.0341 26.1662 23.7472 26.5128 23.5398 26.9702C23.3324 27.4247 23.2287 27.9801 23.2287 28.6364C23.2287 29.304 23.3324 29.8665 23.5398 30.3239C23.75 30.7784 24.0369 31.1222 24.4006 31.3551C24.767 31.5852 25.1861 31.7003 25.6577 31.7003C25.919 31.7003 26.1634 31.6662 26.3906 31.598C26.6207 31.527 26.8267 31.4233 27.0085 31.2869C27.1932 31.1506 27.348 30.983 27.473 30.7841C27.6009 30.5852 27.6889 30.358 27.7372 30.1023L29.331 30.1108C29.2713 30.5256 29.142 30.9148 28.9432 31.2784C28.7472 31.642 28.4901 31.9631 28.1719 32.2415C27.8537 32.517 27.4815 32.733 27.0554 32.8892C26.6293 33.0426 26.1563 33.1193 25.6364 33.1193C24.8693 33.1193 24.1847 32.9418 23.5824 32.5866C22.9801 32.2315 22.5057 31.7188 22.1591 31.0483C21.8125 30.3778 21.6392 29.5739 21.6392 28.6364C21.6392 27.696 21.8139 26.892 22.1634 26.2244C22.5128 25.554 22.9886 25.0412 23.5909 24.6861C24.1932 24.331 24.875 24.1534 25.6364 24.1534C26.1222 24.1534 26.5739 24.2216 26.9915 24.358C27.4091 24.4943 27.7813 24.6946 28.108 24.9588C28.4347 25.2202 28.7031 25.5412 28.9134 25.9219C29.1264 26.2997 29.2656 26.7315 29.331 27.2173ZM38.5771 28.6364C38.5771 29.5767 38.4009 30.3821 38.0487 31.0526C37.6992 31.7202 37.2219 32.2315 36.6168 32.5866C36.0146 32.9418 35.3313 33.1193 34.5671 33.1193C33.8029 33.1193 33.1183 32.9418 32.5131 32.5866C31.9109 32.2287 31.4336 31.7159 31.0813 31.0483C30.7319 30.3778 30.5572 29.5739 30.5572 28.6364C30.5572 27.696 30.7319 26.892 31.0813 26.2244C31.4336 25.554 31.9109 25.0412 32.5131 24.6861C33.1183 24.331 33.8029 24.1534 34.5671 24.1534C35.3313 24.1534 36.0146 24.331 36.6168 24.6861C37.2219 25.0412 37.6992 25.554 38.0487 26.2244C38.4009 26.892 38.5771 27.696 38.5771 28.6364ZM36.9876 28.6364C36.9876 27.9744 36.8839 27.4162 36.6765 26.9616C36.4719 26.5043 36.1879 26.1591 35.8242 25.9261C35.4606 25.6903 35.0415 25.5724 34.5671 25.5724C34.0927 25.5724 33.6737 25.6903 33.31 25.9261C32.9464 26.1591 32.6609 26.5043 32.4535 26.9616C32.2489 27.4162 32.1467 27.9744 32.1467 28.6364C32.1467 29.2983 32.2489 29.858 32.4535 30.3153C32.6609 30.7699 32.9464 31.1151 33.31 31.3509C33.6737 31.5838 34.0927 31.7003 34.5671 31.7003C35.0415 31.7003 35.4606 31.5838 35.8242 31.3509C36.1879 31.1151 36.4719 30.7699 36.6765 30.3153C36.8839 29.858 36.9876 29.2983 36.9876 28.6364ZM39.9865 33L39.9865 31.858L43.0163 28.8878C43.3061 28.5952 43.5476 28.3352 43.7408 28.108C43.9339 27.8807 44.0788 27.6605 44.1754 27.4474C44.272 27.2344 44.3203 27.0071 44.3203 26.7656C44.3203 26.4901 44.2578 26.2543 44.1328 26.0582C44.0078 25.8594 43.8359 25.706 43.6172 25.598C43.3984 25.4901 43.1499 25.4361 42.8714 25.4361C42.5845 25.4361 42.3331 25.4957 42.1172 25.6151C41.9013 25.7315 41.7337 25.8977 41.6143 26.1136C41.4979 26.3295 41.4396 26.5866 41.4396 26.8849L39.9354 26.8849C39.9354 26.331 40.0618 25.8494 40.3146 25.4403C40.5675 25.0312 40.9155 24.7145 41.3587 24.4901C41.8047 24.2656 42.3161 24.1534 42.8928 24.1534C43.478 24.1534 43.9922 24.2628 44.4354 24.4815C44.8786 24.7003 45.2223 25 45.4666 25.3807C45.7138 25.7614 45.8374 26.196 45.8374 26.6847C45.8374 27.0114 45.7749 27.3324 45.6499 27.6477C45.5249 27.9631 45.3047 28.3125 44.9893 28.696C44.6768 29.0795 44.2379 29.544 43.6726 30.0895L42.1683 31.6193L42.1683 31.679L45.9695 31.679L45.9695 33L39.9865 33ZM49.9048 24.2727L51.6903 24.2727L53.8253 28.1335L53.9105 28.1335L56.0455 24.2727L57.831 24.2727L54.6562 29.7443L54.6562 33L53.0795 33L53.0795 29.7443L49.9048 24.2727ZM66.2567 28.6364C66.2567 29.5767 66.0806 30.3821 65.7283 31.0526C65.3789 31.7202 64.9016 32.2315 64.2965 32.5866C63.6942 32.9418 63.011 33.1193 62.2468 33.1193C61.4826 33.1193 60.7979 32.9418 60.1928 32.5866C59.5906 32.2287 59.1133 31.7159 58.761 31.0483C58.4116 30.3778 58.2369 29.5739 58.2369 28.6364C58.2369 27.696 58.4116 26.892 58.761 26.2244C59.1133 25.554 59.5906 25.0412 60.1928 24.6861C60.7979 24.331 61.4826 24.1534 62.2468 24.1534C63.011 24.1534 63.6942 24.331 64.2965 24.6861C64.9016 25.0412 65.3789 25.554 65.7283 26.2244C66.0806 26.892 66.2567 27.696 66.2567 28.6364ZM64.6673 28.6364C64.6673 27.9744 64.5636 27.4162 64.3562 26.9616C64.1516 26.5043 63.8675 26.1591 63.5039 25.9261C63.1403 25.6903 62.7212 25.5724 62.2468 25.5724C61.7724 25.5724 61.3533 25.6903 60.9897 25.9261C60.6261 26.1591 60.3406 26.5043 60.1332 26.9616C59.9286 27.4162 59.8263 27.9744 59.8263 28.6364C59.8263 29.2983 59.9286 29.858 60.1332 30.3153C60.3406 30.7699 60.6261 31.1151 60.9897 31.3509C61.3533 31.5838 61.7724 31.7003 62.2468 31.7003C62.7212 31.7003 63.1403 31.5838 63.5039 31.3509C63.8675 31.1151 64.1516 30.7699 64.3562 30.3153C64.5636 29.858 64.6673 29.2983 64.6673 28.6364ZM73.2528 24.2727L74.8338 24.2727L74.8338 29.9744C74.8338 30.5994 74.6861 31.1491 74.3906 31.6236C74.098 32.098 73.6861 32.4688 73.1548 32.7358C72.6236 33 72.0028 33.1321 71.2926 33.1321C70.5795 33.1321 69.9574 33 69.4261 32.7358C68.8949 32.4688 68.483 32.098 68.1903 31.6236C67.8977 31.1491 67.7514 30.5994 67.7514 29.9744L67.7514 24.2727L69.3324 24.2727L69.3324 29.8423C69.3324 30.206 69.4119 30.5298 69.571 30.8139C69.733 31.098 69.9602 31.321 70.2528 31.483C70.5455 31.642 70.892 31.7216 71.2926 31.7216C71.6932 31.7216 72.0398 31.642 72.3324 31.483C72.6278 31.321 72.8551 31.098 73.0142 30.8139C73.1733 30.5298 73.2528 30.206 73.2528 29.8423L73.2528 24.2727ZM84.2717 26.6719C84.2319 26.2997 84.0643 26.0099 83.7688 25.8026C83.4762 25.5952 83.0955 25.4915 82.6268 25.4915C82.2972 25.4915 82.0146 25.5412 81.7788 25.6406C81.543 25.7401 81.3626 25.875 81.2376 26.0455C81.1126 26.2159 81.0487 26.4105 81.0458 26.6293C81.0458 26.8111 81.087 26.9688 81.1694 27.1023C81.2546 27.2358 81.3697 27.3494 81.5146 27.4432C81.6594 27.5341 81.82 27.6108 81.9961 27.6733C82.1722 27.7358 82.3498 27.7884 82.5288 27.831L83.3469 28.0355C83.6765 28.1122 83.9933 28.2159 84.2972 28.3466C84.604 28.4773 84.8782 28.642 85.1197 28.8409C85.364 29.0398 85.5572 29.2798 85.6992 29.5611C85.8413 29.8423 85.9123 30.1719 85.9123 30.5497C85.9123 31.0611 85.7816 31.5114 85.5202 31.9006C85.2589 32.2869 84.881 32.5895 84.3867 32.8082C83.8952 33.0241 83.3001 33.1321 82.6012 33.1321C81.9222 33.1321 81.3327 33.027 80.8327 32.8168C80.3356 32.6065 79.9464 32.2997 79.6651 31.8963C79.3867 31.4929 79.2362 31.0014 79.2134 30.4219L80.7688 30.4219C80.7915 30.7259 80.8853 30.9787 81.0501 31.1804C81.2148 31.3821 81.4293 31.5327 81.6935 31.6321C81.9606 31.7315 82.2589 31.7813 82.5884 31.7813C82.9322 31.7813 83.2333 31.7301 83.4918 31.6278C83.7532 31.5227 83.9577 31.3778 84.1055 31.1932C84.2532 31.0057 84.3285 30.7869 84.3313 30.5369C84.3285 30.3097 84.2617 30.1222 84.131 29.9744C84.0004 29.8239 83.8171 29.6989 83.5813 29.5994C83.3484 29.4972 83.0756 29.4063 82.7631 29.3267L81.7702 29.071C81.0515 28.8864 80.4833 28.6065 80.0657 28.2315C79.6509 27.8537 79.4435 27.3523 79.4435 26.7273C79.4435 26.2131 79.5827 25.7628 79.8612 25.3764C80.1424 24.9901 80.5245 24.6903 81.0075 24.4773C81.4904 24.2614 82.0373 24.1534 82.6481 24.1534C83.2674 24.1534 83.81 24.2614 84.2759 24.4773C84.7447 24.6903 85.1126 24.9872 85.3796 25.3679C85.6467 25.7457 85.7844 26.1804 85.793 26.6719L84.2717 26.6719ZM88.3018 33L86.6143 33L89.6868 24.2727L91.6385 24.2727L94.7152 33L93.0277 33L90.6967 26.0625L90.6286 26.0625L88.3018 33ZM88.3572 29.5781L92.9595 29.5781L92.9595 30.848L88.3572 30.848L88.3572 29.5781ZM96.0362 24.2727L98.3075 31.142L98.397 31.142L100.664 24.2727L102.403 24.2727L99.326 33L97.3743 33L94.3018 24.2727L96.0362 24.2727ZM103.552 33L103.552 24.2727L109.228 24.2727L109.228 25.598L105.133 25.598L105.133 27.9673L108.934 27.9673L108.934 29.2926L105.133 29.2926L105.133 31.6747L109.262 31.6747L109.262 33L103.552 33ZM113.799 33L110.841 33L110.841 24.2727L113.858 24.2727C114.725 24.2727 115.469 24.4474 116.091 24.7969C116.716 25.1435 117.196 25.642 117.532 26.2926C117.867 26.9432 118.034 27.7216 118.034 28.6278C118.034 29.5369 117.865 30.3182 117.527 30.9716C117.192 31.625 116.708 32.1264 116.074 32.4759C115.444 32.8253 114.685 33 113.799 33ZM112.422 31.6321L113.722 31.6321C114.33 31.6321 114.837 31.5213 115.243 31.2997C115.65 31.0753 115.955 30.7415 116.159 30.2983C116.364 29.8523 116.466 29.2955 116.466 28.6278C116.466 27.9602 116.364 27.4063 116.159 26.9659C115.955 26.5227 115.652 26.1918 115.252 25.973C114.854 25.7514 114.36 25.6406 113.769 25.6406L112.422 25.6406L112.422 31.6321Z" fill="black"/>
    <path d="M22.179 61L22.179 58.7841L27.3565 53.9901C27.7969 53.5639 28.1662 53.1804 28.4645 52.8395C28.7675 52.4986 28.9972 52.1648 29.1534 51.8381C29.3097 51.5066 29.3878 51.1491 29.3878 50.7656C29.3878 50.3395 29.2907 49.9725 29.0966 49.6648C28.9025 49.3523 28.6373 49.1132 28.3011 48.9474C27.965 48.777 27.5838 48.6918 27.1577 48.6918C26.7126 48.6918 26.3243 48.7817 25.9929 48.9616C25.6615 49.1416 25.4058 49.3996 25.2259 49.7358C25.0459 50.072 24.956 50.4721 24.956 50.9361L22.0369 50.9361C22.0369 49.9844 22.2524 49.1581 22.6832 48.4574C23.1141 47.7566 23.7178 47.2145 24.4943 46.831C25.2708 46.4474 26.1657 46.2557 27.179 46.2557C28.2206 46.2557 29.1274 46.4403 29.8991 46.8097C30.6757 47.1742 31.2794 47.6809 31.7102 48.3295C32.1411 48.9782 32.3565 49.7216 32.3565 50.5597C32.3565 51.1089 32.2476 51.651 32.0298 52.1861C31.8168 52.7211 31.4356 53.3153 30.8864 53.9688C30.3371 54.6174 29.563 55.3963 28.5639 56.3054L26.4403 58.3864L26.4403 58.4858L32.5483 58.4858L32.5483 61L22.179 61ZM40.4798 61.3196C39.2582 61.3149 38.207 61.0142 37.3263 60.4176C36.4504 59.821 35.7757 58.9569 35.3022 57.8253C34.8335 56.6937 34.6014 55.3324 34.6062 53.7415C34.6062 52.1553 34.8406 50.8035 35.3093 49.6861C35.7828 48.5687 36.4575 47.7187 37.3335 47.1364C38.2141 46.5492 39.2629 46.2557 40.4798 46.2557C41.6966 46.2557 42.743 46.5492 43.619 47.1364C44.4996 47.7235 45.1767 48.5758 45.6502 49.6932C46.1237 50.8059 46.3581 52.1553 46.3533 53.7415C46.3533 55.3371 46.1166 56.7008 45.6431 57.8324C45.1744 58.964 44.502 59.8281 43.6261 60.4247C42.7501 61.0213 41.7013 61.3196 40.4798 61.3196ZM40.4798 58.7699C41.3131 58.7699 41.9783 58.3509 42.4755 57.5128C42.9727 56.6747 43.2189 55.4176 43.2141 53.7415C43.2141 52.6383 43.1005 51.7197 42.8732 50.9858C42.6507 50.2519 42.3335 49.7003 41.9215 49.331C41.5143 48.9616 41.0337 48.777 40.4798 48.777C39.6512 48.777 38.9883 49.1913 38.4911 50.0199C37.994 50.8485 37.743 52.089 37.7383 53.7415C37.7383 54.8589 37.8496 55.7917 38.0721 56.5398C38.2994 57.2831 38.619 57.8419 39.0309 58.2159C39.4428 58.5852 39.9258 58.7699 40.4798 58.7699ZM48.6314 61L48.6314 46.4545L51.7067 46.4545L51.7067 52.8679L51.8984 52.8679L57.1328 46.4545L60.8189 46.4545L55.4212 52.9673L60.8828 61L57.2038 61L53.2195 55.0199L51.7067 56.8665L51.7067 61L48.6314 61ZM71.245 51.1563C71.1456 50.8106 71.0059 50.5052 70.826 50.2401C70.6461 49.9702 70.4259 49.7429 70.1655 49.5582C69.9098 49.3688 69.6162 49.2244 69.2848 49.125C68.9581 49.0256 68.5959 48.9759 68.1982 48.9759C67.4548 48.9759 66.8014 49.1605 66.2379 49.5298C65.6792 49.8991 65.2436 50.4366 64.9311 51.142C64.6186 51.8428 64.4624 52.6998 64.4624 53.7131C64.4624 54.7263 64.6162 55.5881 64.924 56.2983C65.2318 57.0085 65.6674 57.5507 66.2308 57.9247C66.7943 58.294 67.4595 58.4787 68.2266 58.4787C68.9226 58.4787 69.5168 58.3556 70.0092 58.1094C70.5064 57.8584 70.8852 57.5057 71.1456 57.0511C71.4107 56.5966 71.5433 56.0592 71.5433 55.4389L72.1683 55.5313L68.4183 55.5313L68.4183 53.2159L74.505 53.2159L74.505 55.0483C74.505 56.3267 74.2351 57.4252 73.6953 58.3438C73.1555 59.2576 72.4122 59.9631 71.4652 60.4602C70.5182 60.9527 69.4339 61.1989 68.2124 61.1989C66.8487 61.1989 65.6508 60.8982 64.6186 60.2969C63.5864 59.6908 62.7815 58.8314 62.2038 57.7188C61.6309 56.6013 61.3445 55.2756 61.3445 53.7415C61.3445 52.5625 61.5149 51.5114 61.8558 50.5881C62.2015 49.66 62.6844 48.8741 63.3047 48.2301C63.925 47.5862 64.647 47.0961 65.4709 46.7599C66.2947 46.4238 67.1873 46.2557 68.1484 46.2557C68.9723 46.2557 69.7393 46.3764 70.4496 46.6179C71.1598 46.8546 71.7895 47.1908 72.3388 47.6264C72.8928 48.062 73.3449 48.5805 73.6953 49.1818C74.0457 49.7784 74.2706 50.4366 74.37 51.1563L71.245 51.1563Z" fill="black"/>
    <path d="M90.7071 44.2929C90.3166 43.9024 89.6834 43.9024 89.2929 44.2929L82.9289 50.6569C82.5384 51.0474 82.5384 51.6805 82.9289 52.0711C83.3195 52.4616 83.9526 52.4616 84.3431 52.0711L90 46.4142L95.6569 52.0711C96.0474 52.4616 96.6805 52.4616 97.0711 52.0711C97.4616 51.6805 97.4616 51.0474 97.0711 50.6569L90.7071 44.2929ZM91 63L91 45L89 45L89 63L91 63Z" fill="black"/>
    <path fill-rule="evenodd" clip-rule="evenodd" d="M292.35 29.1278C293.966 29.0774 295.535 29.7011 296.711 30.8616C297.887 32.0222 298.574 33.6243 298.621 35.3153C298.622 35.9164 298.534 36.514 298.362 37.0872C300.445 37.4376 301.993 39.2947 302.042 41.5028C301.967 44.0621 299.927 46.0754 297.482 46.0028H281.518C279.072 46.0754 277.032 44.0621 276.958 41.5028C276.999 39.3968 278.414 37.5945 280.38 37.1435C280.38 37.096 280.38 37.0491 280.38 37.0028C280.454 34.4436 282.494 32.4303 284.94 32.5028C285.511 32.502 286.078 32.6081 286.614 32.816C287.684 30.5299 289.918 29.094 292.35 29.1278Z" stroke="black" stroke-width="1.5" stroke-linecap="round" stroke-linejoin="round"/>
    <path d="M290.639 46.7527C291.054 46.7527 291.389 46.4169 291.389 46.0027C291.389 45.5885 291.054 45.2527 290.639 45.2527V46.7527ZM281.518 45.2527C281.104 45.2527 280.768 45.5885 280.768 46.0027C280.768 46.4169 281.104 46.7527 281.518 46.7527V45.2527ZM288.36 45.2527C287.946 45.2527 287.61 45.5885 287.61 46.0027C287.61 46.4169 287.946 46.7527 288.36 46.7527V45.2527ZM297.482 46.7527C297.896 46.7527 298.232 46.4169 298.232 46.0027C298.232 45.5885 297.896 45.2527 297.482 45.2527V46.7527ZM290.639 45.2527H281.518V46.7527H290.639V45.2527ZM288.36 46.7527H297.482V45.2527H288.36V46.7527Z" fill="black"/>
</svg>
