<svg width="345" height="20" viewBox="0 0 345 20" fill="none" xmlns="http://www.w3.org/2000/svg">
    <rect width="149" height="2" transform="translate(0 9)" fill="#FEE8CC"/>
    <path d="M165.719 10.8672V10.6875C165.719 10.0781 165.807 9.51302 165.984 8.99219C166.161 8.46615 166.417 8.01042 166.75 7.625C167.083 7.23438 167.487 6.93229 167.961 6.71875C168.435 6.5 168.966 6.39062 169.555 6.39062C170.148 6.39062 170.682 6.5 171.156 6.71875C171.635 6.93229 172.042 7.23438 172.375 7.625C172.714 8.01042 172.971 8.46615 173.148 8.99219C173.326 9.51302 173.414 10.0781 173.414 10.6875V10.8672C173.414 11.4766 173.326 12.0417 173.148 12.5625C172.971 13.0833 172.714 13.5391 172.375 13.9297C172.042 14.3151 171.638 14.6172 171.164 14.8359C170.695 15.0495 170.164 15.1562 169.57 15.1562C168.977 15.1562 168.443 15.0495 167.969 14.8359C167.495 14.6172 167.089 14.3151 166.75 13.9297C166.417 13.5391 166.161 13.0833 165.984 12.5625C165.807 12.0417 165.719 11.4766 165.719 10.8672ZM167.164 10.6875V10.8672C167.164 11.2891 167.214 11.6875 167.312 12.0625C167.411 12.4323 167.56 12.7604 167.758 13.0469C167.961 13.3333 168.214 13.5599 168.516 13.7266C168.818 13.888 169.169 13.9688 169.57 13.9688C169.966 13.9688 170.312 13.888 170.609 13.7266C170.911 13.5599 171.161 13.3333 171.359 13.0469C171.557 12.7604 171.706 12.4323 171.805 12.0625C171.909 11.6875 171.961 11.2891 171.961 10.8672V10.6875C171.961 10.2708 171.909 9.8776 171.805 9.50781C171.706 9.13281 171.555 8.80208 171.352 8.51562C171.154 8.22396 170.904 7.99479 170.602 7.82812C170.305 7.66146 169.956 7.57812 169.555 7.57812C169.159 7.57812 168.81 7.66146 168.508 7.82812C168.211 7.99479 167.961 8.22396 167.758 8.51562C167.56 8.80208 167.411 9.13281 167.312 9.50781C167.214 9.8776 167.164 10.2708 167.164 10.6875ZM176.872 7.875V15H175.427V6.54688H176.833L176.872 7.875ZM179.512 6.5L179.505 7.84375C179.385 7.81771 179.27 7.80208 179.161 7.79688C179.057 7.78646 178.937 7.78125 178.802 7.78125C178.468 7.78125 178.174 7.83333 177.919 7.9375C177.664 8.04167 177.447 8.1875 177.27 8.375C177.093 8.5625 176.953 8.78646 176.848 9.04688C176.749 9.30208 176.684 9.58333 176.653 9.89062L176.247 10.125C176.247 9.61458 176.296 9.13542 176.395 8.6875C176.499 8.23958 176.658 7.84375 176.872 7.5C177.085 7.15104 177.356 6.88021 177.684 6.6875C178.018 6.48958 178.414 6.39062 178.872 6.39062C178.976 6.39062 179.096 6.40365 179.231 6.42969C179.367 6.45052 179.46 6.47396 179.512 6.5Z" fill="#FEE8CC"/>
    <rect width="149" height="2" transform="translate(196 9)" fill="#FEE8CC"/>
</svg>
