<svg width="24" height="24" viewBox="0 0 24 24" fill="none" xmlns="http://www.w3.org/2000/svg">
    <path fill-rule="evenodd" clip-rule="evenodd" d="M12.0001 3.50012C7.30534 3.50012 3.50012 7.30534 3.50012 12.0001C3.50012 16.694 7.30539 20.5001 12.0001 20.5001C16.6939 20.5001 20.5001 16.6939 20.5001 12.0001C20.5001 7.30539 16.694 3.50012 12.0001 3.50012ZM2.00012 12.0001C2.00012 6.47691 6.47691 2.00012 12.0001 2.00012C17.5223 2.00012 22.0001 6.47686 22.0001 12.0001C22.0001 17.5223 17.5223 22.0001 12.0001 22.0001C6.47686 22.0001 2.00012 17.5223 2.00012 12.0001Z" fill="#131313"/>
    <path fill-rule="evenodd" clip-rule="evenodd" d="M11.9952 7.45422C12.4095 7.45422 12.7452 7.79001 12.7452 8.20422V12.6232C12.7452 13.0374 12.4095 13.3732 11.9952 13.3732C11.581 13.3732 11.2452 13.0374 11.2452 12.6232V8.20422C11.2452 7.79001 11.581 7.45422 11.9952 7.45422Z" fill="#131313"/>
    <path fill-rule="evenodd" clip-rule="evenodd" d="M10.995 15.7961C10.995 15.2439 11.4427 14.7961 11.995 14.7961H12.005C12.5573 14.7961 13.005 15.2439 13.005 15.7961C13.005 16.3484 12.5573 16.7961 12.005 16.7961H11.995C11.4427 16.7961 10.995 16.3484 10.995 15.7961Z" fill="#131313"/>
</svg>
