<svg width="75" height="46" viewBox="0 0 75 46" fill="none" xmlns="http://www.w3.org/2000/svg">
    <path fill-rule="evenodd" clip-rule="evenodd" d="M35.0475 6.09754C36.4732 4.96749 38.4979 4.96749 39.9236 6.09754L39.9253 6.09893L46.4999 11.3421C47.2749 11.9372 47.7365 12.8515 47.7499 13.8276L47.7501 13.8378L47.75 22.5618C47.75 24.882 45.8522 26.75 43.5271 26.75H41.603L41.5856 26.7498C40.5164 26.725 39.6503 25.8575 39.6505 24.7809C39.6505 24.7809 39.6505 24.781 39.6505 24.7809V21.7047C39.6505 21.3422 39.3517 21.0356 38.9671 21.0356H36.084C35.7023 21.0392 35.4072 21.3446 35.4072 21.7047V24.7714C35.4072 24.8452 35.3965 24.9166 35.3767 24.984C35.2697 25.9823 34.4181 26.75 33.397 26.75H31.4729C29.1478 26.75 27.25 24.882 27.25 22.5618V13.8399C27.2597 12.8621 27.7221 11.9454 28.5002 11.3515L35.0475 6.09754ZM33.9072 24.7714V21.7047C33.9072 21.7047 33.9072 21.7047 33.9072 21.7047C33.9072 20.5054 34.8829 19.5435 36.076 19.5356L36.081 19.5356L38.9671 19.5356C40.1658 19.5356 41.1505 20.4996 41.1505 21.7047V24.7809C41.1504 25.0267 41.3488 25.2403 41.6137 25.25H43.5271C45.038 25.25 46.25 24.0394 46.25 22.5618V13.8434C46.2415 13.33 45.9975 12.8458 45.5828 12.5291L45.5703 12.5194L38.9918 7.27306C38.9916 7.27285 38.9913 7.27263 38.991 7.27242C38.1118 6.57608 36.8604 6.57586 35.9809 7.27176L29.4314 12.5275L29.415 12.5403C28.9998 12.8549 28.7561 13.3388 28.75 13.8514V22.5618C28.75 24.0394 29.962 25.25 31.4729 25.25H33.397C33.6753 25.25 33.888 25.0286 33.888 24.7714H33.9072Z" fill="#131313"/>
    <path d="M29.8571 34.8594V35.8311H26.0827V34.8594H29.8571ZM26.3854 31.8906V39H25.1598V31.8906H26.3854ZM30.7995 31.8906V39H29.5787V31.8906H30.7995ZM31.6776 36.417V36.3047C31.6776 35.9238 31.733 35.5706 31.8436 35.2451C31.9543 34.9163 32.1138 34.6315 32.3221 34.3906C32.5337 34.1465 32.7909 33.9577 33.0936 33.8242C33.3996 33.6875 33.7447 33.6191 34.1288 33.6191C34.5162 33.6191 34.8612 33.6875 35.1639 33.8242C35.4699 33.9577 35.7287 34.1465 35.9403 34.3906C36.1519 34.6315 36.313 34.9163 36.4237 35.2451C36.5344 35.5706 36.5897 35.9238 36.5897 36.3047V36.417C36.5897 36.7979 36.5344 37.151 36.4237 37.4766C36.313 37.8021 36.1519 38.0869 35.9403 38.3311C35.7287 38.5719 35.4716 38.7607 35.1688 38.8975C34.8661 39.0309 34.5227 39.0977 34.1386 39.0977C33.7512 39.0977 33.4045 39.0309 33.0985 38.8975C32.7958 38.7607 32.5386 38.5719 32.327 38.3311C32.1154 38.0869 31.9543 37.8021 31.8436 37.4766C31.733 37.151 31.6776 36.7979 31.6776 36.417ZM32.8544 36.3047V36.417C32.8544 36.6546 32.8788 36.8792 32.9276 37.0908C32.9764 37.3024 33.0529 37.488 33.1571 37.6475C33.2613 37.807 33.3947 37.9323 33.5575 38.0234C33.7203 38.1146 33.9139 38.1602 34.1386 38.1602C34.3567 38.1602 34.5455 38.1146 34.705 38.0234C34.8677 37.9323 35.0012 37.807 35.1054 37.6475C35.2095 37.488 35.286 37.3024 35.3348 37.0908C35.3869 36.8792 35.413 36.6546 35.413 36.417V36.3047C35.413 36.0703 35.3869 35.849 35.3348 35.6406C35.286 35.429 35.2079 35.2419 35.1005 35.0791C34.9963 34.9163 34.8628 34.7894 34.7001 34.6982C34.5406 34.6038 34.3501 34.5566 34.1288 34.5566C33.9074 34.5566 33.7154 34.6038 33.5526 34.6982C33.3931 34.7894 33.2613 34.9163 33.1571 35.0791C33.0529 35.2419 32.9764 35.429 32.9276 35.6406C32.8788 35.849 32.8544 36.0703 32.8544 36.3047ZM38.5128 34.791V39H37.3361V33.7168H38.4445L38.5128 34.791ZM38.3224 36.1631L37.922 36.1582C37.922 35.7936 37.9676 35.4567 38.0587 35.1475C38.1499 34.8382 38.2833 34.5697 38.4591 34.3418C38.6349 34.1107 38.853 33.9333 39.1134 33.8096C39.3771 33.6826 39.6814 33.6191 40.0265 33.6191C40.2674 33.6191 40.4871 33.6549 40.6857 33.7266C40.8875 33.7949 41.0616 33.904 41.2081 34.0537C41.3579 34.2035 41.4718 34.3955 41.5499 34.6299C41.6313 34.8643 41.672 35.1475 41.672 35.4795V39H40.4952V35.582C40.4952 35.3249 40.4562 35.123 40.378 34.9766C40.3032 34.8301 40.1941 34.7259 40.0509 34.6641C39.9109 34.599 39.7433 34.5664 39.548 34.5664C39.3266 34.5664 39.1378 34.6087 38.9816 34.6934C38.8286 34.778 38.7032 34.8936 38.6056 35.04C38.5079 35.1865 38.4363 35.3558 38.3907 35.5479C38.3452 35.7399 38.3224 35.945 38.3224 36.1631ZM41.5988 35.8506L41.047 35.9727C41.047 35.6536 41.0909 35.3525 41.1788 35.0693C41.27 34.7829 41.4018 34.5322 41.5743 34.3174C41.7501 34.0993 41.9666 33.9284 42.2238 33.8047C42.4809 33.681 42.7755 33.6191 43.1075 33.6191C43.3777 33.6191 43.6186 33.6566 43.8302 33.7314C44.045 33.8031 44.2273 33.917 44.3771 34.0732C44.5268 34.2295 44.6407 34.4329 44.7189 34.6836C44.797 34.931 44.8361 35.2305 44.8361 35.582V39H43.6544V35.5771C43.6544 35.3102 43.6154 35.1035 43.5372 34.957C43.4624 34.8105 43.3549 34.7096 43.215 34.6543C43.075 34.5957 42.9073 34.5664 42.712 34.5664C42.5297 34.5664 42.3686 34.6006 42.2286 34.6689C42.0919 34.734 41.9764 34.8268 41.882 34.9473C41.7876 35.0645 41.7159 35.1995 41.6671 35.3525C41.6215 35.5055 41.5988 35.6715 41.5988 35.8506ZM48.1361 39.0977C47.7455 39.0977 47.3923 39.0342 47.0765 38.9072C46.764 38.777 46.4971 38.5964 46.2757 38.3652C46.0576 38.1341 45.89 37.8623 45.7728 37.5498C45.6556 37.2373 45.597 36.9004 45.597 36.5391V36.3438C45.597 35.9303 45.6573 35.556 45.7777 35.2207C45.8981 34.8854 46.0658 34.599 46.2806 34.3613C46.4955 34.1204 46.7494 33.9365 47.0423 33.8096C47.3353 33.6826 47.6527 33.6191 47.9945 33.6191C48.3721 33.6191 48.7025 33.6826 48.9857 33.8096C49.2689 33.9365 49.5033 34.1156 49.6888 34.3467C49.8776 34.5745 50.0176 34.8464 50.1087 35.1621C50.2032 35.4779 50.2504 35.8262 50.2504 36.207V36.71H46.1683V35.8652H49.0882V35.7725C49.0817 35.5609 49.0394 35.3623 48.9613 35.1768C48.8864 34.9912 48.7709 34.8415 48.6146 34.7275C48.4584 34.6136 48.25 34.5566 47.9896 34.5566C47.7943 34.5566 47.6201 34.599 47.4671 34.6836C47.3174 34.765 47.1921 34.8838 47.0912 35.04C46.9903 35.1963 46.9121 35.3851 46.8568 35.6064C46.8047 35.8245 46.7787 36.0703 46.7787 36.3438V36.5391C46.7787 36.7702 46.8096 36.985 46.8714 37.1836C46.9365 37.3789 47.0309 37.5498 47.1546 37.6963C47.2783 37.8428 47.4281 37.9583 47.6039 38.043C47.7796 38.1243 47.9798 38.165 48.2045 38.165C48.4877 38.165 48.7399 38.1081 48.9613 37.9941C49.1826 37.8802 49.3747 37.7191 49.5375 37.5107L50.1576 38.1113C50.0436 38.2773 49.8955 38.4368 49.7132 38.5898C49.5309 38.7396 49.308 38.8617 49.0443 38.9561C48.7839 39.0505 48.4811 39.0977 48.1361 39.0977Z" fill="#131313"/>
</svg>
