<svg width="385" height="239" viewBox="0 0 385 239" fill="none" xmlns="http://www.w3.org/2000/svg">
    <g filter="url(#filter0_d_68_7735)">
        <rect x="5" y="1" width="375" height="229" rx="30" fill="#FFD5C2" shape-rendering="crispEdges"/>
        <rect x="5.5" y="1.5" width="374" height="228" rx="29.5" stroke="black" shape-rendering="crispEdges"/>
        <path d="M31.3253 30.2727L31.3253 39L29.7443 39L29.7443 31.8111L29.6932 31.8111L27.652 33.1151L27.652 31.6662L29.821 30.2727L31.3253 30.2727ZM36.6733 39.1193C36.0597 39.1193 35.5142 39.0142 35.0369 38.804C34.5625 38.5938 34.1875 38.3011 33.9119 37.9261C33.6364 37.5511 33.4901 37.1179 33.473 36.6264L35.0753 36.6264C35.0895 36.8622 35.1676 37.0682 35.3097 37.2443C35.4517 37.4176 35.6406 37.5526 35.8764 37.6491C36.1122 37.7457 36.3764 37.794 36.669 37.794C36.9815 37.794 37.2585 37.7401 37.5 37.6321C37.7415 37.5213 37.9304 37.3679 38.0668 37.1719C38.2031 36.9759 38.2699 36.75 38.267 36.4943C38.2699 36.2301 38.2017 35.9972 38.0625 35.7955C37.9233 35.5937 37.7216 35.4361 37.4574 35.3224C37.196 35.2088 36.8807 35.152 36.5114 35.152L35.7401 35.152L35.7401 33.9332L36.5114 33.9332C36.8153 33.9332 37.081 33.8807 37.3082 33.7756C37.5384 33.6705 37.7188 33.5227 37.8494 33.3324C37.9801 33.1392 38.044 32.9162 38.0412 32.6634C38.044 32.4162 37.9886 32.2017 37.875 32.0199C37.7642 31.8352 37.6065 31.6918 37.402 31.5895C37.2003 31.4872 36.9631 31.4361 36.6903 31.4361C36.4233 31.4361 36.1761 31.4844 35.9489 31.581C35.7216 31.6776 35.5384 31.8153 35.3991 31.9943C35.2599 32.1705 35.1861 32.3807 35.1776 32.625L33.6562 32.625C33.6676 32.1364 33.8082 31.7074 34.0781 31.3381C34.3509 30.9659 34.7145 30.6761 35.169 30.4688C35.6236 30.2585 36.1335 30.1534 36.6989 30.1534C37.2813 30.1534 37.7869 30.2628 38.2159 30.4815C38.6477 30.6974 38.9815 30.9886 39.2173 31.3551C39.4531 31.7216 39.571 32.1264 39.571 32.5696C39.5739 33.0611 39.429 33.473 39.1364 33.8054C38.8466 34.1378 38.4659 34.3551 37.9943 34.4574L37.9943 34.5256C38.608 34.6108 39.0781 34.8381 39.4048 35.2074C39.7344 35.5739 39.8977 36.0298 39.8949 36.5753C39.8949 37.0639 39.7557 37.5014 39.4773 37.8878C39.2017 38.2713 38.821 38.5724 38.3352 38.7912C37.8523 39.0099 37.2983 39.1193 36.6733 39.1193ZM42.9279 37.8068L42.8725 38.2756C42.8327 38.6335 42.7617 38.9972 42.6594 39.3665C42.56 39.7386 42.4549 40.081 42.3441 40.3935C42.2333 40.706 42.1438 40.9517 42.0756 41.1307L41.0359 41.1307C41.0756 40.9574 41.1296 40.7216 41.1978 40.4233C41.2688 40.125 41.337 39.7898 41.4023 39.4176C41.4677 39.0455 41.5117 38.6676 41.5344 38.2841L41.5643 37.8068L42.9279 37.8068ZM50.5717 39.1662C49.87 39.1662 49.2678 38.9886 48.7649 38.6335C48.2649 38.2756 47.88 37.7599 47.6101 37.0866C47.343 36.4105 47.2095 35.5966 47.2095 34.6449C47.2124 33.6932 47.3473 32.8835 47.6143 32.2159C47.8842 31.5455 48.2692 31.0341 48.7692 30.6818C49.272 30.3295 49.8729 30.1534 50.5717 30.1534C51.2706 30.1534 51.8714 30.3295 52.3743 30.6818C52.8771 31.0341 53.2621 31.5455 53.5291 32.2159C53.799 32.8864 53.9339 33.696 53.9339 34.6449C53.9339 35.5994 53.799 36.4148 53.5291 37.0909C53.2621 37.7642 52.8771 38.2784 52.3743 38.6335C51.8743 38.9886 51.2734 39.1662 50.5717 39.1662ZM50.5717 37.8324C51.1172 37.8324 51.5476 37.5639 51.8629 37.027C52.1811 36.4872 52.3402 35.6932 52.3402 34.6449C52.3402 33.9517 52.2678 33.3693 52.1229 32.8977C51.978 32.4261 51.7734 32.071 51.5092 31.8324C51.245 31.5909 50.9325 31.4702 50.5717 31.4702C50.0291 31.4702 49.6001 31.7401 49.2848 32.2798C48.9695 32.8168 48.8104 33.6051 48.8075 34.6449C48.8047 35.3409 48.8743 35.9261 49.0163 36.4006C49.1612 36.875 49.3658 37.233 49.63 37.4744C49.8942 37.7131 50.2081 37.8324 50.5717 37.8324ZM58.5756 39.1662C57.8739 39.1662 57.2717 38.9886 56.7688 38.6335C56.2688 38.2756 55.8839 37.7599 55.614 37.0866C55.3469 36.4105 55.2134 35.5966 55.2134 34.6449C55.2163 33.6932 55.3512 32.8835 55.6183 32.2159C55.8881 31.5455 56.2731 31.0341 56.7731 30.6818C57.2759 30.3295 57.8768 30.1534 58.5756 30.1534C59.2745 30.1534 59.8754 30.3295 60.3782 30.6818C60.881 31.0341 61.266 31.5455 61.533 32.2159C61.8029 32.8864 61.9379 33.696 61.9379 34.6449C61.9379 35.5994 61.8029 36.4148 61.533 37.0909C61.266 37.7642 60.881 38.2784 60.3782 38.6335C59.8782 38.9886 59.2773 39.1662 58.5756 39.1662ZM58.5756 37.8324C59.1211 37.8324 59.5515 37.5639 59.8668 37.027C60.185 36.4872 60.3441 35.6932 60.3441 34.6449C60.3441 33.9517 60.2717 33.3693 60.1268 32.8977C59.9819 32.4261 59.7773 32.071 59.5131 31.8324C59.2489 31.5909 58.9364 31.4702 58.5756 31.4702C58.033 31.4702 57.604 31.7401 57.2887 32.2798C56.9734 32.8168 56.8143 33.6051 56.8114 34.6449C56.8086 35.3409 56.8782 35.9261 57.0202 36.4006C57.1651 36.875 57.3697 37.233 57.6339 37.4744C57.8981 37.7131 58.212 37.8324 58.5756 37.8324ZM66.5795 39.1662C65.8778 39.1662 65.2756 38.9886 64.7727 38.6335C64.2727 38.2756 63.8878 37.7599 63.6179 37.0866C63.3509 36.4105 63.2173 35.5966 63.2173 34.6449C63.2202 33.6932 63.3551 32.8835 63.6222 32.2159C63.892 31.5455 64.277 31.0341 64.777 30.6818C65.2798 30.3295 65.8807 30.1534 66.5795 30.1534C67.2784 30.1534 67.8793 30.3295 68.3821 30.6818C68.8849 31.0341 69.2699 31.5455 69.5369 32.2159C69.8068 32.8864 69.9418 33.696 69.9418 34.6449C69.9418 35.5994 69.8068 36.4148 69.5369 37.0909C69.2699 37.7642 68.8849 38.2784 68.3821 38.6335C67.8821 38.9886 67.2813 39.1662 66.5795 39.1662ZM66.5795 37.8324C67.125 37.8324 67.5554 37.5639 67.8707 37.027C68.1889 36.4872 68.348 35.6932 68.348 34.6449C68.348 33.9517 68.2756 33.3693 68.1307 32.8977C67.9858 32.4261 67.7813 32.071 67.517 31.8324C67.2528 31.5909 66.9403 31.4702 66.5795 31.4702C66.0369 31.4702 65.608 31.7401 65.2926 32.2798C64.9773 32.8168 64.8182 33.6051 64.8153 34.6449C64.8125 35.3409 64.8821 35.9261 65.0241 36.4006C65.169 36.875 65.3736 37.233 65.6378 37.4744C65.902 37.7131 66.2159 37.8324 66.5795 37.8324ZM74.0359 31.598L74.0359 30.2727L80.9989 30.2727L80.9989 31.598L78.3015 31.598L78.3015 39L76.7333 39L76.7333 31.598L74.0359 31.598ZM89.7528 34.6364C89.7528 35.5767 89.5767 36.3821 89.2244 37.0526C88.875 37.7202 88.3977 38.2315 87.7926 38.5866C87.1903 38.9418 86.5071 39.1193 85.7429 39.1193C84.9787 39.1193 84.294 38.9418 83.6889 38.5866C83.0866 38.2287 82.6094 37.7159 82.2571 37.0483C81.9077 36.3778 81.733 35.5739 81.733 34.6364C81.733 33.696 81.9077 32.892 82.2571 32.2244C82.6094 31.554 83.0866 31.0412 83.6889 30.6861C84.294 30.331 84.9787 30.1534 85.7429 30.1534C86.5071 30.1534 87.1903 30.331 87.7926 30.6861C88.3977 31.0412 88.875 31.554 89.2244 32.2244C89.5767 32.892 89.7528 33.696 89.7528 34.6364ZM88.1634 34.6364C88.1634 33.9744 88.0597 33.4162 87.8523 32.9616C87.6477 32.5043 87.3636 32.1591 87 31.9261C86.6364 31.6903 86.2173 31.5724 85.7429 31.5724C85.2685 31.5724 84.8494 31.6903 84.4858 31.9261C84.1222 32.1591 83.8366 32.5043 83.6293 32.9616C83.4247 33.4162 83.3224 33.9744 83.3224 34.6364C83.3224 35.2983 83.4247 35.858 83.6293 36.3153C83.8366 36.7699 84.1222 37.1151 84.4858 37.3509C84.8494 37.5838 85.2685 37.7003 85.7429 37.7003C86.2173 37.7003 86.6364 37.5838 87 37.3509C87.3636 37.1151 87.6477 36.7699 87.8523 36.3153C88.0597 35.858 88.1634 35.2983 88.1634 34.6364ZM98.4194 30.2727L98.4194 39L97.0131 39L92.9009 33.0554L92.8285 33.0554L92.8285 39L91.2475 39L91.2475 30.2727L92.6623 30.2727L96.7702 36.2216L96.8469 36.2216L96.8469 30.2727L98.4194 30.2727ZM107.314 30.2727L107.314 39L105.908 39L101.795 33.0554L101.723 33.0554L101.723 39L100.142 39L100.142 30.2727L101.557 30.2727L105.665 36.2216L105.741 36.2216L105.741 30.2727L107.314 30.2727ZM109.037 39L109.037 30.2727L114.713 30.2727L114.713 31.598L110.618 31.598L110.618 33.9673L114.419 33.9673L114.419 35.2926L110.618 35.2926L110.618 37.6747L114.747 37.6747L114.747 39L109.037 39ZM121.069 32.6719C121.029 32.2997 120.861 32.0099 120.566 31.8026C120.273 31.5952 119.892 31.4915 119.424 31.4915C119.094 31.4915 118.811 31.5412 118.576 31.6406C118.34 31.7401 118.159 31.875 118.034 32.0455C117.909 32.2159 117.846 32.4105 117.843 32.6293C117.843 32.8111 117.884 32.9688 117.966 33.1023C118.051 33.2358 118.167 33.3494 118.311 33.4432C118.456 33.5341 118.617 33.6108 118.793 33.6733C118.969 33.7358 119.147 33.7884 119.326 33.831L120.144 34.0355C120.473 34.1122 120.79 34.2159 121.094 34.3466C121.401 34.4773 121.675 34.642 121.917 34.8409C122.161 35.0398 122.354 35.2798 122.496 35.5611C122.638 35.8423 122.709 36.1719 122.709 36.5497C122.709 37.0611 122.578 37.5114 122.317 37.9006C122.056 38.2869 121.678 38.5895 121.184 38.8082C120.692 39.0241 120.097 39.1321 119.398 39.1321C118.719 39.1321 118.13 39.027 117.63 38.8168C117.132 38.6065 116.743 38.2997 116.462 37.8963C116.184 37.4929 116.033 37.0014 116.01 36.4219L117.566 36.4219C117.588 36.7259 117.682 36.9787 117.847 37.1804C118.012 37.3821 118.226 37.5327 118.49 37.6321C118.757 37.7315 119.056 37.7813 119.385 37.7813C119.729 37.7813 120.03 37.7301 120.289 37.6278C120.55 37.5227 120.755 37.3778 120.902 37.1932C121.05 37.0057 121.125 36.7869 121.128 36.5369C121.125 36.3097 121.059 36.1222 120.928 35.9744C120.797 35.8239 120.614 35.6989 120.378 35.5994C120.145 35.4972 119.873 35.4063 119.56 35.3267L118.567 35.071C117.848 34.8864 117.28 34.6065 116.863 34.2315C116.448 33.8537 116.24 33.3523 116.24 32.7273C116.24 32.2131 116.38 31.7628 116.658 31.3764C116.939 30.9901 117.321 30.6903 117.804 30.4773C118.287 30.2614 118.834 30.1534 119.445 30.1534C120.064 30.1534 120.607 30.2614 121.073 30.4773C121.542 30.6903 121.909 30.9872 122.176 31.3679C122.444 31.7457 122.581 32.1804 122.59 32.6719L121.069 32.6719ZM134.893 34.6364C134.893 35.5767 134.717 36.3821 134.365 37.0526C134.016 37.7202 133.538 38.2315 132.933 38.5866C132.331 38.9418 131.648 39.1193 130.884 39.1193C130.119 39.1193 129.435 38.9418 128.83 38.5866C128.227 38.2287 127.75 37.7159 127.398 37.0483C127.048 36.3778 126.874 35.5739 126.874 34.6364C126.874 33.696 127.048 32.892 127.398 32.2244C127.75 31.554 128.227 31.0412 128.83 30.6861C129.435 30.331 130.119 30.1534 130.884 30.1534C131.648 30.1534 132.331 30.331 132.933 30.6861C133.538 31.0412 134.016 31.554 134.365 32.2244C134.717 32.892 134.893 33.696 134.893 34.6364ZM133.304 34.6364C133.304 33.9744 133.2 33.4162 132.993 32.9616C132.788 32.5043 132.504 32.1591 132.141 31.9261C131.777 31.6903 131.358 31.5724 130.884 31.5724C130.409 31.5724 129.99 31.6903 129.626 31.9261C129.263 32.1591 128.977 32.5043 128.77 32.9616C128.565 33.4162 128.463 33.9744 128.463 34.6364C128.463 35.2983 128.565 35.858 128.77 36.3153C128.977 36.7699 129.263 37.1151 129.626 37.3509C129.99 37.5838 130.409 37.7003 130.884 37.7003C131.358 37.7003 131.777 37.5838 132.141 37.3509C132.504 37.1151 132.788 36.7699 132.993 36.3153C133.2 35.858 133.304 35.2983 133.304 34.6364ZM136.388 39L136.388 30.2727L141.979 30.2727L141.979 31.598L137.969 31.598L137.969 33.9673L141.596 33.9673L141.596 35.2926L137.969 35.2926L137.969 39L136.388 39ZM146.396 39L146.396 30.2727L151.987 30.2727L151.987 31.598L147.977 31.598L147.977 33.9673L151.603 33.9673L151.603 35.2926L147.977 35.2926L147.977 39L146.396 39ZM161.225 34.6364C161.225 35.5767 161.049 36.3821 160.697 37.0526C160.348 37.7202 159.87 38.2315 159.265 38.5866C158.663 38.9418 157.98 39.1193 157.216 39.1193C156.451 39.1193 155.767 38.9418 155.162 38.5866C154.559 38.2287 154.082 37.7159 153.73 37.0483C153.38 36.3778 153.206 35.5739 153.206 34.6364C153.206 33.696 153.38 32.892 153.73 32.2244C154.082 31.554 154.559 31.0412 155.162 30.6861C155.767 30.331 156.451 30.1534 157.216 30.1534C157.98 30.1534 158.663 30.331 159.265 30.6861C159.87 31.0412 160.348 31.554 160.697 32.2244C161.049 32.892 161.225 33.696 161.225 34.6364ZM159.636 34.6364C159.636 33.9744 159.532 33.4162 159.325 32.9616C159.12 32.5043 158.836 32.1591 158.473 31.9261C158.109 31.6903 157.69 31.5724 157.216 31.5724C156.741 31.5724 156.322 31.6903 155.958 31.9261C155.595 32.1591 155.309 32.5043 155.102 32.9616C154.897 33.4162 154.795 33.9744 154.795 34.6364C154.795 35.2983 154.897 35.858 155.102 36.3153C155.309 36.7699 155.595 37.1151 155.958 37.3509C156.322 37.5838 156.741 37.7003 157.216 37.7003C157.69 37.7003 158.109 37.5838 158.473 37.3509C158.836 37.1151 159.12 36.7699 159.325 36.3153C159.532 35.858 159.636 35.2983 159.636 34.6364ZM170.518 34.6364C170.518 35.5767 170.342 36.3821 169.99 37.0526C169.641 37.7202 169.163 38.2315 168.558 38.5866C167.956 38.9418 167.273 39.1193 166.509 39.1193C165.744 39.1193 165.06 38.9418 164.455 38.5866C163.852 38.2287 163.375 37.7159 163.023 37.0483C162.673 36.3778 162.499 35.5739 162.499 34.6364C162.499 33.696 162.673 32.892 163.023 32.2244C163.375 31.554 163.852 31.0412 164.455 30.6861C165.06 30.331 165.744 30.1534 166.509 30.1534C167.273 30.1534 167.956 30.331 168.558 30.6861C169.163 31.0412 169.641 31.554 169.99 32.2244C170.342 32.892 170.518 33.696 170.518 34.6364ZM168.929 34.6364C168.929 33.9744 168.825 33.4162 168.618 32.9616C168.413 32.5043 168.129 32.1591 167.766 31.9261C167.402 31.6903 166.983 31.5724 166.509 31.5724C166.034 31.5724 165.615 31.6903 165.251 31.9261C164.888 32.1591 164.602 32.5043 164.395 32.9616C164.19 33.4162 164.088 33.9744 164.088 34.6364C164.088 35.2983 164.19 35.858 164.395 36.3153C164.602 36.7699 164.888 37.1151 165.251 37.3509C165.615 37.5838 166.034 37.7003 166.509 37.7003C166.983 37.7003 167.402 37.5838 167.766 37.3509C168.129 37.1151 168.413 36.7699 168.618 36.3153C168.825 35.858 168.929 35.2983 168.929 34.6364ZM174.971 39L172.013 39L172.013 30.2727L175.03 30.2727C175.897 30.2727 176.641 30.4474 177.263 30.7969C177.888 31.1435 178.368 31.642 178.703 32.2926C179.039 32.9432 179.206 33.7216 179.206 34.6278C179.206 35.5369 179.037 36.3182 178.699 36.9716C178.364 37.625 177.88 38.1264 177.246 38.4759C176.615 38.8253 175.857 39 174.971 39ZM173.594 37.6321L174.894 37.6321C175.502 37.6321 176.009 37.5213 176.415 37.2997C176.821 37.0753 177.127 36.7415 177.331 36.2983C177.536 35.8523 177.638 35.2955 177.638 34.6278C177.638 33.9602 177.536 33.4063 177.331 32.9659C177.127 32.5227 176.824 32.1918 176.424 31.973C176.026 31.7514 175.532 31.6406 174.941 31.6406L173.594 31.6406L173.594 37.6321ZM189.532 33.0597C189.461 32.8295 189.363 32.6236 189.238 32.4418C189.115 32.2571 188.968 32.0994 188.794 31.9688C188.624 31.8381 188.428 31.7401 188.206 31.6747C187.985 31.6065 187.743 31.5724 187.482 31.5724C187.013 31.5724 186.596 31.6903 186.229 31.9261C185.863 32.1619 185.574 32.5085 185.364 32.9659C185.157 33.4205 185.053 33.9744 185.053 34.6278C185.053 35.2869 185.157 35.8452 185.364 36.3026C185.571 36.7599 185.86 37.108 186.229 37.3466C186.598 37.5824 187.027 37.7003 187.516 37.7003C187.959 37.7003 188.343 37.6151 188.667 37.4446C188.993 37.2741 189.245 37.0327 189.421 36.7202C189.597 36.4048 189.685 36.0355 189.685 35.6122L190.043 35.6676L187.674 35.6676L187.674 34.4318L191.215 34.4318L191.215 35.4801C191.215 36.2273 191.056 36.8736 190.738 37.419C190.419 37.9645 189.982 38.3849 189.425 38.6804C188.868 38.973 188.229 39.1193 187.507 39.1193C186.703 39.1193 185.998 38.9389 185.39 38.5781C184.784 38.2145 184.311 37.6989 183.971 37.0313C183.632 36.3608 183.463 35.5653 183.463 34.6449C183.463 33.9403 183.563 33.3111 183.762 32.7571C183.963 32.2031 184.245 31.733 184.605 31.3466C184.966 30.9574 185.39 30.6619 185.875 30.4602C186.361 30.2557 186.89 30.1534 187.461 30.1534C187.944 30.1534 188.394 30.2244 188.811 30.3665C189.229 30.5057 189.6 30.7045 189.924 30.9631C190.25 31.2216 190.519 31.5284 190.729 31.8835C190.939 32.2386 191.077 32.6307 191.142 33.0597L189.532 33.0597ZM200.542 34.6364C200.542 35.5767 200.366 36.3821 200.013 37.0526C199.664 37.7202 199.187 38.2315 198.582 38.5866C197.979 38.9418 197.296 39.1193 196.532 39.1193C195.768 39.1193 195.083 38.9418 194.478 38.5866C193.876 38.2287 193.398 37.7159 193.046 37.0483C192.697 36.3778 192.522 35.5739 192.522 34.6364C192.522 33.696 192.697 32.892 193.046 32.2244C193.398 31.554 193.876 31.0412 194.478 30.6861C195.083 30.331 195.768 30.1534 196.532 30.1534C197.296 30.1534 197.979 30.331 198.582 30.6861C199.187 31.0412 199.664 31.554 200.013 32.2244C200.366 32.892 200.542 33.696 200.542 34.6364ZM198.952 34.6364C198.952 33.9744 198.849 33.4162 198.641 32.9616C198.437 32.5043 198.153 32.1591 197.789 31.9261C197.425 31.6903 197.006 31.5724 196.532 31.5724C196.058 31.5724 195.638 31.6903 195.275 31.9261C194.911 32.1591 194.626 32.5043 194.418 32.9616C194.214 33.4162 194.112 33.9744 194.112 34.6364C194.112 35.2983 194.214 35.858 194.418 36.3153C194.626 36.7699 194.911 37.1151 195.275 37.3509C195.638 37.5838 196.058 37.7003 196.532 37.7003C197.006 37.7003 197.425 37.5838 197.789 37.3509C198.153 37.1151 198.437 36.7699 198.641 36.3153C198.849 35.858 198.952 35.2983 198.952 34.6364ZM202.037 39L202.037 30.2727L207.713 30.2727L207.713 31.598L203.618 31.598L203.618 33.9673L207.419 33.9673L207.419 35.2926L203.618 35.2926L203.618 37.6747L207.747 37.6747L207.747 39L202.037 39ZM214.069 32.6719C214.029 32.2997 213.861 32.0099 213.566 31.8026C213.273 31.5952 212.892 31.4915 212.424 31.4915C212.094 31.4915 211.811 31.5412 211.576 31.6406C211.34 31.7401 211.159 31.875 211.034 32.0455C210.909 32.2159 210.846 32.4105 210.843 32.6293C210.843 32.8111 210.884 32.9688 210.966 33.1023C211.051 33.2358 211.167 33.3494 211.311 33.4432C211.456 33.5341 211.617 33.6108 211.793 33.6733C211.969 33.7358 212.147 33.7884 212.326 33.831L213.144 34.0355C213.473 34.1122 213.79 34.2159 214.094 34.3466C214.401 34.4773 214.675 34.642 214.917 34.8409C215.161 35.0398 215.354 35.2798 215.496 35.5611C215.638 35.8423 215.709 36.1719 215.709 36.5497C215.709 37.0611 215.578 37.5114 215.317 37.9006C215.056 38.2869 214.678 38.5895 214.184 38.8082C213.692 39.0241 213.097 39.1321 212.398 39.1321C211.719 39.1321 211.13 39.027 210.63 38.8168C210.132 38.6065 209.743 38.2997 209.462 37.8963C209.184 37.4929 209.033 37.0014 209.01 36.4219L210.566 36.4219C210.588 36.7259 210.682 36.9787 210.847 37.1804C211.012 37.3821 211.226 37.5327 211.49 37.6321C211.757 37.7315 212.056 37.7813 212.385 37.7813C212.729 37.7813 213.03 37.7301 213.289 37.6278C213.55 37.5227 213.755 37.3778 213.902 37.1932C214.05 37.0057 214.125 36.7869 214.128 36.5369C214.125 36.3097 214.059 36.1222 213.928 35.9744C213.797 35.8239 213.614 35.6989 213.378 35.5994C213.145 35.4972 212.873 35.4063 212.56 35.3267L211.567 35.071C210.848 34.8864 210.28 34.6065 209.863 34.2315C209.448 33.8537 209.24 33.3523 209.24 32.7273C209.24 32.2131 209.38 31.7628 209.658 31.3764C209.939 30.9901 210.321 30.6903 210.804 30.4773C211.287 30.2614 211.834 30.1534 212.445 30.1534C213.064 30.1534 213.607 30.2614 214.073 30.4773C214.542 30.6903 214.909 30.9872 215.176 31.3679C215.444 31.7457 215.581 32.1804 215.59 32.6719L214.069 32.6719ZM29.4418 45.2727L29.4418 54L27.8608 54L27.8608 45.2727L29.4418 45.2727ZM38.3256 45.2727L38.3256 54L36.9194 54L32.8072 48.0554L32.7347 48.0554L32.7347 54L31.1538 54L31.1538 45.2727L32.5685 45.2727L36.6765 51.2216L36.7532 51.2216L36.7532 45.2727L38.3256 45.2727ZM39.6648 46.598L39.6648 45.2727L46.6278 45.2727L46.6278 46.598L43.9304 46.598L43.9304 54L42.3622 54L42.3622 46.598L39.6648 46.598ZM55.3817 49.6364C55.3817 50.5767 55.2056 51.3821 54.8533 52.0526C54.5039 52.7202 54.0266 53.2315 53.4215 53.5866C52.8192 53.9418 52.136 54.1193 51.3718 54.1193C50.6076 54.1193 49.9229 53.9418 49.3178 53.5866C48.7156 53.2287 48.2383 52.7159 47.886 52.0483C47.5366 51.3778 47.3619 50.5739 47.3619 49.6364C47.3619 48.696 47.5366 47.892 47.886 47.2244C48.2383 46.554 48.7156 46.0412 49.3178 45.6861C49.9229 45.331 50.6076 45.1534 51.3718 45.1534C52.136 45.1534 52.8192 45.331 53.4215 45.6861C54.0266 46.0412 54.5039 46.554 54.8533 47.2244C55.2056 47.892 55.3817 48.696 55.3817 49.6364ZM53.7923 49.6364C53.7923 48.9744 53.6886 48.4162 53.4812 47.9616C53.2766 47.5043 52.9925 47.1591 52.6289 46.9261C52.2653 46.6903 51.8462 46.5724 51.3718 46.5724C50.8974 46.5724 50.4783 46.6903 50.1147 46.9261C49.7511 47.1591 49.4656 47.5043 49.2582 47.9616C49.0536 48.4162 48.9513 48.9744 48.9513 49.6364C48.9513 50.2983 49.0536 50.858 49.2582 51.3153C49.4656 51.7699 49.7511 52.1151 50.1147 52.3509C50.4783 52.5838 50.8974 52.7003 51.3718 52.7003C51.8462 52.7003 52.2653 52.5838 52.6289 52.3509C52.9925 52.1151 53.2766 51.7699 53.4812 51.3153C53.6886 50.858 53.7923 50.2983 53.7923 49.6364ZM59.4695 46.598L59.4695 45.2727L66.4325 45.2727L66.4325 46.598L63.7351 46.598L63.7351 54L62.1669 54L62.1669 46.598L59.4695 46.598ZM67.7749 54L67.7749 45.2727L69.3558 45.2727L69.3558 48.9673L73.3999 48.9673L73.3999 45.2727L74.9851 45.2727L74.9851 54L73.3999 54L73.3999 50.2926L69.3558 50.2926L69.3558 54L67.7749 54ZM76.7045 54L76.7045 45.2727L82.3807 45.2727L82.3807 46.598L78.2855 46.598L78.2855 48.9673L82.0866 48.9673L82.0866 50.2926L78.2855 50.2926L78.2855 52.6747L82.4148 52.6747L82.4148 54L76.7045 54ZM86.9702 54L86.9702 45.2727L88.5511 45.2727L88.5511 52.6747L92.3949 52.6747L92.3949 54L86.9702 54ZM95.2159 54L93.5284 54L96.6009 45.2727L98.5526 45.2727L101.629 54L99.9418 54L97.6108 47.0625L97.5426 47.0625L95.2159 54ZM95.2713 50.5781L99.8736 50.5781L99.8736 51.848L95.2713 51.848L95.2713 50.5781ZM109.951 45.2727L109.951 54L108.544 54L104.432 48.0554L104.36 48.0554L104.36 54L102.779 54L102.779 45.2727L104.194 45.2727L108.301 51.2216L108.378 51.2216L108.378 45.2727L109.951 45.2727ZM114.631 54L111.673 54L111.673 45.2727L114.69 45.2727C115.557 45.2727 116.301 45.4474 116.923 45.7969C117.548 46.1435 118.028 46.642 118.364 47.2926C118.699 47.9432 118.866 48.7216 118.866 49.6278C118.866 50.5369 118.697 51.3182 118.359 51.9716C118.024 52.625 117.54 53.1264 116.906 53.4759C116.276 53.8253 115.517 54 114.631 54ZM113.254 52.6321L114.554 52.6321C115.162 52.6321 115.669 52.5213 116.075 52.2997C116.482 52.0753 116.787 51.7415 116.991 51.2983C117.196 50.8523 117.298 50.2955 117.298 49.6278C117.298 48.9602 117.196 48.4063 116.991 47.9659C116.787 47.5227 116.484 47.1918 116.084 46.973C115.686 46.7514 115.192 46.6406 114.601 46.6406L113.254 46.6406L113.254 52.6321ZM120.369 54L120.369 45.2727L125.96 45.2727L125.96 46.598L121.95 46.598L121.95 48.9673L125.576 48.9673L125.576 50.2926L121.95 50.2926L121.95 54L120.369 54ZM128.981 45.2727L128.981 54L127.4 54L127.4 45.2727L128.981 45.2727ZM130.693 54L130.693 45.2727L132.274 45.2727L132.274 52.6747L136.118 52.6747L136.118 54L130.693 54ZM137.49 54L137.49 45.2727L139.071 45.2727L139.071 52.6747L142.914 52.6747L142.914 54L137.49 54ZM147.263 54L147.263 45.2727L152.939 45.2727L152.939 46.598L148.844 46.598L148.844 48.9673L152.645 48.9673L152.645 50.2926L148.844 50.2926L148.844 52.6747L152.973 52.6747L152.973 54L147.263 54ZM155.72 45.2727L157.991 52.142L158.081 52.142L160.348 45.2727L162.086 45.2727L159.01 54L157.058 54L153.985 45.2727L155.72 45.2727ZM163.236 54L163.236 45.2727L168.912 45.2727L168.912 46.598L164.817 46.598L164.817 48.9673L168.618 48.9673L168.618 50.2926L164.817 50.2926L164.817 52.6747L168.946 52.6747L168.946 54L163.236 54ZM170.525 54L170.525 45.2727L173.798 45.2727C174.468 45.2727 175.031 45.3892 175.485 45.6222C175.942 45.8551 176.288 46.1818 176.521 46.6023C176.756 47.0199 176.874 47.5071 176.874 48.0639C176.874 48.6236 176.755 49.1094 176.516 49.5213C176.281 49.9304 175.933 50.2472 175.472 50.4716C175.012 50.6932 174.447 50.804 173.776 50.804L171.445 50.804L171.445 49.4915L173.563 49.4915C173.955 49.4915 174.276 49.4375 174.526 49.3295C174.776 49.2188 174.961 49.0582 175.08 48.848C175.202 48.6349 175.263 48.3736 175.263 48.0639C175.263 47.7543 175.202 47.4901 175.08 47.2713C174.958 47.0497 174.772 46.8821 174.522 46.7685C174.272 46.652 173.95 46.5938 173.555 46.5938L172.106 46.5938L172.106 54L170.525 54ZM175.033 50.0455L177.194 54L175.43 54L173.308 50.0455L175.033 50.0455ZM177.393 45.2727L179.179 45.2727L181.314 49.1335L181.399 49.1335L183.534 45.2727L185.319 45.2727L182.145 50.7443L182.145 54L180.568 54L180.568 50.7443L177.393 45.2727ZM188.819 45.2727L190.604 45.2727L192.739 49.1335L192.825 49.1335L194.96 45.2727L196.745 45.2727L193.57 50.7443L193.57 54L191.994 54L191.994 50.7443L188.819 45.2727ZM197.865 54L197.865 45.2727L203.541 45.2727L203.541 46.598L199.446 46.598L199.446 48.9673L203.247 48.9673L203.247 50.2926L199.446 50.2926L199.446 52.6747L203.575 52.6747L203.575 54L197.865 54ZM206.275 54L204.587 54L207.659 45.2727L209.611 45.2727L212.688 54L211 54L208.669 47.0625L208.601 47.0625L206.275 54ZM206.33 50.5781L210.932 50.5781L210.932 51.848L206.33 51.848L206.33 50.5781ZM213.837 54L213.837 45.2727L217.11 45.2727C217.781 45.2727 218.343 45.3892 218.798 45.6222C219.255 45.8551 219.6 46.1818 219.833 46.6023C220.069 47.0199 220.187 47.5071 220.187 48.0639C220.187 48.6236 220.067 49.1094 219.829 49.5213C219.593 49.9304 219.245 50.2472 218.785 50.4716C218.325 50.6932 217.759 50.804 217.089 50.804L214.758 50.804L214.758 49.4915L216.876 49.4915C217.268 49.4915 217.589 49.4375 217.839 49.3295C218.089 49.2188 218.273 49.0582 218.393 48.848C218.515 48.6349 218.576 48.3736 218.576 48.0639C218.576 47.7543 218.515 47.4901 218.393 47.2713C218.271 47.0497 218.085 46.8821 217.835 46.7685C217.585 46.652 217.262 46.5938 216.867 46.5938L215.418 46.5938L215.418 54L213.837 54ZM218.346 50.0455L220.506 54L218.742 54L216.62 50.0455L218.346 50.0455ZM29.4418 60.2727L29.4418 69L27.8608 69L27.8608 60.2727L29.4418 60.2727ZM38.3256 60.2727L38.3256 69L36.9194 69L32.8072 63.0554L32.7347 63.0554L32.7347 69L31.1538 69L31.1538 60.2727L32.5685 60.2727L36.6765 66.2216L36.7532 66.2216L36.7532 60.2727L38.3256 60.2727ZM43.0249 60.2727L44.9595 60.2727L47.5504 66.5966L47.6527 66.5966L50.2436 60.2727L52.1783 60.2727L52.1783 69L50.6612 69L50.6612 63.0043L50.5803 63.0043L48.1683 68.9744L47.0348 68.9744L44.6229 62.9915L44.5419 62.9915L44.5419 69L43.0249 69L43.0249 60.2727ZM53.8999 69L53.8999 60.2727L59.576 60.2727L59.576 61.598L55.4808 61.598L55.4808 63.9673L59.282 63.9673L59.282 65.2926L55.4808 65.2926L55.4808 67.6747L59.6101 67.6747L59.6101 69L53.8999 69ZM60.8054 61.598L60.8054 60.2727L67.7685 60.2727L67.7685 61.598L65.071 61.598L65.071 69L63.5028 69L63.5028 61.598L60.8054 61.598ZM69.1108 69L69.1108 60.2727L72.3835 60.2727C73.054 60.2727 73.6165 60.3892 74.071 60.6222C74.5284 60.8551 74.8736 61.1818 75.1065 61.6023C75.3423 62.0199 75.4602 62.5071 75.4602 63.0639C75.4602 63.6236 75.3409 64.1094 75.1023 64.5213C74.8665 64.9304 74.5185 65.2472 74.0582 65.4716C73.598 65.6932 73.0327 65.804 72.3622 65.804L70.0312 65.804L70.0312 64.4915L72.1491 64.4915C72.5412 64.4915 72.8622 64.4375 73.1122 64.3295C73.3622 64.2188 73.5469 64.0582 73.6662 63.848C73.7884 63.6349 73.8494 63.3736 73.8494 63.0639C73.8494 62.7543 73.7884 62.4901 73.6662 62.2713C73.544 62.0497 73.358 61.8821 73.108 61.7685C72.858 61.652 72.5355 61.5938 72.1406 61.5938L70.6918 61.5938L70.6918 69L69.1108 69ZM73.6193 65.0455L75.7798 69L74.0156 69L71.8935 65.0455L73.6193 65.0455ZM84.7138 64.6364C84.7138 65.5767 84.5376 66.3821 84.1854 67.0526C83.8359 67.7202 83.3587 68.2315 82.7536 68.5866C82.1513 68.9418 81.468 69.1193 80.7038 69.1193C79.9396 69.1193 79.255 68.9418 78.6499 68.5866C78.0476 68.2287 77.5703 67.7159 77.218 67.0483C76.8686 66.3778 76.6939 65.5739 76.6939 64.6364C76.6939 63.696 76.8686 62.892 77.218 62.2244C77.5703 61.554 78.0476 61.0412 78.6499 60.6861C79.255 60.331 79.9396 60.1534 80.7038 60.1534C81.468 60.1534 82.1513 60.331 82.7536 60.6861C83.3587 61.0412 83.8359 61.554 84.1854 62.2244C84.5376 62.892 84.7138 63.696 84.7138 64.6364ZM83.1243 64.6364C83.1243 63.9744 83.0206 63.4162 82.8132 62.9616C82.6087 62.5043 82.3246 62.1591 81.9609 61.9261C81.5973 61.6903 81.1783 61.5724 80.7038 61.5724C80.2294 61.5724 79.8104 61.6903 79.4467 61.9261C79.0831 62.1591 78.7976 62.5043 78.5902 62.9616C78.3857 63.4162 78.2834 63.9744 78.2834 64.6364C78.2834 65.2983 78.3857 65.858 78.5902 66.3153C78.7976 66.7699 79.0831 67.1151 79.4467 67.3509C79.8104 67.5838 80.2294 67.7003 80.7038 67.7003C81.1783 67.7003 81.5973 67.5838 81.9609 67.3509C82.3246 67.1151 82.6087 66.7699 82.8132 66.3153C83.0206 65.858 83.1243 65.2983 83.1243 64.6364ZM90.3526 60.2727L92.6239 67.142L92.7134 67.142L94.9805 60.2727L96.7191 60.2727L93.6424 69L91.6907 69L88.6183 60.2727L90.3526 60.2727ZM97.9698 69L96.2823 69L99.3548 60.2727L101.306 60.2727L104.383 69L102.696 69L100.365 62.0625L100.297 62.0625L97.9698 69ZM98.0252 65.5781L102.627 65.5781L102.627 66.848L98.0252 66.848L98.0252 65.5781ZM112.705 60.2727L112.705 69L111.298 69L107.186 63.0554L107.114 63.0554L107.114 69L105.533 69L105.533 60.2727L106.947 60.2727L111.055 66.2216L111.132 66.2216L111.132 60.2727L112.705 60.2727ZM121.897 63.2173L120.304 63.2173C120.258 62.956 120.174 62.7244 120.052 62.5227C119.93 62.3182 119.778 62.1449 119.596 62.0028C119.414 61.8608 119.207 61.7543 118.974 61.6832C118.744 61.6094 118.495 61.5724 118.228 61.5724C117.754 61.5724 117.333 61.6918 116.967 61.9304C116.6 62.1662 116.314 62.5128 116.106 62.9702C115.899 63.4247 115.795 63.9801 115.795 64.6364C115.795 65.304 115.899 65.8665 116.106 66.3239C116.316 66.7784 116.603 67.1222 116.967 67.3551C117.333 67.5852 117.752 67.7003 118.224 67.7003C118.485 67.7003 118.73 67.6662 118.957 67.598C119.187 67.527 119.393 67.4233 119.575 67.2869C119.76 67.1506 119.914 66.983 120.039 66.7841C120.167 66.5852 120.255 66.358 120.304 66.1023L121.897 66.1108C121.838 66.5256 121.708 66.9148 121.51 67.2784C121.314 67.642 121.056 67.9631 120.738 68.2415C120.42 68.517 120.048 68.733 119.622 68.8892C119.196 69.0426 118.723 69.1193 118.203 69.1193C117.436 69.1193 116.751 68.9418 116.149 68.5866C115.547 68.2315 115.072 67.7188 114.725 67.0483C114.379 66.3778 114.206 65.5739 114.206 64.6364C114.206 63.696 114.38 62.892 114.73 62.2244C115.079 61.554 115.555 61.0412 116.157 60.6861C116.76 60.331 117.441 60.1534 118.203 60.1534C118.689 60.1534 119.14 60.2216 119.558 60.358C119.975 60.4943 120.348 60.6946 120.674 60.9588C121.001 61.2202 121.27 61.5412 121.48 61.9219C121.693 62.2997 121.832 62.7315 121.897 63.2173ZM131.143 64.6364C131.143 65.5767 130.967 66.3821 130.615 67.0526C130.266 67.7202 129.788 68.2315 129.183 68.5866C128.581 68.9418 127.898 69.1193 127.134 69.1193C126.369 69.1193 125.685 68.9418 125.08 68.5866C124.477 68.2287 124 67.7159 123.648 67.0483C123.298 66.3778 123.124 65.5739 123.124 64.6364C123.124 63.696 123.298 62.892 123.648 62.2244C124 61.554 124.477 61.0412 125.08 60.6861C125.685 60.331 126.369 60.1534 127.134 60.1534C127.898 60.1534 128.581 60.331 129.183 60.6861C129.788 61.0412 130.266 61.554 130.615 62.2244C130.967 62.892 131.143 63.696 131.143 64.6364ZM129.554 64.6364C129.554 63.9744 129.45 63.4162 129.243 62.9616C129.038 62.5043 128.754 62.1591 128.391 61.9261C128.027 61.6903 127.608 61.5724 127.134 61.5724C126.659 61.5724 126.24 61.6903 125.876 61.9261C125.513 62.1591 125.227 62.5043 125.02 62.9616C124.815 63.4162 124.713 63.9744 124.713 64.6364C124.713 65.2983 124.815 65.858 125.02 66.3153C125.227 66.7699 125.513 67.1151 125.876 67.3509C126.24 67.5838 126.659 67.7003 127.134 67.7003C127.608 67.7003 128.027 67.5838 128.391 67.3509C128.754 67.1151 129.038 66.7699 129.243 66.3153C129.45 65.858 129.554 65.2983 129.554 64.6364ZM138.14 60.2727L139.721 60.2727L139.721 65.9744C139.721 66.5994 139.573 67.1491 139.277 67.6236C138.985 68.098 138.573 68.4688 138.042 68.7358C137.51 69 136.89 69.1321 136.179 69.1321C135.466 69.1321 134.844 69 134.313 68.7358C133.782 68.4688 133.37 68.098 133.077 67.6236C132.784 67.1491 132.638 66.5994 132.638 65.9744L132.638 60.2727L134.219 60.2727L134.219 65.8423C134.219 66.206 134.299 66.5298 134.458 66.8139C134.62 67.098 134.847 67.321 135.14 67.483C135.432 67.642 135.779 67.7216 136.179 67.7216C136.58 67.7216 136.926 67.642 137.219 67.483C137.515 67.321 137.742 67.098 137.901 66.8139C138.06 66.5298 138.14 66.206 138.14 65.8423L138.14 60.2727ZM142.607 60.2727L144.878 67.142L144.967 67.142L147.234 60.2727L148.973 60.2727L145.896 69L143.945 69L140.872 60.2727L142.607 60.2727ZM150.123 69L150.123 60.2727L155.799 60.2727L155.799 61.598L151.703 61.598L151.703 63.9673L155.505 63.9673L155.505 65.2926L151.703 65.2926L151.703 67.6747L155.833 67.6747L155.833 69L150.123 69ZM157.412 69L157.412 60.2727L160.684 60.2727C161.355 60.2727 161.917 60.3892 162.372 60.6222C162.829 60.8551 163.174 61.1818 163.407 61.6023C163.643 62.0199 163.761 62.5071 163.761 63.0639C163.761 63.6236 163.642 64.1094 163.403 64.5213C163.167 64.9304 162.819 65.2472 162.359 65.4716C161.899 65.6932 161.333 65.804 160.663 65.804L158.332 65.804L158.332 64.4915L160.45 64.4915C160.842 64.4915 161.163 64.4375 161.413 64.3295C161.663 64.2188 161.848 64.0582 161.967 63.848C162.089 63.6349 162.15 63.3736 162.15 63.0639C162.15 62.7543 162.089 62.4901 161.967 62.2713C161.845 62.0497 161.659 61.8821 161.409 61.7685C161.159 61.652 160.836 61.5938 160.441 61.5938L158.993 61.5938L158.993 69L157.412 69ZM161.92 65.0455L164.081 69L162.316 69L160.194 65.0455L161.92 65.0455Z" fill="black"/>
        <rect x="5" y="1" width="375" height="229" rx="30" stroke="black" stroke-width="2"/>
        <path d="M25.6364 90.1307L25.6364 88.3636L34.9205 88.3636L34.9205 90.1307L31.3239 90.1307L31.3239 100L29.233 100L29.233 90.1307L25.6364 90.1307ZM36.7102 100L36.7102 88.3636L38.8182 88.3636L38.8182 93.2898L44.2102 93.2898L44.2102 88.3636L46.3239 88.3636L46.3239 100L44.2102 100L44.2102 95.0568L38.8182 95.0568L38.8182 100L36.7102 100ZM50.1108 100L47.8608 100L51.9574 88.3636L54.5597 88.3636L58.6619 100L56.4119 100L53.304 90.75L53.2131 90.75L50.1108 100ZM50.1847 95.4375L56.321 95.4375L56.321 97.1307L50.1847 97.1307L50.1847 95.4375ZM58.277 90.1307L58.277 88.3636L67.5611 88.3636L67.5611 90.1307L63.9645 90.1307L63.9645 100L61.8736 100L61.8736 90.1307L58.277 90.1307ZM73.3196 88.3636L75.8991 88.3636L79.3537 96.7955L79.4901 96.7955L82.9446 88.3636L85.5241 88.3636L85.5241 100L83.5014 100L83.5014 92.0057L83.3935 92.0057L80.1776 99.9659L78.6662 99.9659L75.4503 91.9886L75.3423 91.9886L75.3423 100L73.3196 100L73.3196 88.3636ZM87.8196 100L87.8196 88.3636L95.3878 88.3636L95.3878 90.1307L89.9276 90.1307L89.9276 93.2898L94.9957 93.2898L94.9957 95.0568L89.9276 95.0568L89.9276 98.233L95.4332 98.233L95.4332 100L87.8196 100ZM99.0327 100L96.7827 100L100.879 88.3636L103.482 88.3636L107.584 100L105.334 100L102.226 90.75L102.135 90.75L99.0327 100ZM99.1065 95.4375L105.243 95.4375L105.243 97.1307L99.1065 97.1307L99.1065 95.4375ZM118.679 88.3636L118.679 100L116.804 100L111.321 92.0739L111.224 92.0739L111.224 100L109.116 100L109.116 88.3636L111.003 88.3636L116.48 96.2955L116.582 96.2955L116.582 88.3636L118.679 88.3636ZM127.3 91.5625C127.247 91.0663 127.023 90.6799 126.629 90.4034C126.239 90.1269 125.732 89.9886 125.107 89.9886C124.667 89.9886 124.29 90.0549 123.976 90.1875C123.661 90.3201 123.421 90.5 123.254 90.7273C123.088 90.9545 123.002 91.214 122.999 91.5057C122.999 91.7481 123.054 91.9583 123.163 92.1364C123.277 92.3144 123.43 92.4659 123.624 92.5909C123.817 92.7121 124.031 92.8144 124.266 92.8977C124.5 92.9811 124.737 93.0511 124.976 93.108L126.067 93.3807C126.506 93.483 126.929 93.6212 127.334 93.7955C127.743 93.9697 128.108 94.1894 128.43 94.4545C128.756 94.7197 129.014 95.0398 129.203 95.4148C129.393 95.7898 129.487 96.2292 129.487 96.733C129.487 97.4148 129.313 98.0152 128.964 98.5341C128.616 99.0492 128.112 99.4527 127.453 99.7443C126.798 100.032 126.004 100.176 125.072 100.176C124.167 100.176 123.381 100.036 122.714 99.7557C122.052 99.4754 121.533 99.0663 121.158 98.5284C120.786 97.9905 120.586 97.3352 120.555 96.5625L122.629 96.5625C122.66 96.9678 122.785 97.3049 123.004 97.5739C123.224 97.8428 123.51 98.0436 123.862 98.1761C124.218 98.3087 124.616 98.375 125.055 98.375C125.514 98.375 125.915 98.3068 126.26 98.1705C126.608 98.0303 126.881 97.8371 127.078 97.5909C127.275 97.3409 127.375 97.0492 127.379 96.7159C127.375 96.4129 127.286 96.1629 127.112 95.9659C126.938 95.7652 126.694 95.5985 126.379 95.4659C126.069 95.3295 125.705 95.2083 125.288 95.1023L123.964 94.7614C123.006 94.5152 122.249 94.142 121.692 93.642C121.139 93.1383 120.862 92.4697 120.862 91.6364C120.862 90.9508 121.048 90.3504 121.419 89.8352C121.794 89.3201 122.304 88.9205 122.947 88.6364C123.591 88.3485 124.321 88.2045 125.135 88.2045C125.961 88.2045 126.684 88.3485 127.305 88.6364C127.93 88.9205 128.421 89.3163 128.777 89.8239C129.133 90.3277 129.317 90.9072 129.328 91.5625L127.3 91.5625ZM30.2102 119.159C29.392 119.159 28.6648 119.019 28.0284 118.739C27.3958 118.458 26.8958 118.068 26.5284 117.568C26.161 117.068 25.9659 116.491 25.9432 115.835L28.0795 115.835C28.0985 116.15 28.2027 116.424 28.392 116.659C28.5814 116.89 28.8333 117.07 29.1477 117.199C29.4621 117.328 29.8144 117.392 30.2045 117.392C30.6212 117.392 30.9905 117.32 31.3125 117.176C31.6345 117.028 31.8864 116.824 32.0682 116.563C32.25 116.301 32.339 116 32.3352 115.659C32.339 115.307 32.2481 114.996 32.0625 114.727C31.8769 114.458 31.608 114.248 31.2557 114.097C30.9072 113.945 30.4867 113.869 29.9943 113.869L28.9659 113.869L28.9659 112.244L29.9943 112.244C30.3996 112.244 30.7538 112.174 31.0568 112.034C31.3636 111.894 31.6042 111.697 31.7784 111.443C31.9527 111.186 32.0379 110.888 32.0341 110.551C32.0379 110.222 31.964 109.936 31.8125 109.693C31.6648 109.447 31.4545 109.256 31.1818 109.119C30.9129 108.983 30.5966 108.915 30.233 108.915C29.8769 108.915 29.5473 108.979 29.2443 109.108C28.9413 109.237 28.697 109.42 28.5114 109.659C28.3258 109.894 28.2273 110.174 28.2159 110.5L26.1875 110.5C26.2027 109.848 26.3902 109.277 26.75 108.784C27.1136 108.288 27.5985 107.902 28.2045 107.625C28.8106 107.345 29.4905 107.205 30.2443 107.205C31.0208 107.205 31.6951 107.35 32.267 107.642C32.8428 107.93 33.2879 108.318 33.6023 108.807C33.9167 109.295 34.0739 109.835 34.0739 110.426C34.0777 111.081 33.8845 111.631 33.4943 112.074C33.108 112.517 32.6004 112.807 31.9716 112.943L31.9716 113.034C32.7898 113.148 33.4167 113.451 33.8523 113.943C34.2917 114.432 34.5095 115.04 34.5057 115.767C34.5057 116.419 34.3201 117.002 33.9489 117.517C33.5814 118.028 33.0739 118.43 32.4261 118.722C31.7822 119.013 31.0436 119.159 30.2102 119.159ZM40.7173 119.159C40.1605 119.155 39.617 119.059 39.0866 118.869C38.5563 118.676 38.0791 118.364 37.6548 117.932C37.2306 117.496 36.8935 116.919 36.6435 116.199C36.3935 115.475 36.2704 114.58 36.2741 113.511C36.2741 112.515 36.3802 111.627 36.5923 110.847C36.8045 110.066 37.1094 109.407 37.5071 108.869C37.9048 108.328 38.384 107.915 38.9446 107.631C39.509 107.347 40.1397 107.205 40.8366 107.205C41.5677 107.205 42.2154 107.348 42.7798 107.636C43.348 107.924 43.8063 108.318 44.1548 108.818C44.5033 109.314 44.7192 109.875 44.8026 110.5L42.7287 110.5C42.6226 110.053 42.4048 109.697 42.0753 109.432C41.7495 109.163 41.3366 109.028 40.8366 109.028C40.0298 109.028 39.4086 109.379 38.973 110.08C38.5412 110.78 38.3234 111.742 38.3196 112.966L38.3991 112.966C38.5848 112.633 38.8253 112.347 39.1207 112.108C39.4162 111.869 39.7495 111.686 40.1207 111.557C40.4957 111.424 40.8916 111.358 41.3082 111.358C41.9901 111.358 42.6018 111.521 43.1435 111.847C43.6889 112.172 44.1207 112.621 44.4389 113.193C44.7571 113.761 44.9143 114.413 44.9105 115.148C44.9143 115.913 44.7401 116.6 44.3878 117.21C44.0355 117.816 43.545 118.294 42.9162 118.642C42.2874 118.991 41.5545 119.163 40.7173 119.159ZM40.706 117.455C41.1188 117.455 41.4882 117.354 41.8139 117.153C42.1397 116.953 42.3973 116.682 42.5866 116.341C42.776 116 42.8688 115.617 42.8651 115.193C42.8688 114.777 42.7779 114.4 42.5923 114.063C42.4105 113.725 42.1586 113.458 41.8366 113.261C41.5147 113.064 41.1473 112.966 40.7344 112.966C40.4276 112.966 40.1416 113.025 39.8764 113.142C39.6113 113.259 39.3802 113.422 39.1832 113.631C38.9863 113.835 38.831 114.074 38.7173 114.347C38.6075 114.616 38.5507 114.903 38.5469 115.21C38.5507 115.616 38.6454 115.989 38.831 116.33C39.0166 116.67 39.2723 116.943 39.598 117.148C39.9238 117.352 40.2931 117.455 40.706 117.455ZM51.1321 119.222C50.1965 119.222 49.3935 118.985 48.723 118.511C48.0563 118.034 47.5431 117.347 47.1832 116.449C46.8272 115.547 46.6491 114.462 46.6491 113.193C46.6529 111.924 46.8329 110.845 47.1889 109.955C47.5488 109.061 48.062 108.379 48.7287 107.909C49.3991 107.439 50.2003 107.205 51.1321 107.205C52.0639 107.205 52.8651 107.439 53.5355 107.909C54.206 108.379 54.7192 109.061 55.0753 109.955C55.4351 110.848 55.6151 111.928 55.6151 113.193C55.6151 114.466 55.4351 115.553 55.0753 116.455C54.7192 117.352 54.206 118.038 53.5355 118.511C52.8688 118.985 52.0677 119.222 51.1321 119.222ZM51.1321 117.443C51.8594 117.443 52.4332 117.085 52.8537 116.369C53.2779 115.65 53.4901 114.591 53.4901 113.193C53.4901 112.269 53.3935 111.492 53.2003 110.864C53.0071 110.235 52.7344 109.761 52.3821 109.443C52.0298 109.121 51.6132 108.96 51.1321 108.96C50.4086 108.96 49.8366 109.32 49.4162 110.04C48.9957 110.756 48.7836 111.807 48.7798 113.193C48.776 114.121 48.8688 114.902 49.0582 115.534C49.2514 116.167 49.5241 116.644 49.8764 116.966C50.2287 117.284 50.6473 117.443 51.1321 117.443ZM61.804 119.222C60.8684 119.222 60.0653 118.985 59.3949 118.511C58.7282 118.034 58.215 117.347 57.8551 116.449C57.4991 115.547 57.321 114.462 57.321 113.193C57.3248 111.924 57.5047 110.845 57.8608 109.955C58.2206 109.061 58.7339 108.379 59.4006 107.909C60.071 107.439 60.8722 107.205 61.804 107.205C62.7358 107.205 63.5369 107.439 64.2074 107.909C64.8778 108.379 65.3911 109.061 65.7472 109.955C66.107 110.848 66.2869 111.928 66.2869 113.193C66.2869 114.466 66.107 115.553 65.7472 116.455C65.3911 117.352 64.8778 118.038 64.2074 118.511C63.5407 118.985 62.7396 119.222 61.804 119.222ZM61.804 117.443C62.5312 117.443 63.1051 117.085 63.5256 116.369C63.9498 115.65 64.1619 114.591 64.1619 113.193C64.1619 112.269 64.0653 111.492 63.8722 110.864C63.679 110.235 63.4062 109.761 63.054 109.443C62.7017 109.121 62.285 108.96 61.804 108.96C61.0805 108.96 60.5085 109.32 60.0881 110.04C59.6676 110.756 59.4555 111.807 59.4517 113.193C59.4479 114.121 59.5407 114.902 59.7301 115.534C59.9233 116.167 60.196 116.644 60.5483 116.966C60.9006 117.284 61.3191 117.443 61.804 117.443ZM72.4759 119.222C71.5402 119.222 70.7372 118.985 70.0668 118.511C69.4001 118.034 68.8868 117.347 68.527 116.449C68.1709 115.547 67.9929 114.462 67.9929 113.193C67.9967 111.924 68.1766 110.845 68.5327 109.955C68.8925 109.061 69.4058 108.379 70.0724 107.909C70.7429 107.439 71.544 107.205 72.4759 107.205C73.4077 107.205 74.2088 107.439 74.8793 107.909C75.5497 108.379 76.063 109.061 76.419 109.955C76.7789 110.848 76.9588 111.928 76.9588 113.193C76.9588 114.466 76.7789 115.553 76.419 116.455C76.063 117.352 75.5497 118.038 74.8793 118.511C74.2126 118.985 73.4115 119.222 72.4759 119.222ZM72.4759 117.443C73.2031 117.443 73.777 117.085 74.1974 116.369C74.6217 115.65 74.8338 114.591 74.8338 113.193C74.8338 112.269 74.7372 111.492 74.544 110.864C74.3509 110.235 74.0781 109.761 73.7259 109.443C73.3736 109.121 72.9569 108.96 72.4759 108.96C71.7524 108.96 71.1804 109.32 70.7599 110.04C70.3395 110.756 70.1274 111.807 70.1236 113.193C70.1198 114.121 70.2126 114.902 70.402 115.534C70.5952 116.167 70.8679 116.644 71.2202 116.966C71.5724 117.284 71.991 117.443 72.4759 117.443ZM82.929 119L82.929 107.364L85.0369 107.364L85.0369 112.71L85.179 112.71L89.7187 107.364L92.2926 107.364L87.7926 112.585L92.3324 119L89.7983 119L86.3267 114.011L85.0369 115.534L85.0369 119L82.929 119ZM100.928 111.08C100.833 110.773 100.702 110.498 100.536 110.256C100.373 110.009 100.176 109.799 99.9446 109.625C99.7173 109.451 99.456 109.32 99.1605 109.233C98.8651 109.142 98.5431 109.097 98.1946 109.097C97.5696 109.097 97.0128 109.254 96.5241 109.568C96.0355 109.883 95.651 110.345 95.3707 110.955C95.0942 111.561 94.956 112.299 94.956 113.17C94.956 114.049 95.0942 114.794 95.3707 115.403C95.6473 116.013 96.0317 116.477 96.5241 116.795C97.0166 117.11 97.5885 117.267 98.2401 117.267C98.831 117.267 99.3423 117.153 99.7741 116.926C100.21 116.699 100.545 116.377 100.78 115.96C101.015 115.54 101.132 115.047 101.132 114.483L101.609 114.557L98.4503 114.557L98.4503 112.909L103.172 112.909L103.172 114.307C103.172 115.303 102.96 116.165 102.536 116.892C102.111 117.619 101.528 118.18 100.786 118.574C100.043 118.964 99.1908 119.159 98.2287 119.159C97.1567 119.159 96.2154 118.919 95.4048 118.438C94.598 117.953 93.9673 117.265 93.5128 116.375C93.062 115.481 92.8366 114.42 92.8366 113.193C92.8366 112.254 92.9692 111.415 93.2344 110.676C93.5033 109.938 93.8783 109.311 94.3594 108.795C94.8404 108.277 95.4048 107.883 96.0526 107.614C96.7003 107.341 97.4048 107.205 98.1662 107.205C98.8101 107.205 99.4105 107.299 99.9673 107.489C100.524 107.674 101.018 107.939 101.45 108.284C101.886 108.629 102.244 109.038 102.524 109.511C102.804 109.985 102.988 110.508 103.075 111.08L100.928 111.08ZM119.577 113.182C119.577 114.436 119.342 115.509 118.872 116.403C118.406 117.294 117.77 117.975 116.963 118.449C116.16 118.922 115.249 119.159 114.23 119.159C113.211 119.159 112.298 118.922 111.491 118.449C110.688 117.972 110.052 117.288 109.582 116.398C109.116 115.504 108.884 114.432 108.884 113.182C108.884 111.928 109.116 110.856 109.582 109.966C110.052 109.072 110.688 108.388 111.491 107.915C112.298 107.441 113.211 107.205 114.23 107.205C115.249 107.205 116.16 107.441 116.963 107.915C117.77 108.388 118.406 109.072 118.872 109.966C119.342 110.856 119.577 111.928 119.577 113.182ZM117.457 113.182C117.457 112.299 117.319 111.555 117.043 110.949C116.77 110.339 116.391 109.879 115.906 109.568C115.421 109.254 114.863 109.097 114.23 109.097C113.598 109.097 113.039 109.254 112.554 109.568C112.069 109.879 111.688 110.339 111.412 110.949C111.139 111.555 111.003 112.299 111.003 113.182C111.003 114.064 111.139 114.811 111.412 115.42C111.688 116.027 112.069 116.487 112.554 116.801C113.039 117.112 113.598 117.267 114.23 117.267C114.863 117.267 115.421 117.112 115.906 116.801C116.391 116.487 116.77 116.027 117.043 115.42C117.319 114.811 117.457 114.064 117.457 113.182ZM121.57 119L121.57 107.364L129.024 107.364L129.024 109.131L123.678 109.131L123.678 112.29L128.513 112.29L128.513 114.057L123.678 114.057L123.678 119L121.57 119ZM26.1477 138L26.1477 126.364L33.7159 126.364L33.7159 128.131L28.2557 128.131L28.2557 131.29L33.3239 131.29L33.3239 133.057L28.2557 133.057L28.2557 136.233L33.7614 136.233L33.7614 138L26.1477 138ZM39.8097 138L35.8665 138L35.8665 126.364L39.8892 126.364C41.0445 126.364 42.0369 126.597 42.8665 127.063C43.6998 127.525 44.34 128.189 44.7869 129.057C45.2339 129.924 45.4574 130.962 45.4574 132.17C45.4574 133.383 45.232 134.424 44.7812 135.295C44.3343 136.167 43.6884 136.835 42.8437 137.301C42.0028 137.767 40.9915 138 39.8097 138ZM37.9744 136.176L39.7074 136.176C40.518 136.176 41.1941 136.028 41.7358 135.733C42.2775 135.434 42.6847 134.989 42.9574 134.398C43.2301 133.803 43.3665 133.061 43.3665 132.17C43.3665 131.28 43.2301 130.542 42.9574 129.955C42.6847 129.364 42.2812 128.922 41.7472 128.631C41.2169 128.335 40.5578 128.188 39.7699 128.188L37.9744 128.188L37.9744 136.176ZM49.5682 126.364L49.5682 138L47.4602 138L47.4602 126.364L49.5682 126.364ZM51.8509 138L51.8509 126.364L56.3054 126.364C57.1463 126.364 57.8452 126.496 58.402 126.761C58.9626 127.023 59.3812 127.381 59.6577 127.835C59.938 128.29 60.0781 128.805 60.0781 129.381C60.0781 129.854 59.9872 130.259 59.8054 130.597C59.6236 130.93 59.3793 131.201 59.0724 131.409C58.7656 131.617 58.4228 131.767 58.044 131.858L58.044 131.972C58.4569 131.994 58.8527 132.121 59.2315 132.352C59.6141 132.58 59.9266 132.902 60.169 133.318C60.4115 133.735 60.5327 134.239 60.5327 134.83C60.5327 135.432 60.3868 135.973 60.0952 136.455C59.8035 136.932 59.3641 137.309 58.777 137.585C58.1899 137.862 57.4512 138 56.5611 138L51.8509 138ZM53.9588 136.239L56.2259 136.239C56.991 136.239 57.5421 136.093 57.8793 135.801C58.2202 135.506 58.3906 135.127 58.3906 134.665C58.3906 134.32 58.3054 134.009 58.1349 133.733C57.9645 133.453 57.7221 133.233 57.4077 133.074C57.0933 132.911 56.7183 132.83 56.2827 132.83L53.9588 132.83L53.9588 136.239ZM53.9588 131.313L56.044 131.313C56.4077 131.313 56.7353 131.246 57.027 131.114C57.3187 130.977 57.5478 130.786 57.7145 130.54C57.8849 130.29 57.9702 129.994 57.9702 129.653C57.9702 129.203 57.8111 128.831 57.4929 128.54C57.1785 128.248 56.7107 128.102 56.0895 128.102L53.9588 128.102L53.9588 131.313ZM62.3665 138L62.3665 126.364L64.4744 126.364L64.4744 136.233L69.5994 136.233L69.5994 138L62.3665 138ZM71.429 138L71.429 126.364L78.9972 126.364L78.9972 128.131L73.5369 128.131L73.5369 131.29L78.6051 131.29L78.6051 133.057L73.5369 133.057L73.5369 136.233L79.0426 136.233L79.0426 138L71.429 138ZM83.4716 136.409L83.3977 137.034C83.3447 137.511 83.25 137.996 83.1136 138.489C82.9811 138.985 82.8409 139.441 82.6932 139.858C82.5455 140.275 82.4261 140.602 82.3352 140.841L80.9489 140.841C81.0019 140.61 81.0739 140.295 81.1648 139.898C81.2595 139.5 81.3504 139.053 81.4375 138.557C81.5246 138.061 81.5833 137.557 81.6136 137.045L81.6534 136.409L83.4716 136.409ZM89.4759 138L89.4759 126.364L91.5838 126.364L91.5838 131.29L96.9759 131.29L96.9759 126.364L99.0895 126.364L99.0895 138L96.9759 138L96.9759 133.057L91.5838 133.057L91.5838 138L89.4759 138ZM101.382 138L101.382 126.364L108.95 126.364L108.95 128.131L103.49 128.131L103.49 131.29L108.558 131.29L108.558 133.057L103.49 133.057L103.49 136.233L108.996 136.233L108.996 138L101.382 138ZM112.595 138L110.345 138L114.442 126.364L117.044 126.364L121.146 138L118.896 138L115.788 128.75L115.697 128.75L112.595 138ZM112.669 133.438L118.805 133.438L118.805 135.131L112.669 135.131L112.669 133.438ZM122.679 138L122.679 126.364L124.787 126.364L124.787 136.233L129.912 136.233L129.912 138L122.679 138ZM129.746 128.131L129.746 126.364L139.03 126.364L139.03 128.131L135.433 128.131L135.433 138L133.342 138L133.342 128.131L129.746 128.131ZM140.82 138L140.82 126.364L142.928 126.364L142.928 131.29L148.32 131.29L148.32 126.364L150.433 126.364L150.433 138L148.32 138L148.32 133.057L142.928 133.057L142.928 138L140.82 138ZM151.93 126.364L154.311 126.364L157.158 131.511L157.271 131.511L160.118 126.364L162.499 126.364L158.266 133.659L158.266 138L156.163 138L156.163 133.659L151.93 126.364ZM26.1477 157L26.1477 145.364L33.6023 145.364L33.6023 147.131L28.2557 147.131L28.2557 150.29L33.0909 150.29L33.0909 152.057L28.2557 152.057L28.2557 157L26.1477 157ZM45.9205 151.182C45.9205 152.436 45.6856 153.509 45.2159 154.403C44.75 155.294 44.1136 155.975 43.3068 156.449C42.5038 156.922 41.5928 157.159 40.5739 157.159C39.5549 157.159 38.642 156.922 37.8352 156.449C37.0322 155.972 36.3958 155.288 35.9261 154.398C35.4602 153.504 35.2273 152.432 35.2273 151.182C35.2273 149.928 35.4602 148.856 35.9261 147.966C36.3958 147.072 37.0322 146.388 37.8352 145.915C38.642 145.441 39.5549 145.205 40.5739 145.205C41.5928 145.205 42.5038 145.441 43.3068 145.915C44.1136 146.388 44.75 147.072 45.2159 147.966C45.6856 148.856 45.9205 149.928 45.9205 151.182ZM43.8011 151.182C43.8011 150.299 43.6629 149.555 43.3864 148.949C43.1136 148.339 42.7348 147.879 42.25 147.568C41.7652 147.254 41.2064 147.097 40.5739 147.097C39.9413 147.097 39.3826 147.254 38.8977 147.568C38.4129 147.879 38.0322 148.339 37.7557 148.949C37.483 149.555 37.3466 150.299 37.3466 151.182C37.3466 152.064 37.483 152.811 37.7557 153.42C38.0322 154.027 38.4129 154.487 38.8977 154.801C39.3826 155.112 39.9413 155.267 40.5739 155.267C41.2064 155.267 41.7652 155.112 42.25 154.801C42.7348 154.487 43.1136 154.027 43.3864 153.42C43.6629 152.811 43.8011 152.064 43.8011 151.182ZM58.3111 151.182C58.3111 152.436 58.0762 153.509 57.6065 154.403C57.1406 155.294 56.5043 155.975 55.6974 156.449C54.8944 156.922 53.9834 157.159 52.9645 157.159C51.9455 157.159 51.0327 156.922 50.2259 156.449C49.4228 155.972 48.7865 155.288 48.3168 154.398C47.8509 153.504 47.6179 152.432 47.6179 151.182C47.6179 149.928 47.8509 148.856 48.3168 147.966C48.7865 147.072 49.4228 146.388 50.2259 145.915C51.0327 145.441 51.9455 145.205 52.9645 145.205C53.9834 145.205 54.8944 145.441 55.6974 145.915C56.5043 146.388 57.1406 147.072 57.6065 147.966C58.0762 148.856 58.3111 149.928 58.3111 151.182ZM56.1918 151.182C56.1918 150.299 56.0535 149.555 55.777 148.949C55.5043 148.339 55.1255 147.879 54.6406 147.568C54.1558 147.254 53.5971 147.097 52.9645 147.097C52.3319 147.097 51.7732 147.254 51.2884 147.568C50.8035 147.879 50.4228 148.339 50.1463 148.949C49.8736 149.555 49.7372 150.299 49.7372 151.182C49.7372 152.064 49.8736 152.811 50.1463 153.42C50.4228 154.027 50.8035 154.487 51.2884 154.801C51.7732 155.112 52.3319 155.267 52.9645 155.267C53.5971 155.267 54.1558 155.112 54.6406 154.801C55.1255 154.487 55.5043 154.027 55.777 153.42C56.0535 152.811 56.1918 152.064 56.1918 151.182ZM64.2472 157L60.304 157L60.304 145.364L64.3267 145.364C65.482 145.364 66.4744 145.597 67.304 146.063C68.1373 146.525 68.7775 147.189 69.2244 148.057C69.6714 148.924 69.8949 149.962 69.8949 151.17C69.8949 152.383 69.6695 153.424 69.2187 154.295C68.7718 155.167 68.1259 155.835 67.2812 156.301C66.4403 156.767 65.429 157 64.2472 157ZM62.4119 155.176L64.1449 155.176C64.9555 155.176 65.6316 155.028 66.1733 154.733C66.715 154.434 67.1222 153.989 67.3949 153.398C67.6676 152.803 67.804 152.061 67.804 151.17C67.804 150.28 67.6676 149.542 67.3949 148.955C67.1222 148.364 66.7187 147.922 66.1847 147.631C65.6544 147.335 64.9953 147.188 64.2074 147.188L62.4119 147.188L62.4119 155.176ZM77.9744 145.364L77.9744 157L75.8665 157L75.8665 145.364L77.9744 145.364ZM86.581 148.563C86.5279 148.066 86.3045 147.68 85.9105 147.403C85.5204 147.127 85.0128 146.989 84.3878 146.989C83.9484 146.989 83.5715 147.055 83.2571 147.188C82.9427 147.32 82.7022 147.5 82.5355 147.727C82.3688 147.955 82.2836 148.214 82.2798 148.506C82.2798 148.748 82.3348 148.958 82.4446 149.136C82.5582 149.314 82.7116 149.466 82.9048 149.591C83.098 149.712 83.312 149.814 83.5469 149.898C83.7817 149.981 84.0185 150.051 84.2571 150.108L85.348 150.381C85.7874 150.483 86.2098 150.621 86.6151 150.795C87.0241 150.97 87.3897 151.189 87.7116 151.455C88.0374 151.72 88.295 152.04 88.4844 152.415C88.6738 152.79 88.7685 153.229 88.7685 153.733C88.7685 154.415 88.5942 155.015 88.2457 155.534C87.8973 156.049 87.3935 156.453 86.7344 156.744C86.0791 157.032 85.2855 157.176 84.3537 157.176C83.4484 157.176 82.6624 157.036 81.9957 156.756C81.3329 156.475 80.8139 156.066 80.4389 155.528C80.0677 154.991 79.867 154.335 79.8366 153.563L81.9105 153.563C81.9408 153.968 82.0658 154.305 82.2855 154.574C82.5052 154.843 82.7912 155.044 83.1435 155.176C83.4995 155.309 83.8973 155.375 84.3366 155.375C84.795 155.375 85.1965 155.307 85.5412 155.17C85.8897 155.03 86.1624 154.837 86.3594 154.591C86.5563 154.341 86.6567 154.049 86.6605 153.716C86.6567 153.413 86.5677 153.163 86.3935 152.966C86.2192 152.765 85.9749 152.598 85.6605 152.466C85.3499 152.33 84.9863 152.208 84.5696 152.102L83.2457 151.761C82.2874 151.515 81.5298 151.142 80.973 150.642C80.42 150.138 80.1435 149.47 80.1435 148.636C80.1435 147.951 80.3291 147.35 80.7003 146.835C81.0753 146.32 81.5848 145.92 82.2287 145.636C82.8726 145.348 83.6018 145.205 84.4162 145.205C85.242 145.205 85.9654 145.348 86.5866 145.636C87.2116 145.92 87.7022 146.316 88.0582 146.824C88.4143 147.328 88.598 147.907 88.6094 148.563L86.581 148.563ZM94.1051 147.131L94.1051 145.364L103.389 145.364L103.389 147.131L99.7926 147.131L99.7926 157L97.7017 157L97.7017 147.131L94.1051 147.131ZM105.179 157L105.179 145.364L107.287 145.364L107.287 150.29L112.679 150.29L112.679 145.364L114.793 145.364L114.793 157L112.679 157L112.679 152.057L107.287 152.057L107.287 157L105.179 157ZM117.085 157L117.085 145.364L121.449 145.364C122.343 145.364 123.093 145.519 123.699 145.83C124.309 146.14 124.769 146.576 125.08 147.136C125.394 147.693 125.551 148.343 125.551 149.085C125.551 149.831 125.392 150.479 125.074 151.028C124.759 151.574 124.295 151.996 123.682 152.295C123.068 152.591 122.314 152.739 121.42 152.739L118.312 152.739L118.312 150.989L121.136 150.989C121.659 150.989 122.087 150.917 122.42 150.773C122.754 150.625 123 150.411 123.159 150.131C123.322 149.847 123.403 149.498 123.403 149.085C123.403 148.672 123.322 148.32 123.159 148.028C122.996 147.733 122.748 147.509 122.415 147.358C122.081 147.203 121.652 147.125 121.125 147.125L119.193 147.125L119.193 157L117.085 157ZM123.097 151.727L125.977 157L123.625 157L120.795 151.727L123.097 151.727ZM137.889 151.182C137.889 152.436 137.654 153.509 137.185 154.403C136.719 155.294 136.082 155.975 135.276 156.449C134.473 156.922 133.562 157.159 132.543 157.159C131.524 157.159 130.611 156.922 129.804 156.449C129.001 155.972 128.365 155.288 127.895 154.398C127.429 153.504 127.196 152.432 127.196 151.182C127.196 149.928 127.429 148.856 127.895 147.966C128.365 147.072 129.001 146.388 129.804 145.915C130.611 145.441 131.524 145.205 132.543 145.205C133.562 145.205 134.473 145.441 135.276 145.915C136.082 146.388 136.719 147.072 137.185 147.966C137.654 148.856 137.889 149.928 137.889 151.182ZM135.77 151.182C135.77 150.299 135.632 149.555 135.355 148.949C135.082 148.339 134.704 147.879 134.219 147.568C133.734 147.254 133.175 147.097 132.543 147.097C131.91 147.097 131.351 147.254 130.866 147.568C130.382 147.879 130.001 148.339 129.724 148.949C129.452 149.555 129.315 150.299 129.315 151.182C129.315 152.064 129.452 152.811 129.724 153.42C130.001 154.027 130.382 154.487 130.866 154.801C131.351 155.112 131.91 155.267 132.543 155.267C133.175 155.267 133.734 155.112 134.219 154.801C134.704 154.487 135.082 154.027 135.355 153.42C135.632 152.811 135.77 152.064 135.77 151.182ZM142.034 157L138.75 145.364L141.017 145.364L143.114 153.915L143.222 153.915L145.46 145.364L147.523 145.364L149.767 153.92L149.869 153.92L151.966 145.364L154.233 145.364L150.949 157L148.869 157L146.54 148.835L146.449 148.835L144.114 157L142.034 157ZM165.257 145.364L165.257 157L163.382 157L157.899 149.074L157.803 149.074L157.803 157L155.695 157L155.695 145.364L157.581 145.364L163.058 153.295L163.161 153.295L163.161 145.364L165.257 145.364ZM181.92 151.182C181.92 152.436 181.686 153.509 181.216 154.403C180.75 155.294 180.114 155.975 179.307 156.449C178.504 156.922 177.593 157.159 176.574 157.159C175.555 157.159 174.642 156.922 173.835 156.449C173.032 155.972 172.396 155.288 171.926 154.398C171.46 153.504 171.227 152.432 171.227 151.182C171.227 149.928 171.46 148.856 171.926 147.966C172.396 147.072 173.032 146.388 173.835 145.915C174.642 145.441 175.555 145.205 176.574 145.205C177.593 145.205 178.504 145.441 179.307 145.915C180.114 146.388 180.75 147.072 181.216 147.966C181.686 148.856 181.92 149.928 181.92 151.182ZM179.801 151.182C179.801 150.299 179.663 149.555 179.386 148.949C179.114 148.339 178.735 147.879 178.25 147.568C177.765 147.254 177.206 147.097 176.574 147.097C175.941 147.097 175.383 147.254 174.898 147.568C174.413 147.879 174.032 148.339 173.756 148.949C173.483 149.555 173.347 150.299 173.347 151.182C173.347 152.064 173.483 152.811 173.756 153.42C174.032 154.027 174.413 154.487 174.898 154.801C175.383 155.112 175.941 155.267 176.574 155.267C177.206 155.267 177.765 155.112 178.25 154.801C178.735 154.487 179.114 154.027 179.386 153.42C179.663 152.811 179.801 152.064 179.801 151.182ZM191.249 145.364L193.357 145.364L193.357 152.966C193.357 153.799 193.16 154.532 192.766 155.165C192.375 155.797 191.826 156.292 191.118 156.648C190.41 157 189.582 157.176 188.635 157.176C187.684 157.176 186.855 157 186.146 156.648C185.438 156.292 184.889 155.797 184.499 155.165C184.108 154.532 183.913 153.799 183.913 152.966L183.913 145.364L186.021 145.364L186.021 152.79C186.021 153.275 186.127 153.706 186.339 154.085C186.555 154.464 186.858 154.761 187.249 154.977C187.639 155.189 188.101 155.295 188.635 155.295C189.169 155.295 189.631 155.189 190.021 154.977C190.415 154.761 190.718 154.464 190.93 154.085C191.143 153.706 191.249 153.275 191.249 152.79L191.249 145.364ZM195.136 147.131L195.136 145.364L204.42 145.364L204.42 147.131L200.824 147.131L200.824 157L198.733 157L198.733 147.131L195.136 147.131ZM26.4347 181L26.4347 166.455L35.8949 166.455L35.8949 168.663L29.0696 168.663L29.0696 172.612L35.4048 172.612L35.4048 174.821L29.0696 174.821L29.0696 178.791L35.9517 178.791L35.9517 181L26.4347 181ZM40.5291 166.455L44.3146 177.903L44.4638 177.903L48.2422 166.455L51.1399 166.455L46.0121 181L42.7592 181L37.6385 166.455L40.5291 166.455ZM53.0558 181L53.0558 166.455L62.516 166.455L62.516 168.663L55.6907 168.663L55.6907 172.612L62.0259 172.612L62.0259 174.821L55.6907 174.821L55.6907 178.791L62.5728 178.791L62.5728 181L53.0558 181ZM65.2042 181L65.2042 166.455L70.6587 166.455C71.7762 166.455 72.7137 166.649 73.4712 167.037C74.2335 167.425 74.8088 167.97 75.1971 168.67C75.5901 169.366 75.7866 170.179 75.7866 171.107C75.7866 172.039 75.5877 172.849 75.19 173.536C74.797 174.217 74.217 174.745 73.4499 175.119C72.6829 175.489 71.7406 175.673 70.6232 175.673L66.7383 175.673L66.7383 173.486L70.2681 173.486C70.9215 173.486 71.4566 173.396 71.8732 173.216C72.2899 173.031 72.5977 172.764 72.7965 172.413C73.0001 172.058 73.1019 171.623 73.1019 171.107C73.1019 170.59 73.0001 170.15 72.7965 169.786C72.5929 169.416 72.2828 169.137 71.8661 168.947C71.4495 168.753 70.912 168.656 70.2539 168.656L67.8391 168.656L67.8391 181L65.2042 181ZM72.7184 174.409L76.3192 181L73.3789 181L69.842 174.409L72.7184 174.409ZM76.6513 166.455L79.6271 166.455L83.1854 172.889L83.3274 172.889L86.8857 166.455L89.8615 166.455L84.5703 175.574L84.5703 181L81.9425 181L81.9425 175.574L76.6513 166.455ZM96.6566 181L91.7276 181L91.7276 166.455L96.756 166.455C98.2002 166.455 99.4407 166.746 100.478 167.328C101.519 167.906 102.319 168.737 102.878 169.821C103.437 170.905 103.716 172.203 103.716 173.713C103.716 175.228 103.435 176.53 102.871 177.619C102.312 178.708 101.505 179.544 100.449 180.126C99.3981 180.709 98.1339 181 96.6566 181ZM94.3626 178.72L96.5288 178.72C97.542 178.72 98.3872 178.536 99.0643 178.166C99.7414 177.792 100.25 177.236 100.591 176.497C100.932 175.754 101.103 174.826 101.103 173.713C101.103 172.6 100.932 171.677 100.591 170.943C100.25 170.205 99.7461 169.653 99.0785 169.288C98.4156 168.919 97.5917 168.734 96.6069 168.734L94.3626 168.734L94.3626 178.72ZM107.306 181L104.494 181L109.615 166.455L112.868 166.455L117.995 181L115.183 181L111.298 169.438L111.184 169.438L107.306 181ZM107.399 175.297L115.069 175.297L115.069 177.413L107.399 177.413L107.399 175.297ZM117.433 166.455L120.408 166.455L123.967 172.889L124.109 172.889L127.667 166.455L130.643 166.455L125.352 175.574L125.352 181L122.724 181L122.724 175.574L117.433 166.455Z" fill="black"/>
        <path d="M29.6697 197.727C29.6366 197.416 29.4969 197.175 29.2507 197.002C29.0069 196.829 28.6896 196.743 28.299 196.743C28.0244 196.743 27.7888 196.784 27.5923 196.867C27.3958 196.95 27.2455 197.062 27.1413 197.205C27.0372 197.347 26.9839 197.509 26.9815 197.691C26.9815 197.843 27.0159 197.974 27.0845 198.085C27.1555 198.196 27.2514 198.291 27.3722 198.369C27.4929 198.445 27.6267 198.509 27.7734 198.561C27.9202 198.613 28.0682 198.657 28.2173 198.692L28.8991 198.863C29.1738 198.927 29.4377 199.013 29.6911 199.122C29.9467 199.231 30.1752 199.368 30.3764 199.534C30.58 199.7 30.741 199.9 30.8594 200.134C30.9777 200.369 31.0369 200.643 31.0369 200.958C31.0369 201.384 30.928 201.759 30.7102 202.084C30.4924 202.406 30.1776 202.658 29.7656 202.84C29.3561 203.02 28.8601 203.11 28.2777 203.11C27.7119 203.11 27.2206 203.022 26.804 202.847C26.3897 202.672 26.0653 202.416 25.831 202.08C25.599 201.744 25.4735 201.335 25.4545 200.852L26.7507 200.852C26.7696 201.105 26.8478 201.316 26.9851 201.484C27.1224 201.652 27.3011 201.777 27.5213 201.86C27.7438 201.943 27.9924 201.984 28.267 201.984C28.5535 201.984 28.8045 201.942 29.0199 201.857C29.2377 201.769 29.4081 201.648 29.5312 201.494C29.6544 201.338 29.7171 201.156 29.7195 200.947C29.7171 200.758 29.6615 200.602 29.5526 200.479C29.4437 200.353 29.291 200.249 29.0945 200.166C28.9003 200.081 28.6731 200.005 28.4126 199.939L27.5852 199.726C26.9863 199.572 26.5128 199.339 26.1648 199.026C25.8191 198.711 25.6463 198.294 25.6463 197.773C25.6463 197.344 25.7623 196.969 25.9943 196.647C26.2287 196.325 26.5471 196.075 26.9496 195.898C27.352 195.718 27.8078 195.628 28.3168 195.628C28.8329 195.628 29.285 195.718 29.6733 195.898C30.0639 196.075 30.3705 196.323 30.593 196.64C30.8156 196.955 30.9304 197.317 30.9375 197.727L29.6697 197.727ZM38.71 199.364C38.71 200.147 38.5633 200.818 38.2697 201.377C37.9785 201.933 37.5808 202.36 37.0765 202.656C36.5746 202.951 36.0053 203.099 35.3684 203.099C34.7316 203.099 34.161 202.951 33.6568 202.656C33.1549 202.357 32.7572 201.93 32.4636 201.374C32.1724 200.815 32.0268 200.145 32.0268 199.364C32.0268 198.58 32.1724 197.91 32.4636 197.354C32.7572 196.795 33.1549 196.368 33.6568 196.072C34.161 195.776 34.7316 195.628 35.3684 195.628C36.0053 195.628 36.5746 195.776 37.0765 196.072C37.5808 196.368 37.9785 196.795 38.2697 197.354C38.5633 197.91 38.71 198.58 38.71 199.364ZM37.3855 199.364C37.3855 198.812 37.2991 198.347 37.1262 197.968C36.9558 197.587 36.719 197.299 36.416 197.105C36.113 196.909 35.7638 196.81 35.3684 196.81C34.9731 196.81 34.6239 196.909 34.3208 197.105C34.0178 197.299 33.7799 197.587 33.6071 197.968C33.4366 198.347 33.3514 198.812 33.3514 199.364C33.3514 199.915 33.4366 200.382 33.6071 200.763C33.7799 201.142 34.0178 201.429 34.3208 201.626C34.6239 201.82 34.9731 201.917 35.3684 201.917C35.7638 201.917 36.113 201.82 36.416 201.626C36.719 201.429 36.9558 201.142 37.1262 200.763C37.2991 200.382 37.3855 199.915 37.3855 199.364ZM44.5401 195.727L45.8576 195.727L45.8576 200.479C45.8576 201 45.7345 201.458 45.4883 201.853C45.2444 202.248 44.9012 202.557 44.4585 202.78C44.0157 203 43.4985 203.11 42.9066 203.11C42.3124 203.11 41.7939 203 41.3512 202.78C40.9085 202.557 40.5652 202.248 40.3214 201.853C40.0775 201.458 39.9556 201 39.9556 200.479L39.9556 195.727L41.2731 195.727L41.2731 200.369C41.2731 200.672 41.3394 200.942 41.4719 201.178C41.6069 201.415 41.7963 201.601 42.0401 201.736C42.284 201.868 42.5728 201.935 42.9066 201.935C43.2404 201.935 43.5292 201.868 43.7731 201.736C44.0193 201.601 44.2087 201.415 44.3413 201.178C44.4738 200.942 44.5401 200.672 44.5401 200.369L44.5401 195.727ZM47.2896 203L47.2896 195.727L50.0169 195.727C50.5756 195.727 51.0443 195.824 51.4231 196.018C51.8043 196.213 52.0919 196.485 52.286 196.835C52.4825 197.183 52.5808 197.589 52.5808 198.053C52.5808 198.52 52.4814 198.924 52.2825 199.268C52.086 199.609 51.796 199.873 51.4125 200.06C51.0289 200.244 50.5578 200.337 49.9991 200.337L48.0566 200.337L48.0566 199.243L49.8216 199.243C50.1483 199.243 50.4158 199.198 50.6241 199.108C50.8324 199.016 50.9863 198.882 51.0858 198.707C51.1876 198.529 51.2385 198.311 51.2385 198.053C51.2385 197.795 51.1876 197.575 51.0858 197.393C50.984 197.208 50.8289 197.068 50.6206 196.974C50.4122 196.877 50.1435 196.828 49.8145 196.828L48.6071 196.828L48.6071 203L47.2896 203ZM51.0467 199.705L52.8471 203L51.377 203L49.6085 199.705L51.0467 199.705ZM60.0186 198.181L58.6905 198.181C58.6526 197.963 58.5828 197.77 58.481 197.602C58.3792 197.432 58.2525 197.287 58.101 197.169C57.9495 197.051 57.7767 196.962 57.5826 196.903C57.3908 196.841 57.1837 196.81 56.9611 196.81C56.5658 196.81 56.2154 196.91 55.91 197.109C55.6046 197.305 55.3655 197.594 55.1926 197.975C55.0198 198.354 54.9334 198.817 54.9334 199.364C54.9334 199.92 55.0198 200.389 55.1926 200.77C55.3678 201.149 55.6069 201.435 55.91 201.629C56.2154 201.821 56.5646 201.917 56.9576 201.917C57.1754 201.917 57.379 201.888 57.5684 201.832C57.7601 201.772 57.9318 201.686 58.0833 201.572C58.2372 201.459 58.3662 201.319 58.4703 201.153C58.5769 200.988 58.6503 200.798 58.6905 200.585L60.0186 200.592C59.9689 200.938 59.8612 201.262 59.6955 201.565C59.5321 201.868 59.3179 202.136 59.0527 202.368C58.7876 202.598 58.4775 202.777 58.1223 202.908C57.7672 203.036 57.373 203.099 56.9398 203.099C56.3006 203.099 55.7301 202.951 55.2282 202.656C54.7263 202.36 54.3309 201.932 54.0421 201.374C53.7533 200.815 53.6088 200.145 53.6088 199.364C53.6088 198.58 53.7544 197.91 54.0456 197.354C54.3368 196.795 54.7334 196.368 55.2353 196.072C55.7372 195.776 56.3053 195.628 56.9398 195.628C57.3446 195.628 57.7211 195.685 58.0691 195.798C58.4171 195.912 58.7272 196.079 58.9995 196.299C59.2717 196.517 59.4954 196.784 59.6706 197.102C59.8482 197.416 59.9642 197.776 60.0186 198.181ZM61.2251 203L61.2251 195.727L65.9553 195.727L65.9553 196.832L62.5426 196.832L62.5426 198.806L65.7102 198.806L65.7102 199.911L62.5426 199.911L62.5426 201.896L65.9837 201.896L65.9837 203L61.2251 203ZM68.0344 202.126C67.819 202.126 67.6344 202.051 67.4805 201.899C67.3266 201.745 67.2508 201.561 67.2532 201.345C67.2508 201.132 67.3266 200.95 67.4805 200.798C67.6344 200.647 67.819 200.571 68.0344 200.571C68.2428 200.571 68.4239 200.647 68.5778 200.798C68.734 200.95 68.8133 201.132 68.8157 201.345C68.8133 201.49 68.7754 201.621 68.7021 201.739C68.631 201.858 68.5363 201.952 68.418 202.023C68.302 202.092 68.1741 202.126 68.0344 202.126ZM68.0344 198.522C67.819 198.522 67.6344 198.446 67.4805 198.295C67.3266 198.141 67.2508 197.956 67.2532 197.741C67.2508 197.528 67.3266 197.345 67.4805 197.194C67.6344 197.04 67.819 196.963 68.0344 196.963C68.2428 196.963 68.4239 197.04 68.5778 197.194C68.734 197.345 68.8133 197.528 68.8157 197.741C68.8133 197.883 68.7754 198.013 68.7021 198.131C68.631 198.25 68.5363 198.344 68.418 198.415C68.302 198.487 68.1741 198.522 68.0344 198.522ZM72.6802 203L72.6802 195.727L77.3393 195.727L77.3393 196.832L73.9977 196.832L73.9977 198.806L77.0197 198.806L77.0197 199.911L73.9977 199.911L73.9977 203L72.6802 203ZM85.0382 199.364C85.0382 200.147 84.8914 200.818 84.5978 201.377C84.3066 201.933 83.9089 202.36 83.4047 202.656C82.9028 202.951 82.3334 203.099 81.6966 203.099C81.0597 203.099 80.4892 202.951 79.9849 202.656C79.483 202.357 79.0853 201.93 78.7917 201.374C78.5005 200.815 78.3549 200.145 78.3549 199.364C78.3549 198.58 78.5005 197.91 78.7917 197.354C79.0853 196.795 79.483 196.368 79.9849 196.072C80.4892 195.776 81.0597 195.628 81.6966 195.628C82.3334 195.628 82.9028 195.776 83.4047 196.072C83.9089 196.368 84.3066 196.795 84.5978 197.354C84.8914 197.91 85.0382 198.58 85.0382 199.364ZM83.7136 199.364C83.7136 198.812 83.6272 198.347 83.4544 197.968C83.2839 197.587 83.0472 197.299 82.7441 197.105C82.4411 196.909 82.0919 196.81 81.6966 196.81C81.3012 196.81 80.952 196.909 80.649 197.105C80.3459 197.299 80.108 197.587 79.9352 197.968C79.7647 198.347 79.6795 198.812 79.6795 199.364C79.6795 199.915 79.7647 200.382 79.9352 200.763C80.108 201.142 80.3459 201.429 80.649 201.626C80.952 201.82 81.3012 201.917 81.6966 201.917C82.0919 201.917 82.4411 201.82 82.7441 201.626C83.0472 201.429 83.2839 201.142 83.4544 200.763C83.6272 200.382 83.7136 199.915 83.7136 199.364ZM92.7823 199.364C92.7823 200.147 92.6355 200.818 92.342 201.377C92.0508 201.933 91.6531 202.36 91.1488 202.656C90.6469 202.951 90.0775 203.099 89.4407 203.099C88.8039 203.099 88.2333 202.951 87.729 202.656C87.2272 202.357 86.8294 201.93 86.5359 201.374C86.2447 200.815 86.0991 200.145 86.0991 199.364C86.0991 198.58 86.2447 197.91 86.5359 197.354C86.8294 196.795 87.2272 196.368 87.729 196.072C88.2333 195.776 88.8039 195.628 89.4407 195.628C90.0775 195.628 90.6469 195.776 91.1488 196.072C91.6531 196.368 92.0508 196.795 92.342 197.354C92.6355 197.91 92.7823 198.58 92.7823 199.364ZM91.4577 199.364C91.4577 198.812 91.3713 198.347 91.1985 197.968C91.0281 197.587 90.7913 197.299 90.4883 197.105C90.1853 196.909 89.8361 196.81 89.4407 196.81C89.0453 196.81 88.6961 196.909 88.3931 197.105C88.0901 197.299 87.8522 197.587 87.6793 197.968C87.5089 198.347 87.4237 198.812 87.4237 199.364C87.4237 199.915 87.5089 200.382 87.6793 200.763C87.8522 201.142 88.0901 201.429 88.3931 201.626C88.6961 201.82 89.0453 201.917 89.4407 201.917C89.8361 201.917 90.1853 201.82 90.4883 201.626C90.7913 201.429 91.0281 201.142 91.1985 200.763C91.3713 200.382 91.4577 199.915 91.4577 199.364ZM96.4924 203L94.0279 203L94.0279 195.727L96.5421 195.727C97.2641 195.727 97.8844 195.873 98.4029 196.164C98.9237 196.453 99.3238 196.868 99.6032 197.411C99.8825 197.953 100.022 198.601 100.022 199.357C100.022 200.114 99.8813 200.765 99.5996 201.31C99.3203 201.854 98.9166 202.272 98.3887 202.563C97.8631 202.854 97.231 203 96.4924 203ZM95.3453 201.86L96.4284 201.86C96.9351 201.86 97.3577 201.768 97.6962 201.583C98.0347 201.396 98.2892 201.118 98.4597 200.749C98.6301 200.377 98.7154 199.913 98.7154 199.357C98.7154 198.8 98.6301 198.339 98.4597 197.972C98.2892 197.602 98.0371 197.326 97.7033 197.144C97.3719 196.96 96.9599 196.867 96.4675 196.867L95.3453 196.867L95.3453 201.86ZM105.285 203L103.232 195.727L104.649 195.727L105.96 201.072L106.027 201.072L107.426 195.727L108.715 195.727L110.118 201.075L110.182 201.075L111.492 195.727L112.909 195.727L110.857 203L109.557 203L108.101 197.897L108.044 197.897L106.585 203L105.285 203ZM114.073 203L112.667 203L115.227 195.727L116.854 195.727L119.418 203L118.011 203L116.069 197.219L116.012 197.219L114.073 203ZM114.119 200.148L117.955 200.148L117.955 201.207L114.119 201.207L114.119 200.148ZM124.211 197.727C124.178 197.416 124.038 197.175 123.792 197.002C123.548 196.829 123.231 196.743 122.84 196.743C122.565 196.743 122.33 196.784 122.133 196.867C121.937 196.95 121.787 197.063 121.682 197.205C121.578 197.347 121.525 197.509 121.523 197.691C121.523 197.843 121.557 197.974 121.626 198.085C121.697 198.196 121.792 198.291 121.913 198.369C122.034 198.445 122.168 198.509 122.314 198.561C122.461 198.613 122.609 198.657 122.758 198.692L123.44 198.863C123.715 198.927 123.979 199.013 124.232 199.122C124.488 199.231 124.716 199.368 124.917 199.534C125.121 199.7 125.282 199.9 125.4 200.134C125.519 200.369 125.578 200.643 125.578 200.958C125.578 201.384 125.469 201.759 125.251 202.084C125.033 202.406 124.719 202.658 124.307 202.84C123.897 203.02 123.401 203.11 122.819 203.11C122.253 203.11 121.762 203.022 121.345 202.847C120.931 202.672 120.606 202.416 120.372 202.08C120.14 201.744 120.015 201.335 119.996 200.852L121.292 200.852C121.311 201.105 121.389 201.316 121.526 201.484C121.663 201.652 121.842 201.777 122.062 201.86C122.285 201.943 122.533 201.984 122.808 201.984C123.095 201.984 123.345 201.942 123.561 201.857C123.779 201.769 123.949 201.648 124.072 201.494C124.195 201.338 124.258 201.156 124.26 200.947C124.258 200.758 124.202 200.602 124.094 200.479C123.985 200.353 123.832 200.249 123.635 200.166C123.441 200.081 123.214 200.005 122.954 199.939L122.126 199.726C121.527 199.572 121.054 199.339 120.706 199.026C120.36 198.711 120.187 198.294 120.187 197.773C120.187 197.344 120.303 196.969 120.535 196.647C120.77 196.325 121.088 196.075 121.491 195.898C121.893 195.718 122.349 195.628 122.858 195.628C123.374 195.628 123.826 195.718 124.214 195.898C124.605 196.075 124.912 196.323 125.134 196.64C125.357 196.955 125.471 197.317 125.479 197.727L124.211 197.727ZM126.433 196.832L126.433 195.727L132.235 195.727L132.235 196.832L129.988 196.832L129.988 203L128.681 203L128.681 196.832L126.433 196.832ZM133.354 203L133.354 195.727L138.084 195.727L138.084 196.832L134.672 196.832L134.672 198.806L137.839 198.806L137.839 199.911L134.672 199.911L134.672 201.896L138.113 201.896L138.113 203L133.354 203ZM143.226 195.727L143.226 203L141.909 203L141.909 195.727L143.226 195.727ZM150.629 195.727L150.629 203L149.458 203L146.031 198.046L145.97 198.046L145.97 203L144.653 203L144.653 195.727L145.832 195.727L149.255 200.685L149.319 200.685L149.319 195.727L150.629 195.727ZM158.498 197.727C158.465 197.416 158.325 197.175 158.079 197.002C157.835 196.829 157.518 196.743 157.127 196.743C156.853 196.743 156.617 196.784 156.42 196.867C156.224 196.95 156.074 197.063 155.969 197.205C155.865 197.347 155.812 197.509 155.81 197.691C155.81 197.843 155.844 197.974 155.913 198.085C155.984 198.196 156.08 198.291 156.2 198.369C156.321 198.445 156.455 198.509 156.602 198.561C156.748 198.613 156.896 198.657 157.045 198.692L157.727 198.863C158.002 198.927 158.266 199.013 158.519 199.122C158.775 199.231 159.003 199.368 159.205 199.534C159.408 199.7 159.569 199.9 159.687 200.134C159.806 200.369 159.865 200.643 159.865 200.958C159.865 201.384 159.756 201.759 159.538 202.084C159.321 202.406 159.006 202.658 158.594 202.84C158.184 203.02 157.688 203.11 157.106 203.11C156.54 203.11 156.049 203.022 155.632 202.847C155.218 202.672 154.893 202.416 154.659 202.08C154.427 201.744 154.302 201.335 154.283 200.852L155.579 200.852C155.598 201.105 155.676 201.316 155.813 201.484C155.951 201.652 156.129 201.777 156.349 201.86C156.572 201.943 156.821 201.984 157.095 201.984C157.382 201.984 157.633 201.942 157.848 201.857C158.066 201.769 158.236 201.648 158.359 201.494C158.482 201.338 158.545 201.156 158.548 200.947C158.545 200.758 158.49 200.602 158.381 200.479C158.272 200.353 158.119 200.249 157.923 200.166C157.728 200.081 157.501 200.005 157.241 199.939L156.413 199.726C155.814 199.572 155.341 199.339 154.993 199.026C154.647 198.711 154.474 198.294 154.474 197.773C154.474 197.344 154.59 196.969 154.822 196.647C155.057 196.325 155.375 196.075 155.778 195.898C156.18 195.718 156.636 195.628 157.145 195.628C157.661 195.628 158.113 195.718 158.501 195.898C158.892 196.075 159.199 196.323 159.421 196.64C159.644 196.955 159.759 197.317 159.766 197.727L158.498 197.727ZM161.04 203L161.04 195.727L163.767 195.727C164.326 195.727 164.794 195.831 165.173 196.04C165.554 196.248 165.842 196.535 166.036 196.899C166.233 197.261 166.331 197.673 166.331 198.135C166.331 198.601 166.233 199.016 166.036 199.378C165.84 199.74 165.55 200.025 165.166 200.234C164.782 200.44 164.31 200.543 163.749 200.543L161.942 200.543L161.942 199.46L163.572 199.46C163.898 199.46 164.166 199.403 164.374 199.289C164.582 199.175 164.736 199.019 164.836 198.82C164.938 198.621 164.988 198.393 164.988 198.135C164.988 197.877 164.938 197.65 164.836 197.453C164.736 197.257 164.581 197.104 164.371 196.995C164.162 196.884 163.894 196.828 163.564 196.828L162.357 196.828L162.357 203L161.04 203ZM173.974 199.364C173.974 200.147 173.827 200.818 173.533 201.377C173.242 201.933 172.844 202.36 172.34 202.656C171.838 202.951 171.269 203.099 170.632 203.099C169.995 203.099 169.425 202.951 168.92 202.656C168.419 202.357 168.021 201.93 167.727 201.374C167.436 200.815 167.29 200.145 167.29 199.364C167.29 198.58 167.436 197.91 167.727 197.354C168.021 196.795 168.419 196.368 168.92 196.072C169.425 195.776 169.995 195.628 170.632 195.628C171.269 195.628 171.838 195.776 172.34 196.072C172.844 196.368 173.242 196.795 173.533 197.354C173.827 197.91 173.974 198.58 173.974 199.364ZM172.649 199.364C172.649 198.812 172.563 198.347 172.39 197.968C172.219 197.587 171.983 197.299 171.68 197.105C171.377 196.909 171.027 196.81 170.632 196.81C170.237 196.81 169.888 196.909 169.585 197.105C169.281 197.299 169.044 197.587 168.871 197.968C168.7 198.347 168.615 198.812 168.615 199.364C168.615 199.915 168.7 200.382 168.871 200.763C169.044 201.142 169.281 201.429 169.585 201.626C169.888 201.82 170.237 201.917 170.632 201.917C171.027 201.917 171.377 201.82 171.68 201.626C171.983 201.429 172.219 201.142 172.39 200.763C172.563 200.382 172.649 199.915 172.649 199.364ZM174.577 196.832L174.577 195.727L180.38 195.727L180.38 196.832L178.132 196.832L178.132 203L176.825 203L176.825 196.832L174.577 196.832ZM181.499 203L181.499 195.727L182.816 195.727L182.816 201.896L186.019 201.896L186.019 203L181.499 203ZM188.48 195.727L188.48 203L187.163 203L187.163 195.727L188.48 195.727ZM194.779 198.05C194.72 197.858 194.638 197.686 194.534 197.535C194.432 197.381 194.309 197.25 194.165 197.141C194.023 197.032 193.859 196.95 193.675 196.896C193.49 196.839 193.289 196.81 193.071 196.81C192.68 196.81 192.332 196.909 192.027 197.105C191.721 197.302 191.481 197.59 191.306 197.972C191.133 198.35 191.047 198.812 191.047 199.357C191.047 199.906 191.133 200.371 191.306 200.752C191.479 201.133 191.719 201.423 192.027 201.622C192.335 201.819 192.692 201.917 193.099 201.917C193.469 201.917 193.788 201.846 194.058 201.704C194.33 201.562 194.54 201.361 194.687 201.1C194.833 200.837 194.907 200.53 194.907 200.177L195.205 200.223L193.231 200.223L193.231 199.193L196.182 199.193L196.182 200.067C196.182 200.689 196.049 201.228 195.784 201.683C195.519 202.137 195.154 202.487 194.69 202.734C194.226 202.978 193.693 203.099 193.092 203.099C192.422 203.099 191.834 202.949 191.327 202.648C190.823 202.345 190.429 201.916 190.145 201.359C189.863 200.801 189.722 200.138 189.722 199.371C189.722 198.784 189.805 198.259 189.971 197.798C190.139 197.336 190.373 196.944 190.674 196.622C190.974 196.298 191.327 196.052 191.732 195.884C192.137 195.713 192.577 195.628 193.053 195.628C193.456 195.628 193.831 195.687 194.179 195.805C194.527 195.921 194.836 196.087 195.106 196.303C195.378 196.518 195.602 196.774 195.777 197.07C195.952 197.366 196.067 197.692 196.121 198.05L194.779 198.05ZM197.456 203L197.456 195.727L198.773 195.727L198.773 198.806L202.143 198.806L202.143 195.727L203.464 195.727L203.464 203L202.143 203L202.143 199.911L198.773 199.911L198.773 203L197.456 203ZM204.577 196.832L204.577 195.727L210.38 195.727L210.38 196.832L208.132 196.832L208.132 203L206.825 203L206.825 196.832L204.577 196.832ZM213.979 203L213.979 195.727L216.763 195.727C217.289 195.727 217.725 195.81 218.074 195.976C218.424 196.139 218.685 196.363 218.858 196.647C219.033 196.931 219.121 197.253 219.121 197.613C219.121 197.909 219.064 198.162 218.951 198.373C218.837 198.581 218.684 198.75 218.493 198.881C218.301 199.011 218.087 199.104 217.85 199.161L217.85 199.232C218.108 199.246 218.355 199.326 218.592 199.47C218.831 199.612 219.026 199.813 219.178 200.074C219.329 200.334 219.405 200.649 219.405 201.018C219.405 201.395 219.314 201.733 219.132 202.034C218.949 202.332 218.675 202.568 218.308 202.741C217.941 202.914 217.479 203 216.923 203L213.979 203ZM215.297 201.899L216.713 201.899C217.192 201.899 217.536 201.808 217.747 201.626C217.96 201.441 218.066 201.204 218.066 200.915C218.066 200.7 218.013 200.506 217.907 200.333C217.8 200.158 217.649 200.021 217.452 199.921C217.256 199.819 217.021 199.768 216.749 199.768L215.297 199.768L215.297 201.899ZM215.297 198.82L216.6 198.82C216.827 198.82 217.032 198.779 217.214 198.696C217.396 198.611 217.54 198.491 217.644 198.337C217.75 198.181 217.804 197.996 217.804 197.783C217.804 197.502 217.704 197.27 217.505 197.087C217.309 196.905 217.016 196.814 216.628 196.814L215.297 196.814L215.297 198.82ZM220.054 195.727L221.542 195.727L223.321 198.945L223.392 198.945L225.171 195.727L226.659 195.727L224.014 200.287L224.014 203L222.7 203L222.7 200.287L220.054 195.727ZM229.753 196.832L229.753 195.727L235.556 195.727L235.556 196.832L233.308 196.832L233.308 203L232.001 203L232.001 196.832L229.753 196.832ZM236.674 203L236.674 195.727L237.992 195.727L237.992 198.806L241.362 198.806L241.362 195.727L242.683 195.727L242.683 203L241.362 203L241.362 199.911L237.992 199.911L237.992 203L236.674 203ZM244.116 203L244.116 195.727L248.846 195.727L248.846 196.832L245.433 196.832L245.433 198.806L248.601 198.806L248.601 199.911L245.433 199.911L245.433 201.896L248.874 201.896L248.874 203L244.116 203ZM257.543 198.05C257.483 197.858 257.402 197.686 257.298 197.535C257.196 197.381 257.073 197.25 256.928 197.141C256.786 197.032 256.623 196.95 256.438 196.896C256.254 196.839 256.052 196.81 255.835 196.81C255.444 196.81 255.096 196.909 254.79 197.105C254.485 197.302 254.245 197.59 254.07 197.972C253.897 198.35 253.81 198.812 253.81 199.357C253.81 199.906 253.897 200.371 254.07 200.752C254.242 201.133 254.483 201.423 254.79 201.622C255.098 201.819 255.456 201.917 255.863 201.917C256.232 201.917 256.552 201.846 256.822 201.704C257.094 201.562 257.304 201.361 257.45 201.1C257.597 200.837 257.67 200.53 257.67 200.177L257.969 200.223L255.994 200.223L255.994 199.193L258.945 199.193L258.945 200.067C258.945 200.689 258.813 201.228 258.548 201.683C258.282 202.137 257.918 202.487 257.454 202.734C256.99 202.978 256.457 203.099 255.856 203.099C255.186 203.099 254.598 202.949 254.091 202.648C253.587 202.345 253.192 201.916 252.908 201.359C252.627 200.801 252.486 200.138 252.486 199.371C252.486 198.784 252.569 198.259 252.734 197.798C252.902 197.336 253.137 196.944 253.437 196.622C253.738 196.298 254.091 196.052 254.496 195.884C254.901 195.713 255.341 195.628 255.817 195.628C256.219 195.628 256.594 195.687 256.942 195.805C257.29 195.921 257.599 196.087 257.869 196.303C258.142 196.518 258.365 196.774 258.54 197.07C258.716 197.366 258.83 197.692 258.885 198.05L257.543 198.05ZM260.219 203L260.219 195.727L261.537 195.727L261.537 201.896L264.74 201.896L264.74 203L260.219 203ZM272.099 199.364C272.099 200.147 271.952 200.818 271.658 201.377C271.367 201.933 270.969 202.36 270.465 202.656C269.963 202.951 269.394 203.099 268.757 203.099C268.12 203.099 267.55 202.951 267.045 202.656C266.544 202.357 266.146 201.93 265.852 201.374C265.561 200.815 265.415 200.145 265.415 199.364C265.415 198.58 265.561 197.91 265.852 197.354C266.146 196.795 266.544 196.368 267.045 196.072C267.55 195.776 268.12 195.628 268.757 195.628C269.394 195.628 269.963 195.776 270.465 196.072C270.969 196.368 271.367 196.795 271.658 197.354C271.952 197.91 272.099 198.58 272.099 199.364ZM270.774 199.364C270.774 198.812 270.688 198.347 270.515 197.968C270.344 197.587 270.108 197.299 269.805 197.105C269.502 196.909 269.152 196.81 268.757 196.81C268.362 196.81 268.013 196.909 267.71 197.105C267.406 197.299 267.169 197.587 266.996 197.968C266.825 198.347 266.74 198.812 266.74 199.364C266.74 199.915 266.825 200.382 266.996 200.763C267.169 201.142 267.406 201.429 267.71 201.626C268.013 201.82 268.362 201.917 268.757 201.917C269.152 201.917 269.502 201.82 269.805 201.626C270.108 201.429 270.344 201.142 270.515 200.763C270.688 200.382 270.774 199.915 270.774 199.364ZM273.344 203L273.344 195.727L276.128 195.727C276.654 195.727 277.091 195.81 277.439 195.976C277.789 196.139 278.051 196.363 278.224 196.647C278.399 196.931 278.486 197.253 278.486 197.613C278.486 197.909 278.43 198.162 278.316 198.373C278.202 198.581 278.05 198.75 277.858 198.881C277.666 199.011 277.452 199.104 277.215 199.161L277.215 199.232C277.473 199.246 277.72 199.326 277.957 199.47C278.196 199.612 278.392 199.813 278.543 200.074C278.695 200.334 278.77 200.649 278.77 201.018C278.77 201.395 278.679 201.733 278.497 202.034C278.315 202.332 278.04 202.568 277.673 202.741C277.306 202.914 276.845 203 276.288 203L273.344 203ZM274.662 201.899L276.079 201.899C276.557 201.899 276.901 201.808 277.112 201.626C277.325 201.441 277.432 201.204 277.432 200.915C277.432 200.7 277.378 200.506 277.272 200.333C277.165 200.158 277.014 200.021 276.817 199.921C276.621 199.819 276.386 199.768 276.114 199.768L274.662 199.768L274.662 201.899ZM274.662 198.82L275.965 198.82C276.192 198.82 276.397 198.779 276.579 198.696C276.762 198.611 276.905 198.491 277.009 198.337C277.116 198.181 277.169 197.996 277.169 197.783C277.169 197.502 277.069 197.27 276.871 197.087C276.674 196.905 276.382 196.814 275.993 196.814L274.662 196.814L274.662 198.82ZM280.85 203L279.444 203L282.005 195.727L283.631 195.727L286.195 203L284.789 203L282.846 197.219L282.789 197.219L280.85 203ZM280.897 200.148L284.732 200.148L284.732 201.207L280.897 201.207L280.897 200.148ZM287.153 203L287.153 195.727L288.47 195.727L288.47 201.896L291.673 201.896L291.673 203L287.153 203ZM301.274 195.727L301.274 203L300.102 203L296.675 198.046L296.615 198.046L296.615 203L295.297 203L295.297 195.727L296.476 195.727L299.9 200.685L299.964 200.685L299.964 195.727L301.274 195.727ZM302.71 203L302.71 195.727L307.44 195.727L307.44 196.832L304.027 196.832L304.027 198.806L307.195 198.806L307.195 199.911L304.027 199.911L304.027 201.896L307.468 201.896L307.468 203L302.71 203ZM310.314 203L308.262 195.727L309.679 195.727L310.989 201.072L311.056 201.072L312.456 195.727L313.745 195.727L315.147 201.075L315.211 201.075L316.522 195.727L317.939 195.727L315.886 203L314.586 203L313.13 197.897L313.074 197.897L311.614 203L310.314 203ZM322.756 197.727C322.723 197.416 322.583 197.175 322.337 197.002C322.093 196.829 321.776 196.743 321.385 196.743C321.11 196.743 320.875 196.784 320.678 196.867C320.482 196.95 320.331 197.063 320.227 197.205C320.123 197.347 320.07 197.509 320.067 197.691C320.067 197.843 320.102 197.974 320.17 198.085C320.241 198.196 320.337 198.291 320.458 198.369C320.579 198.445 320.713 198.509 320.859 198.561C321.006 198.613 321.154 198.657 321.303 198.692L321.985 198.863C322.26 198.927 322.524 199.013 322.777 199.122C323.033 199.231 323.261 199.368 323.462 199.534C323.666 199.7 323.827 199.9 323.945 200.134C324.064 200.369 324.123 200.643 324.123 200.958C324.123 201.384 324.014 201.759 323.796 202.084C323.578 202.406 323.263 202.658 322.852 202.84C322.442 203.02 321.946 203.11 321.364 203.11C320.798 203.11 320.307 203.022 319.89 202.847C319.476 202.672 319.151 202.416 318.917 202.08C318.685 201.744 318.559 201.335 318.54 200.852L319.837 200.852C319.856 201.105 319.934 201.316 320.071 201.484C320.208 201.652 320.387 201.777 320.607 201.86C320.83 201.943 321.078 201.984 321.353 201.984C321.639 201.984 321.89 201.942 322.106 201.857C322.324 201.769 322.494 201.648 322.617 201.494C322.74 201.338 322.803 201.156 322.805 200.947C322.803 200.758 322.747 200.602 322.638 200.479C322.53 200.353 322.377 200.249 322.18 200.166C321.986 200.081 321.759 200.005 321.499 199.939L320.671 199.726C320.072 199.572 319.599 199.339 319.251 199.026C318.905 198.711 318.732 198.294 318.732 197.773C318.732 197.344 318.848 196.969 319.08 196.647C319.315 196.325 319.633 196.075 320.036 195.898C320.438 195.718 320.894 195.628 321.403 195.628C321.919 195.628 322.371 195.718 322.759 195.898C323.15 196.075 323.456 196.323 323.679 196.64C323.902 196.955 324.016 197.317 324.023 197.727L322.756 197.727Z" fill="black"/>
    </g>
    <defs>
        <filter id="filter0_d_68_7735" x="0" y="0" width="385" height="239" filterUnits="userSpaceOnUse" color-interpolation-filters="sRGB">
            <feFlood flood-opacity="0" result="BackgroundImageFix"/>
            <feColorMatrix in="SourceAlpha" type="matrix" values="0 0 0 0 0 0 0 0 0 0 0 0 0 0 0 0 0 0 127 0" result="hardAlpha"/>
            <feOffset dy="4"/>
            <feGaussianBlur stdDeviation="2"/>
            <feComposite in2="hardAlpha" operator="out"/>
            <feColorMatrix type="matrix" values="0 0 0 0 0 0 0 0 0 0 0 0 0 0 0 0 0 0 0.25 0"/>
            <feBlend mode="normal" in2="BackgroundImageFix" result="effect1_dropShadow_68_7735"/>
            <feBlend mode="normal" in="SourceGraphic" in2="effect1_dropShadow_68_7735" result="shape"/>
        </filter>
    </defs>
</svg>
