<svg width="337" height="87" viewBox="0 0 337 87" fill="none" xmlns="http://www.w3.org/2000/svg">
    <rect x="1" y="1" width="335" height="85" rx="20" fill="#FFD5C2"/>
    <rect x="1" y="1" width="335" height="85" rx="20" stroke="black" stroke-width="2"/>
    <path d="M24.5881 34.0909L24.5881 23.1818L25.2869 23.1818L25.2869 34.0909L24.5881 34.0909ZM26.6037 26.6719C26.5639 26.2997 26.3963 26.0099 26.1009 25.8026C25.8082 25.5952 25.4276 25.4915 24.9588 25.4915C24.6293 25.4915 24.3466 25.5412 24.1108 25.6406C23.875 25.7401 23.6946 25.875 23.5696 26.0455C23.4446 26.2159 23.3807 26.4105 23.3778 26.6293C23.3778 26.8111 23.419 26.9687 23.5014 27.1023C23.5866 27.2358 23.7017 27.3494 23.8466 27.4432C23.9915 27.5341 24.152 27.6108 24.3281 27.6733C24.5043 27.7358 24.6818 27.7884 24.8608 27.831L25.679 28.0355C26.0085 28.1122 26.3253 28.2159 26.6293 28.3466C26.9361 28.4773 27.2102 28.642 27.4517 28.8409C27.696 29.0398 27.8892 29.2798 28.0312 29.5611C28.1733 29.8423 28.2443 30.1719 28.2443 30.5497C28.2443 31.0611 28.1136 31.5114 27.8523 31.9006C27.5909 32.2869 27.2131 32.5895 26.7187 32.8082C26.2273 33.0241 25.6321 33.1321 24.9332 33.1321C24.2543 33.1321 23.6648 33.027 23.1648 32.8168C22.6676 32.6065 22.2784 32.2997 21.9972 31.8963C21.7187 31.4929 21.5682 31.0014 21.5455 30.4219L23.1009 30.4219C23.1236 30.7259 23.2173 30.9787 23.3821 31.1804C23.5469 31.3821 23.7614 31.5327 24.0256 31.6321C24.2926 31.7315 24.5909 31.7813 24.9205 31.7813C25.2642 31.7813 25.5653 31.7301 25.8239 31.6278C26.0852 31.5227 26.2898 31.3778 26.4375 31.1932C26.5852 31.0057 26.6605 30.7869 26.6634 30.5369C26.6605 30.3097 26.5938 30.1222 26.4631 29.9744C26.3324 29.8239 26.1491 29.6989 25.9134 29.5994C25.6804 29.4972 25.4077 29.4062 25.0952 29.3267L24.1023 29.071C23.3835 28.8864 22.8153 28.6065 22.3977 28.2315C21.983 27.8537 21.7756 27.3523 21.7756 26.7273C21.7756 26.2131 21.9148 25.7628 22.1932 25.3764C22.4744 24.9901 22.8565 24.6903 23.3395 24.4773C23.8224 24.2614 24.3693 24.1534 24.9801 24.1534C25.5994 24.1534 26.142 24.2614 26.608 24.4773C27.0767 24.6903 27.4446 24.9872 27.7116 25.3679C27.9787 25.7457 28.1165 26.1804 28.125 26.6719L26.6037 26.6719ZM32.381 34.0909L32.381 23.1818L33.0799 23.1818L33.0799 34.0909L32.381 34.0909ZM34.3967 26.6719C34.3569 26.2997 34.1893 26.0099 33.8938 25.8026C33.6012 25.5952 33.2205 25.4915 32.7518 25.4915C32.4222 25.4915 32.1396 25.5412 31.9038 25.6406C31.668 25.7401 31.4876 25.875 31.3626 26.0455C31.2376 26.2159 31.1737 26.4105 31.1708 26.6293C31.1708 26.8111 31.212 26.9687 31.2944 27.1023C31.3796 27.2358 31.4947 27.3494 31.6396 27.4432C31.7844 27.5341 31.945 27.6108 32.1211 27.6733C32.2972 27.7358 32.4748 27.7884 32.6538 27.831L33.4719 28.0355C33.8015 28.1122 34.1183 28.2159 34.4222 28.3466C34.729 28.4773 35.0032 28.642 35.2447 28.8409C35.489 29.0398 35.6822 29.2798 35.8242 29.5611C35.9663 29.8423 36.0373 30.1719 36.0373 30.5497C36.0373 31.0611 35.9066 31.5114 35.6452 31.9006C35.3839 32.2869 35.006 32.5895 34.5117 32.8082C34.0202 33.0241 33.4251 33.1321 32.7262 33.1321C32.0472 33.1321 31.4577 33.027 30.9577 32.8168C30.4606 32.6065 30.0714 32.2997 29.7901 31.8963C29.5117 31.4929 29.3612 31.0014 29.3384 30.4219L30.8938 30.4219C30.9165 30.7259 31.0103 30.9787 31.1751 31.1804C31.3398 31.3821 31.5543 31.5327 31.8185 31.6321C32.0856 31.7315 32.3839 31.7813 32.7134 31.7813C33.0572 31.7813 33.3583 31.7301 33.6168 31.6278C33.8782 31.5227 34.0827 31.3778 34.2305 31.1932C34.3782 31.0057 34.4535 30.7869 34.4563 30.5369C34.4535 30.3097 34.3867 30.1222 34.256 29.9744C34.1254 29.8239 33.9421 29.6989 33.7063 29.5994C33.4734 29.4972 33.2006 29.4062 32.8881 29.3267L31.8952 29.071C31.1765 28.8864 30.6083 28.6065 30.1907 28.2315C29.7759 27.8537 29.5685 27.3523 29.5685 26.7273C29.5685 26.2131 29.7077 25.7628 29.9862 25.3764C30.2674 24.9901 30.6495 24.6903 31.1325 24.4773C31.6154 24.2614 32.1623 24.1534 32.7731 24.1534C33.3924 24.1534 33.935 24.2614 34.4009 24.4773C34.8697 24.6903 35.2376 24.9872 35.5046 25.3679C35.7717 25.7457 35.9094 26.1804 35.918 26.6719L34.3967 26.6719ZM40.174 34.0909L40.174 23.1818L40.8729 23.1818L40.8729 34.0909L40.174 34.0909ZM42.1896 26.6719C42.1499 26.2997 41.9822 26.0099 41.6868 25.8026C41.3942 25.5952 41.0135 25.4915 40.5447 25.4915C40.2152 25.4915 39.9325 25.5412 39.6967 25.6406C39.4609 25.7401 39.2805 25.875 39.1555 26.0455C39.0305 26.2159 38.9666 26.4105 38.9638 26.6293C38.9638 26.8111 39.005 26.9688 39.0874 27.1023C39.1726 27.2358 39.2876 27.3494 39.4325 27.4432C39.5774 27.5341 39.7379 27.6108 39.9141 27.6733C40.0902 27.7358 40.2678 27.7884 40.4467 27.831L41.2649 28.0355C41.5945 28.1122 41.9112 28.2159 42.2152 28.3466C42.522 28.4773 42.7962 28.642 43.0376 28.8409C43.282 29.0398 43.4751 29.2798 43.6172 29.5611C43.7592 29.8423 43.8303 30.1719 43.8303 30.5497C43.8303 31.0611 43.6996 31.5114 43.4382 31.9006C43.1768 32.2869 42.799 32.5895 42.3047 32.8082C41.8132 33.0241 41.218 33.1321 40.5192 33.1321C39.8402 33.1321 39.2507 33.027 38.7507 32.8168C38.2536 32.6065 37.8643 32.2997 37.5831 31.8963C37.3047 31.4929 37.1541 31.0014 37.1314 30.4219L38.6868 30.4219C38.7095 30.7259 38.8033 30.9787 38.968 31.1804C39.1328 31.3821 39.3473 31.5327 39.6115 31.6321C39.8786 31.7315 40.1768 31.7813 40.5064 31.7813C40.8501 31.7813 41.1513 31.7301 41.4098 31.6278C41.6712 31.5227 41.8757 31.3778 42.0234 31.1932C42.1712 31.0057 42.2464 30.7869 42.2493 30.5369C42.2464 30.3097 42.1797 30.1222 42.049 29.9744C41.9183 29.8239 41.7351 29.6989 41.4993 29.5994C41.2663 29.4972 40.9936 29.4063 40.6811 29.3267L39.6882 29.071C38.9695 28.8864 38.4013 28.6065 37.9837 28.2315C37.5689 27.8537 37.3615 27.3523 37.3615 26.7273C37.3615 26.2131 37.5007 25.7628 37.7791 25.3764C38.0604 24.9901 38.4425 24.6903 38.9254 24.4773C39.4084 24.2614 39.9553 24.1534 40.5661 24.1534C41.1854 24.1534 41.728 24.2614 42.1939 24.4773C42.6626 24.6903 43.0305 24.9872 43.2976 25.3679C43.5646 25.7457 43.7024 26.1804 43.7109 26.6719L42.1896 26.6719ZM47.6197 24.2727L49.4052 24.2727L51.5401 28.1335L51.6254 28.1335L53.7603 24.2727L55.5458 24.2727L52.3711 29.7443L52.3711 33L50.7944 33L50.7944 29.7443L47.6197 24.2727ZM63.9716 28.6364C63.9716 29.5767 63.7955 30.3821 63.4432 31.0526C63.0938 31.7202 62.6165 32.2315 62.0114 32.5866C61.4091 32.9418 60.7259 33.1193 59.9616 33.1193C59.1974 33.1193 58.5128 32.9418 57.9077 32.5866C57.3054 32.2287 56.8281 31.7159 56.4759 31.0483C56.1264 30.3778 55.9517 29.5739 55.9517 28.6364C55.9517 27.696 56.1264 26.892 56.4759 26.2244C56.8281 25.554 57.3054 25.0412 57.9077 24.6861C58.5128 24.331 59.1974 24.1534 59.9616 24.1534C60.7259 24.1534 61.4091 24.331 62.0114 24.6861C62.6165 25.0412 63.0938 25.554 63.4432 26.2244C63.7955 26.892 63.9716 27.696 63.9716 28.6364ZM62.3821 28.6364C62.3821 27.9744 62.2784 27.4162 62.071 26.9616C61.8665 26.5043 61.5824 26.1591 61.2187 25.9261C60.8551 25.6903 60.4361 25.5724 59.9616 25.5724C59.4872 25.5724 59.0682 25.6903 58.7045 25.9261C58.3409 26.1591 58.0554 26.5043 57.848 26.9616C57.6435 27.4162 57.5412 27.9744 57.5412 28.6364C57.5412 29.2983 57.6435 29.858 57.848 30.3153C58.0554 30.7699 58.3409 31.1151 58.7045 31.3509C59.0682 31.5838 59.4872 31.7003 59.9616 31.7003C60.4361 31.7003 60.8551 31.5838 61.2187 31.3509C61.5824 31.1151 61.8665 30.7699 62.071 30.3153C62.2784 29.858 62.3821 29.2983 62.3821 28.6364ZM70.9677 24.2727L72.5487 24.2727L72.5487 29.9744C72.5487 30.5994 72.4009 31.1491 72.1055 31.6236C71.8129 32.098 71.4009 32.4688 70.8697 32.7358C70.3384 33 69.7177 33.1321 69.0075 33.1321C68.2944 33.1321 67.6722 33 67.141 32.7358C66.6097 32.4688 66.1978 32.098 65.9052 31.6236C65.6126 31.1491 65.4663 30.5994 65.4663 29.9744L65.4663 24.2727L67.0472 24.2727L67.0472 29.8423C67.0472 30.206 67.1268 30.5298 67.2859 30.8139C67.4478 31.098 67.6751 31.321 67.9677 31.483C68.2603 31.642 68.6069 31.7216 69.0075 31.7216C69.408 31.7216 69.7546 31.642 70.0472 31.483C70.3427 31.321 70.57 31.098 70.729 30.8139C70.8881 30.5298 70.9677 30.206 70.9677 29.8423L70.9677 24.2727ZM81.9865 26.6719C81.9467 26.2997 81.7791 26.0099 81.4837 25.8026C81.1911 25.5952 80.8104 25.4915 80.3416 25.4915C80.0121 25.4915 79.7294 25.5412 79.4936 25.6406C79.2578 25.7401 79.0774 25.875 78.9524 26.0455C78.8274 26.2159 78.7635 26.4105 78.7607 26.6293C78.7607 26.8111 78.8018 26.9688 78.8842 27.1023C78.9695 27.2358 79.0845 27.3494 79.2294 27.4432C79.3743 27.5341 79.5348 27.6108 79.7109 27.6733C79.8871 27.7358 80.0646 27.7884 80.2436 27.831L81.0618 28.0355C81.3913 28.1122 81.7081 28.2159 82.0121 28.3466C82.3189 28.4773 82.593 28.642 82.8345 28.8409C83.0788 29.0398 83.272 29.2798 83.4141 29.5611C83.5561 29.8423 83.6271 30.1719 83.6271 30.5497C83.6271 31.0611 83.4964 31.5114 83.2351 31.9006C82.9737 32.2869 82.5959 32.5895 82.1016 32.8082C81.6101 33.0241 81.0149 33.1321 80.3161 33.1321C79.6371 33.1321 79.0476 33.027 78.5476 32.8168C78.0504 32.6065 77.6612 32.2997 77.38 31.8963C77.1016 31.4929 76.951 31.0014 76.9283 30.4219L78.4837 30.4219C78.5064 30.7259 78.6001 30.9787 78.7649 31.1804C78.9297 31.3821 79.1442 31.5327 79.4084 31.6321C79.6754 31.7315 79.9737 31.7813 80.3033 31.7813C80.647 31.7813 80.9482 31.7301 81.2067 31.6278C81.468 31.5227 81.6726 31.3778 81.8203 31.1932C81.968 31.0057 82.0433 30.7869 82.0462 30.5369C82.0433 30.3097 81.9766 30.1222 81.8459 29.9744C81.7152 29.8239 81.532 29.6989 81.2962 29.5994C81.0632 29.4972 80.7905 29.4063 80.478 29.3267L79.4851 29.071C78.7663 28.8864 78.1982 28.6065 77.7805 28.2315C77.3658 27.8537 77.1584 27.3523 77.1584 26.7273C77.1584 26.2131 77.2976 25.7628 77.576 25.3764C77.8572 24.9901 78.2393 24.6903 78.7223 24.4773C79.2053 24.2614 79.7521 24.1534 80.3629 24.1534C80.9822 24.1534 81.5249 24.2614 81.9908 24.4773C82.4595 24.6903 82.8274 24.9872 83.0945 25.3679C83.3615 25.7457 83.4993 26.1804 83.5078 26.6719L81.9865 26.6719ZM86.0167 33L84.3292 33L87.4016 24.2727L89.3533 24.2727L92.43 33L90.7425 33L88.4116 26.0625L88.3434 26.0625L86.0167 33ZM86.0721 29.5781L90.6744 29.5781L90.6744 30.848L86.0721 30.848L86.0721 29.5781ZM93.7511 24.2727L96.0224 31.142L96.1119 31.142L98.3789 24.2727L100.118 24.2727L97.0408 33L95.0891 33L92.0167 24.2727L93.7511 24.2727ZM101.267 33L101.267 24.2727L106.943 24.2727L106.943 25.598L102.848 25.598L102.848 27.9673L106.649 27.9673L106.649 29.2926L102.848 29.2926L102.848 31.6747L106.977 31.6747L106.977 33L101.267 33ZM111.513 33L108.556 33L108.556 24.2727L111.573 24.2727C112.44 24.2727 113.184 24.4474 113.806 24.7969C114.431 25.1435 114.911 25.642 115.246 26.2926C115.582 26.9432 115.749 27.7216 115.749 28.6278C115.749 29.5369 115.58 30.3182 115.242 30.9716C114.907 31.625 114.423 32.1264 113.789 32.4759C113.158 32.8253 112.4 33 111.513 33ZM110.137 31.6321L111.437 31.6321C112.045 31.6321 112.552 31.5213 112.958 31.2997C113.364 31.0753 113.67 30.7415 113.874 30.2983C114.079 29.8523 114.181 29.2955 114.181 28.6278C114.181 27.9602 114.079 27.4063 113.874 26.9659C113.67 26.5227 113.367 26.1918 112.967 25.973C112.569 25.7514 112.075 25.6406 111.484 25.6406L110.137 25.6406L110.137 31.6321Z" fill="black"/>
    <path d="M27.0653 62.8182L27.0653 44.6364L28.2301 44.6364L28.2301 62.8182L27.0653 62.8182ZM30.1548 50.6378C30.098 50.0649 29.8542 49.6198 29.4233 49.3026C28.9924 48.9853 28.4077 48.8267 27.669 48.8267C27.1671 48.8267 26.7434 48.8977 26.3977 49.0398C26.0521 49.1771 25.7869 49.3688 25.6023 49.6151C25.4223 49.8613 25.3324 50.1406 25.3324 50.4531C25.3229 50.7135 25.3774 50.9408 25.4957 51.1349C25.6188 51.3291 25.7869 51.4972 26 51.6392C26.2131 51.7765 26.4593 51.8973 26.7386 52.0014C27.018 52.1009 27.3163 52.1861 27.6335 52.2571L28.9403 52.5696C29.5748 52.7116 30.1572 52.901 30.6875 53.1378C31.2178 53.3745 31.6771 53.6657 32.0653 54.0114C32.4536 54.357 32.7543 54.7642 32.9673 55.233C33.1851 55.7017 33.2964 56.2391 33.3011 56.8452C33.2964 57.7353 33.0691 58.5071 32.6193 59.1605C32.1742 59.8092 31.5303 60.3134 30.6875 60.6733C29.8494 61.0284 28.8385 61.206 27.6548 61.206C26.4806 61.206 25.4579 61.026 24.5866 60.6662C23.7202 60.3063 23.0431 59.7737 22.5554 59.0682C22.0724 58.358 21.8191 57.4796 21.7955 56.4332L24.7713 56.4332C24.8045 56.9209 24.9441 57.3281 25.1903 57.6548C25.4413 57.9768 25.7751 58.2206 26.1918 58.3864C26.6132 58.5473 27.089 58.6278 27.6193 58.6278C28.1402 58.6278 28.5923 58.5521 28.9759 58.4006C29.3641 58.2491 29.6648 58.0384 29.8778 57.7685C30.0909 57.4986 30.1974 57.1884 30.1974 56.8381C30.1974 56.5114 30.1004 56.2367 29.9062 56.0142C29.7169 55.7917 29.4375 55.6023 29.0682 55.446C28.7036 55.2898 28.2562 55.1477 27.7259 55.0199L26.142 54.6222C24.9157 54.3239 23.9474 53.8575 23.2372 53.223C22.527 52.5885 22.1742 51.7339 22.179 50.6591C22.1742 49.7784 22.4086 49.009 22.8821 48.3509C23.3603 47.6927 24.0161 47.179 24.8494 46.8097C25.6828 46.4403 26.6297 46.2557 27.6903 46.2557C28.7699 46.2557 29.7121 46.4403 30.517 46.8097C31.3267 47.179 31.9564 47.6927 32.4062 48.3509C32.8561 49.009 33.0881 49.7713 33.1023 50.6378L30.1548 50.6378ZM41.6126 46.4545L41.6126 61L38.5373 61L38.5373 49.3736L38.4521 49.3736L35.1211 51.4616L35.1211 48.7344L38.7219 46.4545L41.6126 46.4545ZM50.7727 61.3196C49.5511 61.3149 48.5 61.0142 47.6193 60.4176C46.7434 59.821 46.0687 58.9569 45.5952 57.8253C45.1264 56.6937 44.8944 55.3324 44.8991 53.7415C44.8991 52.1553 45.1335 50.8035 45.6023 49.6861C46.0758 48.5687 46.7505 47.7187 47.6264 47.1364C48.5071 46.5492 49.5559 46.2557 50.7727 46.2557C51.9896 46.2557 53.036 46.5492 53.9119 47.1364C54.7926 47.7235 55.4697 48.5758 55.9432 49.6932C56.4167 50.8059 56.651 52.1553 56.6463 53.7415C56.6463 55.3371 56.4096 56.7008 55.9361 57.8324C55.4673 58.964 54.795 59.8281 53.919 60.4247C53.0431 61.0213 51.9943 61.3196 50.7727 61.3196ZM50.7727 58.7699C51.6061 58.7699 52.2713 58.3509 52.7685 57.5128C53.2656 56.6747 53.5118 55.4176 53.5071 53.7415C53.5071 52.6383 53.3935 51.7197 53.1662 50.9858C52.9437 50.2519 52.6264 49.7003 52.2145 49.331C51.8073 48.9616 51.3267 48.777 50.7727 48.777C49.9441 48.777 49.2813 49.1913 48.7841 50.0199C48.2869 50.8485 48.036 52.089 48.0312 53.7415C48.0312 54.8589 48.1425 55.7917 48.3651 56.5398C48.5923 57.2831 48.9119 57.8419 49.3239 58.2159C49.7358 58.5852 50.2187 58.7699 50.7727 58.7699Z" fill="black"/>
    <path d="M76.7071 44.2929C76.3166 43.9024 75.6834 43.9024 75.2929 44.2929L68.9289 50.6569C68.5384 51.0474 68.5384 51.6805 68.9289 52.0711C69.3195 52.4616 69.9526 52.4616 70.3431 52.0711L76 46.4142L81.6569 52.0711C82.0474 52.4616 82.6805 52.4616 83.0711 52.0711C83.4616 51.6805 83.4616 51.0474 83.0711 50.6569L76.7071 44.2929ZM77 63L77 45L75 45L75 63L77 63Z" fill="black"/>
    <path d="M292.545 49.2159C292.371 48.8444 292.012 48.5734 291.577 48.5251C291.209 48.4842 290.849 48.4073 290.506 48.2964C290.353 48.2459 290.208 48.191 290.075 48.132L290.297 47.5425C290.453 47.6106 290.615 47.6731 290.78 47.7294L290.787 47.7318L290.794 47.734C291.324 47.9048 291.846 47.9914 292.344 47.9914C292.845 47.9914 293.208 47.9261 293.486 47.7857L293.503 47.7773L293.519 47.7682C293.942 47.5319 294.184 47.1258 294.184 46.6538C294.184 46.13 293.894 45.6953 293.389 45.4604C293.134 45.3397 292.773 45.2247 292.253 45.0986C291.72 44.967 291.271 44.8275 290.924 44.6845C290.67 44.5724 290.449 44.3935 290.251 44.1378C290.08 43.9096 289.993 43.5663 289.993 43.1172C289.993 42.5754 290.149 42.1282 290.471 41.7499C290.758 41.4184 291.165 41.1934 291.712 41.0671C292.117 40.9734 292.433 40.6914 292.575 40.3271C292.736 40.6964 293.078 40.9709 293.503 41.037C293.858 41.0922 294.185 41.1801 294.478 41.2992L294.274 41.877C293.72 41.6602 293.175 41.5506 292.647 41.5506C290.897 41.5506 290.808 42.7284 290.808 42.9646C290.808 43.4763 291.091 43.9055 291.586 44.1421L291.6 44.1488L291.614 44.1549C291.863 44.2635 292.218 44.3682 292.729 44.4844C293.257 44.6009 293.698 44.7343 294.045 44.8823L294.052 44.8853L294.059 44.8883C294.316 44.9926 294.537 45.1669 294.733 45.421L294.737 45.4251L294.74 45.4291C294.912 45.6458 294.999 45.9808 294.999 46.4249C294.999 46.9376 294.847 47.3716 294.533 47.7516C294.262 48.0814 293.882 48.3095 293.373 48.4493C292.98 48.5573 292.675 48.8502 292.545 49.2159Z" fill="black"/>
    <path d="M292.988 50.7501H292.144C291.956 50.7501 291.803 50.5971 291.803 50.4084V49.7225C291.803 49.5421 291.662 49.3938 291.483 49.3739C291.056 49.3265 290.643 49.2382 290.243 49.109C289.855 48.9817 289.519 48.8305 289.235 48.6555C289.105 48.5751 289.057 48.4117 289.111 48.2681L289.69 46.7297C289.768 46.5226 290.019 46.4434 290.213 46.5504C290.474 46.6949 290.755 46.8184 291.056 46.9209C291.503 47.0651 291.933 47.1371 292.344 47.1371C292.698 47.1371 292.951 47.099 293.102 47.0227C293.254 46.9378 293.33 46.8149 293.33 46.6537C293.33 46.4671 293.229 46.3272 293.027 46.2339C292.832 46.1406 292.507 46.0388 292.052 45.9286C291.467 45.7844 290.98 45.6317 290.59 45.4706C290.2 45.301 289.861 45.0296 289.572 44.6564C289.283 44.2748 289.139 43.7617 289.139 43.1171C289.139 42.3708 289.366 41.7304 289.821 41.1961C290.231 40.7222 290.797 40.4017 291.519 40.2348C291.682 40.1972 291.803 40.0562 291.803 39.8893V39.1334C291.803 38.9447 291.956 38.7917 292.144 38.7917H292.988C293.177 38.7917 293.33 38.9447 293.33 39.1334V39.8461C293.33 40.0207 293.462 40.1661 293.634 40.1929C294.267 40.2912 294.823 40.4773 295.302 40.7511C295.438 40.8287 295.492 40.9942 295.439 41.1417L294.898 42.674C294.826 42.877 294.587 42.963 294.395 42.866C293.785 42.5585 293.202 42.4047 292.647 42.4047C291.99 42.4047 291.662 42.5913 291.662 42.9644C291.662 43.1425 291.759 43.2782 291.954 43.3715C292.149 43.4564 292.471 43.5496 292.918 43.6514C293.496 43.7786 293.983 43.927 294.38 44.0967C294.777 44.2578 295.12 44.525 295.409 44.8981C295.705 45.2713 295.853 45.7802 295.853 46.4247C295.853 47.1371 295.633 47.7605 295.192 48.2948C294.809 48.7606 294.278 49.0866 293.599 49.2729C293.444 49.3157 293.33 49.4537 293.33 49.6154V50.4084C293.33 50.5971 293.177 50.7501 292.988 50.7501Z" fill="black"/>
    <path fill-rule="evenodd" clip-rule="evenodd" d="M288.807 28.5417H296.204C298.099 28.5417 297.058 31.3844 296.291 33.1184L295.418 35.1069L295.301 35.3751C296.127 35.335 296.945 35.5639 297.631 36.0277C300.196 38.3746 302.277 41.2002 303.759 44.3455C304.336 45.5086 304.565 46.8137 304.418 48.1039C304.242 51.3922 301.604 54.0127 298.314 54.1667H286.697C283.407 54.0172 280.765 51.3995 280.585 48.1107C280.438 46.8206 280.667 45.5155 281.244 44.3524C282.727 41.2039 284.812 38.3758 287.381 36.0277C288.066 35.5639 288.884 35.335 289.711 35.3751L289.574 35.0659L288.72 33.1184C287.956 31.3844 286.911 28.5417 288.807 28.5417Z" stroke="black" stroke-width="1.5" stroke-linecap="round" stroke-linejoin="round"/>
    <path d="M295.301 36.125C295.715 36.125 296.051 35.7892 296.051 35.375C296.051 34.9608 295.715 34.625 295.301 34.625V36.125ZM289.711 34.625C289.297 34.625 288.961 34.9608 288.961 35.375C288.961 35.7892 289.297 36.125 289.711 36.125V34.625ZM299.706 34.3207C300.067 34.1178 300.196 33.6606 299.993 33.2995C299.79 32.9383 299.333 32.81 298.972 33.0128L299.706 34.3207ZM295.418 35.1069L295.56 35.8435L295.562 35.843L295.418 35.1069ZM289.574 35.0659L289.726 34.3313L289.719 34.33L289.574 35.0659ZM286.028 33.0065C285.663 32.81 285.209 32.9463 285.012 33.311C284.816 33.6756 284.952 34.1305 285.317 34.327L286.028 33.0065ZM295.301 34.625H289.711V36.125H295.301V34.625ZM298.972 33.0128C297.82 33.6598 296.572 34.1182 295.275 34.3707L295.562 35.843C297.016 35.56 298.415 35.046 299.706 34.3207L298.972 33.0128ZM295.277 34.3703C293.442 34.7221 291.556 34.7089 289.726 34.3313L289.423 35.8004C291.446 36.2178 293.531 36.2324 295.56 35.8435L295.277 34.3703ZM289.719 34.33C288.429 34.0761 287.185 33.63 286.028 33.0065L285.317 34.327C286.606 35.0217 287.992 35.5189 289.429 35.8018L289.719 34.33Z" fill="black"/>
</svg>
