<svg width="96" height="46" viewBox="0 0 96 46" fill="none" xmlns="http://www.w3.org/2000/svg">
    <path fill-rule="evenodd" clip-rule="evenodd" d="M41 11.4259C41.1032 12.8807 41.6083 14.2782 42.459 15.4629C42.7363 15.8143 43.069 16.1183 43.444 16.3629C43.8268 16.5814 44.2436 16.7338 44.677 16.8139C46.0658 16.9988 47.4781 16.7589 48.728 16.1259C48.6258 14.6698 48.121 13.2708 47.27 12.0849C46.9927 11.7334 46.66 11.4294 46.285 11.1849C45.9021 10.9674 45.4852 10.816 45.052 10.7369C43.6627 10.5521 42.2501 10.7923 41 11.4259Z" stroke="black" stroke-width="1.5" stroke-linecap="round" stroke-linejoin="round"/>
    <path d="M49.479 8.87579C49.479 8.46158 49.1432 8.12579 48.729 8.12579C48.3148 8.12579 47.979 8.46158 47.979 8.87579H49.479ZM47.979 12.9558C47.979 13.37 48.3148 13.7058 48.729 13.7058C49.1432 13.7058 49.479 13.37 49.479 12.9558H47.979ZM47.979 24.0138C47.979 24.428 48.3148 24.7638 48.729 24.7638C49.1432 24.7638 49.479 24.428 49.479 24.0138H47.979ZM49.479 12.9558C49.479 12.5416 49.1432 12.2058 48.729 12.2058C48.3148 12.2058 47.979 12.5416 47.979 12.9558H49.479ZM48.8226 13.9187C48.4116 13.867 48.0366 14.1582 47.9849 14.5692C47.9332 14.9802 48.2244 15.3552 48.6354 15.4069L48.8226 13.9187ZM52.56 14.0138L52.8935 14.6856C52.9015 14.6816 52.9094 14.6775 52.9172 14.6733L52.56 14.0138ZM53.608 13.2278L54.1411 13.7554C54.1501 13.7462 54.1589 13.7368 54.1675 13.7272L53.608 13.2278ZM54.349 12.1138L55.0259 12.4368C55.0294 12.4295 55.0327 12.4222 55.0359 12.4149L54.349 12.1138ZM54.964 8.05179L55.7093 7.96754C55.6703 7.62328 55.4007 7.35047 55.0569 7.30757L54.964 8.05179ZM51.133 8.70479L50.7988 8.03336C50.7911 8.03722 50.7834 8.04121 50.7758 8.04533L51.133 8.70479ZM50.085 9.49079L49.5519 8.96321C49.5431 8.97219 49.5344 8.98139 49.526 8.99081L50.085 9.49079ZM49.344 10.6018L48.6676 10.2778L48.6641 10.2853L49.344 10.6018ZM47.9821 12.8999C47.9512 13.313 48.261 13.6728 48.6741 13.7037C49.0872 13.7346 49.447 13.4248 49.4779 13.0117L47.9821 12.8999ZM47.979 8.87579V12.9558H49.479V8.87579H47.979ZM49.479 24.0138V12.9558H47.979V24.0138H49.479ZM48.6354 15.4069C50.0948 15.5905 51.5759 15.3396 52.8935 14.6856L52.2265 13.342C51.1733 13.8648 49.9893 14.0654 48.8226 13.9187L48.6354 15.4069ZM52.9172 14.6733C53.368 14.4291 53.7804 14.1198 54.1411 13.7554L53.0749 12.7002C52.8179 12.9599 52.524 13.1803 52.2028 13.3543L52.9172 14.6733ZM54.1675 13.7272C54.5133 13.3399 54.8023 12.9054 55.0259 12.4368L53.6721 11.7908C53.5097 12.1313 53.2997 12.4469 53.0485 12.7284L54.1675 13.7272ZM55.0359 12.4149C55.6483 11.0177 55.8806 9.48342 55.7093 7.96754L54.2188 8.13605C54.3604 9.38924 54.1684 10.6576 53.6621 11.8127L55.0359 12.4149ZM55.0569 7.30757C53.597 7.12538 52.1159 7.37785 50.7988 8.03336L51.4672 9.37623C52.5201 8.8522 53.7041 8.65038 54.8711 8.79602L55.0569 7.30757ZM50.7758 8.04533C50.325 8.28953 49.9126 8.59881 49.5519 8.96321L50.6181 10.0184C50.8751 9.75869 51.169 9.53828 51.4902 9.36426L50.7758 8.04533ZM49.526 8.99081C49.1805 9.3771 48.8915 9.8104 48.6676 10.2778L50.0204 10.9258C50.1831 10.5862 50.393 10.2714 50.644 9.99078L49.526 8.99081ZM48.6641 10.2853C48.2808 11.1085 48.0498 11.9943 47.9821 12.8999L49.4779 13.0117C49.5321 12.2867 49.7171 11.5774 50.0239 10.9183L48.6641 10.2853Z" fill="black"/>
    <path d="M30.8134 35.25V35.6406C30.8134 36.1777 30.7434 36.6595 30.6034 37.0859C30.4635 37.5124 30.2633 37.8753 30.0029 38.1748C29.7457 38.4743 29.4364 38.7038 29.0751 38.8633C28.7138 39.0195 28.3134 39.0977 27.8739 39.0977C27.4377 39.0977 27.039 39.0195 26.6777 38.8633C26.3196 38.7038 26.0087 38.4743 25.745 38.1748C25.4814 37.8753 25.2763 37.5124 25.1298 37.0859C24.9866 36.6595 24.915 36.1777 24.915 35.6406V35.25C24.915 34.7129 24.9866 34.2327 25.1298 33.8096C25.273 33.3831 25.4749 33.0202 25.7353 32.7207C25.9989 32.418 26.3098 32.1885 26.6679 32.0322C27.0292 31.8727 27.428 31.793 27.8642 31.793C28.3036 31.793 28.704 31.8727 29.0654 32.0322C29.4267 32.1885 29.7376 32.418 29.998 32.7207C30.2584 33.0202 30.4586 33.3831 30.5986 33.8096C30.7418 34.2327 30.8134 34.7129 30.8134 35.25ZM29.5878 35.6406V35.2402C29.5878 34.8431 29.5487 34.4932 29.4706 34.1904C29.3958 33.8844 29.2835 33.6289 29.1337 33.4238C28.9872 33.2155 28.8066 33.0592 28.5917 32.9551C28.3769 32.8477 28.1344 32.7939 27.8642 32.7939C27.594 32.7939 27.3531 32.8477 27.1415 32.9551C26.9299 33.0592 26.7493 33.2155 26.5995 33.4238C26.453 33.6289 26.3407 33.8844 26.2626 34.1904C26.1845 34.4932 26.1454 34.8431 26.1454 35.2402V35.6406C26.1454 36.0378 26.1845 36.3893 26.2626 36.6953C26.3407 37.0013 26.4547 37.2601 26.6044 37.4717C26.7574 37.68 26.9397 37.8379 27.1513 37.9453C27.3629 38.0495 27.6038 38.1016 27.8739 38.1016C28.1474 38.1016 28.3899 38.0495 28.6015 37.9453C28.8131 37.8379 28.9921 37.68 29.1386 37.4717C29.2851 37.2601 29.3958 37.0013 29.4706 36.6953C29.5487 36.3893 29.5878 36.0378 29.5878 35.6406ZM34.8605 37.7549V33.7168H36.0421V39H34.9289L34.8605 37.7549ZM35.0265 36.6562L35.422 36.6465C35.422 37.0013 35.383 37.3285 35.3048 37.6279C35.2267 37.9242 35.1063 38.1829 34.9435 38.4043C34.7808 38.6224 34.5724 38.7933 34.3185 38.917C34.0646 39.0374 33.7602 39.0977 33.4054 39.0977C33.1483 39.0977 32.9123 39.0602 32.6974 38.9854C32.4826 38.9105 32.297 38.7949 32.1408 38.6387C31.9878 38.4824 31.869 38.279 31.7843 38.0283C31.6997 37.7777 31.6574 37.4782 31.6574 37.1299V33.7168H32.8341V37.1396C32.8341 37.3317 32.8569 37.4928 32.9025 37.623C32.9481 37.75 33.0099 37.8525 33.088 37.9307C33.1662 38.0088 33.2573 38.0641 33.3615 38.0967C33.4657 38.1292 33.5763 38.1455 33.6935 38.1455C34.0288 38.1455 34.2925 38.0804 34.4845 37.9502C34.6798 37.8167 34.8182 37.6377 34.8996 37.4131C34.9842 37.1885 35.0265 36.9362 35.0265 36.6562ZM38.1898 34.7227V39H37.0131V33.7168H38.1361L38.1898 34.7227ZM39.8061 33.6826L39.7963 34.7764C39.7247 34.7633 39.6465 34.7536 39.5619 34.7471C39.4805 34.7406 39.3992 34.7373 39.3178 34.7373C39.116 34.7373 38.9385 34.7666 38.7855 34.8252C38.6326 34.8805 38.504 34.9619 38.3998 35.0693C38.2989 35.1735 38.2208 35.3005 38.1654 35.4502C38.1101 35.5999 38.0775 35.7676 38.0678 35.9531L37.7992 35.9727C37.7992 35.6406 37.8318 35.333 37.8969 35.0498C37.962 34.7666 38.0596 34.5176 38.1898 34.3027C38.3233 34.0879 38.4893 33.9202 38.6879 33.7998C38.8897 33.6794 39.1225 33.6191 39.3861 33.6191C39.4577 33.6191 39.5342 33.6257 39.6156 33.6387C39.7003 33.6517 39.7637 33.6663 39.8061 33.6826ZM43.8134 33.7168V39H42.6317V33.7168H43.8134ZM42.5536 32.3301C42.5536 32.151 42.6122 32.0029 42.7294 31.8857C42.8498 31.7653 43.0158 31.7051 43.2274 31.7051C43.4358 31.7051 43.6001 31.7653 43.7206 31.8857C43.841 32.0029 43.9013 32.151 43.9013 32.3301C43.9013 32.5059 43.841 32.6523 43.7206 32.7695C43.6001 32.8867 43.4358 32.9453 43.2274 32.9453C43.0158 32.9453 42.8498 32.8867 42.7294 32.7695C42.6122 32.6523 42.5536 32.5059 42.5536 32.3301ZM46.0392 34.791V39H44.8624V33.7168H45.9708L46.0392 34.791ZM45.8487 36.1631L45.4484 36.1582C45.4484 35.7936 45.4939 35.4567 45.5851 35.1475C45.6762 34.8382 45.8097 34.5697 45.9855 34.3418C46.1612 34.1107 46.3793 33.9333 46.6398 33.8096C46.9034 33.6826 47.2078 33.6191 47.5529 33.6191C47.7937 33.6191 48.0135 33.6549 48.212 33.7266C48.4139 33.7949 48.588 33.904 48.7345 34.0537C48.8842 34.2035 48.9982 34.3955 49.0763 34.6299C49.1577 34.8643 49.1984 35.1475 49.1984 35.4795V39H48.0216V35.582C48.0216 35.3249 47.9825 35.123 47.9044 34.9766C47.8295 34.8301 47.7205 34.7259 47.5773 34.6641C47.4373 34.599 47.2696 34.5664 47.0743 34.5664C46.853 34.5664 46.6642 34.6087 46.5079 34.6934C46.3549 34.778 46.2296 34.8936 46.132 35.04C46.0343 35.1865 45.9627 35.3558 45.9171 35.5479C45.8715 35.7399 45.8487 35.945 45.8487 36.1631ZM49.1251 35.8506L48.5734 35.9727C48.5734 35.6536 48.6173 35.3525 48.7052 35.0693C48.7963 34.7829 48.9282 34.5322 49.1007 34.3174C49.2765 34.0993 49.493 33.9284 49.7501 33.8047C50.0073 33.681 50.3019 33.6191 50.6339 33.6191C50.9041 33.6191 51.145 33.6566 51.3566 33.7314C51.5714 33.8031 51.7537 33.917 51.9034 34.0732C52.0532 34.2295 52.1671 34.4329 52.2452 34.6836C52.3234 34.931 52.3624 35.2305 52.3624 35.582V39H51.1808V35.5771C51.1808 35.3102 51.1417 35.1035 51.0636 34.957C50.9887 34.8105 50.8813 34.7096 50.7413 34.6543C50.6014 34.5957 50.4337 34.5664 50.2384 34.5664C50.0561 34.5664 49.895 34.6006 49.755 34.6689C49.6183 34.734 49.5027 34.8268 49.4083 34.9473C49.3139 35.0645 49.2423 35.1995 49.1935 35.3525C49.1479 35.5055 49.1251 35.6715 49.1251 35.8506ZM54.515 34.7324V41.0312H53.3382V33.7168H54.4222L54.515 34.7324ZM57.9574 36.3096V36.4121C57.9574 36.7962 57.9118 37.1527 57.8207 37.4814C57.7328 37.807 57.6009 38.0918 57.4252 38.3359C57.2526 38.5768 57.0394 38.764 56.7855 38.8975C56.5316 39.0309 56.2386 39.0977 55.9066 39.0977C55.5778 39.0977 55.2897 39.0374 55.0423 38.917C54.7982 38.7933 54.5915 38.6191 54.4222 38.3945C54.253 38.1699 54.1162 37.9062 54.0121 37.6035C53.9112 37.2975 53.8395 36.9622 53.7972 36.5977V36.2021C53.8395 35.8148 53.9112 35.4632 54.0121 35.1475C54.1162 34.8317 54.253 34.5599 54.4222 34.332C54.5915 34.1042 54.7982 33.9284 55.0423 33.8047C55.2865 33.681 55.5713 33.6191 55.8968 33.6191C56.2289 33.6191 56.5235 33.6842 56.7806 33.8145C57.0378 33.9414 57.2543 34.1237 57.43 34.3613C57.6058 34.5957 57.7377 34.8789 57.8255 35.2109C57.9134 35.5397 57.9574 35.9059 57.9574 36.3096ZM56.7806 36.4121V36.3096C56.7806 36.0654 56.7578 35.8392 56.7123 35.6309C56.6667 35.4193 56.5951 35.2337 56.4974 35.0742C56.3998 34.9147 56.2744 34.791 56.1214 34.7031C55.9717 34.612 55.791 34.5664 55.5795 34.5664C55.3711 34.5664 55.1921 34.6022 55.0423 34.6738C54.8926 34.7422 54.7673 34.8382 54.6664 34.9619C54.5655 35.0856 54.4873 35.2305 54.432 35.3965C54.3767 35.5592 54.3376 35.7367 54.3148 35.9287V36.876C54.3539 37.1104 54.4206 37.3252 54.515 37.5205C54.6094 37.7158 54.7429 37.8721 54.9154 37.9893C55.0912 38.1032 55.3158 38.1602 55.5892 38.1602C55.8008 38.1602 55.9815 38.1146 56.1312 38.0234C56.2809 37.9323 56.403 37.807 56.4974 37.6475C56.5951 37.4847 56.6667 37.2975 56.7123 37.0859C56.7578 36.8743 56.7806 36.6497 56.7806 36.4121ZM61.6969 37.9404V35.4209C61.6969 35.2321 61.6627 35.0693 61.5943 34.9326C61.526 34.7959 61.4218 34.6901 61.2818 34.6152C61.1451 34.5404 60.9726 34.5029 60.7643 34.5029C60.5722 34.5029 60.4062 34.5355 60.2662 34.6006C60.1262 34.6657 60.0172 34.7536 59.9391 34.8643C59.8609 34.9749 59.8219 35.1003 59.8219 35.2402H58.65C58.65 35.0319 58.7005 34.8301 58.8014 34.6348C58.9023 34.4395 59.0488 34.2653 59.2408 34.1123C59.4329 33.9593 59.6624 33.8389 59.9293 33.751C60.1962 33.6631 60.4957 33.6191 60.8277 33.6191C61.2249 33.6191 61.5764 33.6859 61.8824 33.8193C62.1917 33.9528 62.4342 34.1546 62.61 34.4248C62.789 34.6917 62.8785 35.027 62.8785 35.4307V37.7793C62.8785 38.0202 62.8948 38.2367 62.9273 38.4287C62.9632 38.6175 63.0136 38.7819 63.0787 38.9219V39H61.8727C61.8173 38.873 61.7734 38.7119 61.7408 38.5166C61.7115 38.318 61.6969 38.126 61.6969 37.9404ZM61.8678 35.7871L61.8775 36.5146H61.0328C60.8147 36.5146 60.6227 36.5358 60.4566 36.5781C60.2906 36.6172 60.1523 36.6758 60.0416 36.7539C59.9309 36.832 59.8479 36.9264 59.7926 37.0371C59.7372 37.1478 59.7096 37.2731 59.7096 37.4131C59.7096 37.5531 59.7421 37.6816 59.8072 37.7988C59.8723 37.9128 59.9667 38.0023 60.0904 38.0674C60.2174 38.1325 60.3704 38.165 60.5494 38.165C60.7903 38.165 61.0003 38.1162 61.1793 38.0186C61.3616 37.9176 61.5048 37.7956 61.609 37.6523C61.7132 37.5059 61.7685 37.3675 61.775 37.2373L62.1559 37.7598C62.1168 37.8932 62.0501 38.0365 61.9557 38.1895C61.8613 38.3424 61.7376 38.4889 61.5846 38.6289C61.4348 38.7656 61.2542 38.8779 61.0426 38.9658C60.8342 39.0537 60.5934 39.0977 60.3199 39.0977C59.9749 39.0977 59.6673 39.0293 59.3971 38.8926C59.1269 38.7526 58.9153 38.5654 58.7623 38.3311C58.6093 38.0934 58.5328 37.8249 58.5328 37.5254C58.5328 37.2454 58.5849 36.998 58.6891 36.7832C58.7965 36.5651 58.9527 36.3828 59.1578 36.2363C59.3661 36.0898 59.6201 35.9792 59.9195 35.9043C60.219 35.8262 60.5608 35.7871 60.9449 35.7871H61.8678ZM66.0272 38.1602C66.2192 38.1602 66.3918 38.1227 66.5448 38.0479C66.701 37.9697 66.8263 37.8623 66.9207 37.7256C67.0184 37.5889 67.0721 37.431 67.0819 37.252H68.1903C68.1838 37.5938 68.0829 37.9046 67.8875 38.1846C67.6922 38.4645 67.4334 38.6875 67.1112 38.8535C66.7889 39.0163 66.4325 39.0977 66.0418 39.0977C65.6382 39.0977 65.2866 39.0293 64.9872 38.8926C64.6877 38.7526 64.4386 38.5605 64.2401 38.3164C64.0415 38.0723 63.8918 37.7907 63.7909 37.4717C63.6932 37.1527 63.6444 36.8109 63.6444 36.4463V36.2754C63.6444 35.9108 63.6932 35.569 63.7909 35.25C63.8918 34.9277 64.0415 34.6445 64.2401 34.4004C64.4386 34.1562 64.6877 33.9658 64.9872 33.8291C65.2866 33.6891 65.6366 33.6191 66.037 33.6191C66.4601 33.6191 66.8312 33.7038 67.1502 33.873C67.4692 34.0391 67.7199 34.2718 67.9022 34.5713C68.0877 34.8675 68.1838 35.2126 68.1903 35.6064H67.0819C67.0721 35.4111 67.0233 35.2354 66.9354 35.0791C66.8508 34.9196 66.7303 34.7926 66.5741 34.6982C66.4211 34.6038 66.2372 34.5566 66.0223 34.5566C65.7847 34.5566 65.5877 34.6055 65.4315 34.7031C65.2752 34.7975 65.1532 34.9277 65.0653 35.0938C64.9774 35.2565 64.9139 35.4404 64.8748 35.6455C64.839 35.8473 64.8211 36.0573 64.8211 36.2754V36.4463C64.8211 36.6644 64.839 36.876 64.8748 37.0811C64.9107 37.2861 64.9725 37.4701 65.0604 37.6328C65.1515 37.7923 65.2752 37.9209 65.4315 38.0186C65.5877 38.113 65.7863 38.1602 66.0272 38.1602ZM71.2755 33.7168V34.5762H68.297V33.7168H71.2755ZM69.1563 32.4229H70.3331V37.54C70.3331 37.7028 70.3559 37.8281 70.4014 37.916C70.4503 38.0007 70.517 38.0576 70.6016 38.0869C70.6863 38.1162 70.7856 38.1309 70.8995 38.1309C70.9809 38.1309 71.059 38.126 71.1339 38.1162C71.2087 38.1064 71.269 38.0967 71.3145 38.0869L71.3194 38.9854C71.2218 39.0146 71.1078 39.0407 70.9776 39.0635C70.8507 39.0863 70.7042 39.0977 70.5382 39.0977C70.268 39.0977 70.0287 39.0505 69.8204 38.9561C69.6121 38.8584 69.4493 38.7005 69.3321 38.4824C69.2149 38.2643 69.1563 37.9746 69.1563 37.6133V32.4229Z" fill="#131313"/>
</svg>
