<svg width="337" height="87" viewBox="0 0 337 87" fill="none" xmlns="http://www.w3.org/2000/svg">
    <rect x="1" y="1" width="335" height="85" rx="20" fill="#FFD5C2"/>
    <rect x="1" y="1" width="335" height="85" rx="20" stroke="black" stroke-width="2"/>
    <path d="M21.8608 33L21.8608 24.2727L27.4517 24.2727L27.4517 25.598L23.4418 25.598L23.4418 27.9673L27.0682 27.9673L27.0682 29.2926L23.4418 29.2926L23.4418 33L21.8608 33ZM36.6903 28.6364C36.6903 29.5767 36.5142 30.3821 36.1619 31.0526C35.8125 31.7202 35.3352 32.2315 34.7301 32.5866C34.1278 32.9418 33.4446 33.1193 32.6804 33.1193C31.9162 33.1193 31.2315 32.9418 30.6264 32.5866C30.0241 32.2287 29.5469 31.7159 29.1946 31.0483C28.8452 30.3778 28.6705 29.5739 28.6705 28.6364C28.6705 27.696 28.8452 26.892 29.1946 26.2244C29.5469 25.554 30.0241 25.0412 30.6264 24.6861C31.2315 24.331 31.9162 24.1534 32.6804 24.1534C33.4446 24.1534 34.1278 24.331 34.7301 24.6861C35.3352 25.0412 35.8125 25.554 36.1619 26.2244C36.5142 26.892 36.6903 27.696 36.6903 28.6364ZM35.1009 28.6364C35.1009 27.9744 34.9972 27.4162 34.7898 26.9616C34.5852 26.5043 34.3011 26.1591 33.9375 25.9261C33.5739 25.6903 33.1548 25.5724 32.6804 25.5724C32.206 25.5724 31.7869 25.6903 31.4233 25.9261C31.0597 26.1591 30.7741 26.5043 30.5668 26.9616C30.3622 27.4162 30.2599 27.9744 30.2599 28.6364C30.2599 29.2983 30.3622 29.858 30.5668 30.3153C30.7741 30.7699 31.0597 31.1151 31.4233 31.3509C31.7869 31.5838 32.206 31.7003 32.6804 31.7003C33.1548 31.7003 33.5739 31.5838 33.9375 31.3509C34.3011 31.1151 34.5852 30.7699 34.7898 30.3153C34.9972 29.858 35.1009 29.2983 35.1009 28.6364ZM45.9833 28.6364C45.9833 29.5767 45.8072 30.3821 45.4549 31.0526C45.1055 31.7202 44.6282 32.2315 44.0231 32.5866C43.4208 32.9418 42.7376 33.1193 41.9734 33.1193C41.2092 33.1193 40.5245 32.9418 39.9194 32.5866C39.3171 32.2287 38.8398 31.7159 38.4876 31.0483C38.1381 30.3778 37.9634 29.5739 37.9634 28.6364C37.9634 27.696 38.1381 26.892 38.4876 26.2244C38.8398 25.554 39.3171 25.0412 39.9194 24.6861C40.5245 24.331 41.2092 24.1534 41.9734 24.1534C42.7376 24.1534 43.4208 24.331 44.0231 24.6861C44.6282 25.0412 45.1055 25.554 45.4549 26.2244C45.8072 26.892 45.9833 27.696 45.9833 28.6364ZM44.3938 28.6364C44.3938 27.9744 44.2901 27.4162 44.0827 26.9616C43.8782 26.5043 43.5941 26.1591 43.2305 25.9261C42.8668 25.6903 42.4478 25.5724 41.9734 25.5724C41.4989 25.5724 41.0799 25.6903 40.7163 25.9261C40.3526 26.1591 40.0671 26.5043 39.8597 26.9616C39.6552 27.4162 39.5529 27.9744 39.5529 28.6364C39.5529 29.2983 39.6552 29.858 39.8597 30.3153C40.0671 30.7699 40.3526 31.1151 40.7163 31.3509C41.0799 31.5838 41.4989 31.7003 41.9734 31.7003C42.4478 31.7003 42.8668 31.5838 43.2305 31.3509C43.5941 31.1151 43.8782 30.7699 44.0827 30.3153C44.2901 29.858 44.3938 29.2983 44.3938 28.6364ZM50.4354 33L47.478 33L47.478 24.2727L50.495 24.2727C51.3615 24.2727 52.1058 24.4474 52.728 24.7969C53.353 25.1435 53.8331 25.642 54.1683 26.2926C54.5036 26.9432 54.6712 27.7216 54.6712 28.6278C54.6712 29.5369 54.5021 30.3182 54.1641 30.9716C53.8288 31.625 53.3445 32.1264 52.7109 32.4759C52.0803 32.8253 51.3217 33 50.4354 33ZM49.0589 31.6321L50.3587 31.6321C50.9666 31.6321 51.4737 31.5213 51.88 31.2997C52.2862 31.0753 52.5916 30.7415 52.7962 30.2983C53.0007 29.8523 53.103 29.2955 53.103 28.6278C53.103 27.9602 53.0007 27.4062 52.7962 26.9659C52.5916 26.5227 52.2891 26.1918 51.8885 25.973C51.4908 25.7514 50.9964 25.6406 50.4055 25.6406L49.0589 25.6406L49.0589 31.6321ZM58.5533 24.2727L60.3388 24.2727L62.4737 28.1335L62.5589 28.1335L64.6939 24.2727L66.4794 24.2727L63.3047 29.7443L63.3047 33L61.728 33L61.728 29.7443L58.5533 24.2727ZM74.9052 28.6364C74.9052 29.5767 74.729 30.3821 74.3768 31.0526C74.0273 31.7202 73.5501 32.2315 72.945 32.5866C72.3427 32.9418 71.6594 33.1193 70.8952 33.1193C70.131 33.1193 69.4464 32.9418 68.8413 32.5866C68.239 32.2287 67.7617 31.7159 67.4094 31.0483C67.06 30.3778 66.8853 29.5739 66.8853 28.6364C66.8853 27.696 67.06 26.892 67.4094 26.2244C67.7617 25.554 68.239 25.0412 68.8413 24.6861C69.4464 24.331 70.131 24.1534 70.8952 24.1534C71.6594 24.1534 72.3427 24.331 72.945 24.6861C73.5501 25.0412 74.0273 25.554 74.3768 26.2244C74.729 26.892 74.9052 27.696 74.9052 28.6364ZM73.3157 28.6364C73.3157 27.9744 73.212 27.4162 73.0046 26.9616C72.8001 26.5043 72.516 26.1591 72.1523 25.9261C71.7887 25.6903 71.3697 25.5724 70.8952 25.5724C70.4208 25.5724 70.0018 25.6903 69.6381 25.9261C69.2745 26.1591 68.989 26.5043 68.7816 26.9616C68.5771 27.4162 68.4748 27.9744 68.4748 28.6364C68.4748 29.2983 68.5771 29.858 68.7816 30.3153C68.989 30.7699 69.2745 31.1151 69.6381 31.3509C70.0018 31.5838 70.4208 31.7003 70.8952 31.7003C71.3697 31.7003 71.7887 31.5838 72.1523 31.3509C72.516 31.1151 72.8001 30.7699 73.0046 30.3153C73.212 29.858 73.3157 29.2983 73.3157 28.6364ZM81.9013 24.2727L83.4822 24.2727L83.4822 29.9744C83.4822 30.5994 83.3345 31.1491 83.0391 31.6236C82.7464 32.098 82.3345 32.4688 81.8033 32.7358C81.272 33 80.6513 33.1321 79.9411 33.1321C79.228 33.1321 78.6058 33 78.0746 32.7358C77.5433 32.4688 77.1314 32.098 76.8388 31.6236C76.5462 31.1491 76.3999 30.5994 76.3999 29.9744L76.3999 24.2727L77.9808 24.2727L77.9808 29.8423C77.9808 30.206 78.0604 30.5298 78.2195 30.8139C78.3814 31.098 78.6087 31.321 78.9013 31.483C79.1939 31.642 79.5405 31.7216 79.9411 31.7216C80.3416 31.7216 80.6882 31.642 80.9808 31.483C81.2763 31.321 81.5036 31.098 81.6626 30.8139C81.8217 30.5298 81.9013 30.206 81.9013 29.8423L81.9013 24.2727ZM92.9201 26.6719C92.8803 26.2997 92.7127 26.0099 92.4173 25.8026C92.1246 25.5952 91.744 25.4915 91.2752 25.4915C90.9457 25.4915 90.663 25.5412 90.4272 25.6406C90.1914 25.7401 90.011 25.875 89.886 26.0455C89.761 26.2159 89.6971 26.4105 89.6942 26.6293C89.6942 26.8111 89.7354 26.9688 89.8178 27.1023C89.9031 27.2358 90.0181 27.3494 90.163 27.4432C90.3079 27.5341 90.4684 27.6108 90.6445 27.6733C90.8207 27.7358 90.9982 27.7884 91.1772 27.831L91.9954 28.0355C92.3249 28.1122 92.6417 28.2159 92.9457 28.3466C93.2525 28.4773 93.5266 28.642 93.7681 28.8409C94.0124 29.0398 94.2056 29.2798 94.3477 29.5611C94.4897 29.8423 94.5607 30.1719 94.5607 30.5497C94.5607 31.0611 94.43 31.5114 94.1687 31.9006C93.9073 32.2869 93.5295 32.5895 93.0352 32.8082C92.5437 33.0241 91.9485 33.1321 91.2496 33.1321C90.5707 33.1321 89.9812 33.027 89.4812 32.8168C88.984 32.6065 88.5948 32.2997 88.3136 31.8963C88.0352 31.4929 87.8846 31.0014 87.8619 30.4219L89.4173 30.4219C89.44 30.7259 89.5337 30.9787 89.6985 31.1804C89.8633 31.3821 90.0778 31.5327 90.342 31.6321C90.609 31.7315 90.9073 31.7813 91.2369 31.7813C91.5806 31.7813 91.8817 31.7301 92.1403 31.6278C92.4016 31.5227 92.6062 31.3778 92.7539 31.1932C92.9016 31.0057 92.9769 30.7869 92.9798 30.5369C92.9769 30.3097 92.9102 30.1222 92.7795 29.9744C92.6488 29.8239 92.4656 29.6989 92.2298 29.5994C91.9968 29.4972 91.7241 29.4063 91.4116 29.3267L90.4187 29.071C89.6999 28.8864 89.1317 28.6065 88.7141 28.2315C88.2994 27.8537 88.092 27.3523 88.092 26.7273C88.092 26.2131 88.2312 25.7628 88.5096 25.3764C88.7908 24.9901 89.1729 24.6903 89.6559 24.4773C90.1388 24.2614 90.6857 24.1534 91.2965 24.1534C91.9158 24.1534 92.4585 24.2614 92.9244 24.4773C93.3931 24.6903 93.761 24.9872 94.0281 25.3679C94.2951 25.7457 94.4329 26.1804 94.4414 26.6719L92.9201 26.6719ZM96.9503 33L95.2628 33L98.3352 24.2727L100.287 24.2727L103.364 33L101.676 33L99.3452 26.0625L99.277 26.0625L96.9503 33ZM97.0057 29.5781L101.608 29.5781L101.608 30.848L97.0057 30.848L97.0057 29.5781ZM104.685 24.2727L106.956 31.142L107.045 31.142L109.312 24.2727L111.051 24.2727L107.974 33L106.023 33L102.95 24.2727L104.685 24.2727ZM112.201 33L112.201 24.2727L117.877 24.2727L117.877 25.598L113.782 25.598L113.782 27.9673L117.583 27.9673L117.583 29.2926L113.782 29.2926L113.782 31.6747L117.911 31.6747L117.911 33L112.201 33ZM122.447 33L119.49 33L119.49 24.2727L122.507 24.2727C123.373 24.2727 124.118 24.4474 124.74 24.7969C125.365 25.1435 125.845 25.642 126.18 26.2926C126.515 26.9432 126.683 27.7216 126.683 28.6278C126.683 29.5369 126.514 30.3182 126.176 30.9716C125.841 31.625 125.356 32.1264 124.723 32.4759C124.092 32.8253 123.333 33 122.447 33ZM121.071 31.6321L122.37 31.6321C122.978 31.6321 123.485 31.5213 123.892 31.2997C124.298 31.0753 124.603 30.7415 124.808 30.2983C125.012 29.8523 125.115 29.2955 125.115 28.6278C125.115 27.9602 125.012 27.4063 124.808 26.9659C124.603 26.5227 124.301 26.1918 123.9 25.973C123.502 25.7514 123.008 25.6406 122.417 25.6406L121.071 25.6406L121.071 31.6321Z" fill="black"/>
    <path d="M28.5071 46.4545L28.5071 61L25.4318 61L25.4318 49.3736L25.3466 49.3736L22.0156 51.4616L22.0156 48.7344L25.6165 46.4545L28.5071 46.4545ZM37.6673 61.3196C36.4457 61.3149 35.3945 61.0142 34.5138 60.4176C33.6379 59.821 32.9632 58.9569 32.4897 57.8253C32.021 56.6937 31.7889 55.3324 31.7937 53.7415C31.7937 52.1553 32.0281 50.8035 32.4968 49.6861C32.9703 48.5687 33.645 47.7187 34.521 47.1364C35.4016 46.5492 36.4504 46.2557 37.6673 46.2557C38.8841 46.2557 39.9305 46.5492 40.8065 47.1364C41.6871 47.7235 42.3642 48.5758 42.8377 49.6932C43.3112 50.8059 43.5456 52.1553 43.5408 53.7415C43.5408 55.3371 43.3041 56.7008 42.8306 57.8324C42.3619 58.964 41.6895 59.8281 40.8136 60.4247C39.9376 61.0213 38.8888 61.3196 37.6673 61.3196ZM37.6673 58.7699C38.5006 58.7699 39.1658 58.3509 39.663 57.5128C40.1602 56.6747 40.4064 55.4176 40.4016 53.7415C40.4016 52.6383 40.288 51.7197 40.0607 50.9858C39.8382 50.2519 39.521 49.7003 39.109 49.331C38.7018 48.9616 38.2212 48.777 37.6673 48.777C36.8387 48.777 36.1758 49.1913 35.6786 50.0199C35.1815 50.8485 34.9305 52.089 34.9258 53.7415C34.9258 54.8589 35.0371 55.7917 35.2596 56.5398C35.4869 57.2831 35.8065 57.8419 36.2184 58.2159C36.6303 58.5852 37.1133 58.7699 37.6673 58.7699ZM45.8189 61L45.8189 46.4545L48.8942 46.4545L48.8942 52.8679L49.0859 52.8679L54.3203 46.4545L58.0064 46.4545L52.6087 52.9673L58.0703 61L54.3913 61L50.407 55.0199L48.8942 56.8665L48.8942 61L45.8189 61ZM68.4325 51.1563C68.3331 50.8106 68.1934 50.5052 68.0135 50.2401C67.8336 49.9702 67.6134 49.7429 67.353 49.5582C67.0973 49.3688 66.8037 49.2244 66.4723 49.125C66.1456 49.0256 65.7834 48.9759 65.3857 48.9759C64.6423 48.9759 63.9889 49.1605 63.4254 49.5298C62.8667 49.8991 62.4311 50.4366 62.1186 51.142C61.8061 51.8428 61.6499 52.6998 61.6499 53.7131C61.6499 54.7263 61.8037 55.5881 62.1115 56.2983C62.4193 57.0085 62.8549 57.5507 63.4183 57.9247C63.9818 58.294 64.647 58.4787 65.4141 58.4787C66.1101 58.4787 66.7043 58.3556 67.1967 58.1094C67.6939 57.8584 68.0727 57.5057 68.3331 57.0511C68.5982 56.5966 68.7308 56.0592 68.7308 55.4389L69.3558 55.5313L65.6058 55.5313L65.6058 53.2159L71.6925 53.2159L71.6925 55.0483C71.6925 56.3267 71.4226 57.4252 70.8828 58.3438C70.343 59.2576 69.5997 59.9631 68.6527 60.4602C67.7057 60.9527 66.6214 61.1989 65.3999 61.1989C64.0362 61.1989 62.8383 60.8982 61.8061 60.2969C60.7739 59.6908 59.969 58.8314 59.3913 57.7188C58.8184 56.6013 58.532 55.2756 58.532 53.7415C58.532 52.5625 58.7024 51.5114 59.0433 50.5881C59.389 49.66 59.8719 48.8741 60.4922 48.2301C61.1125 47.5862 61.8345 47.0961 62.6584 46.7599C63.4822 46.4238 64.3748 46.2557 65.3359 46.2557C66.1598 46.2557 66.9268 46.3764 67.6371 46.6179C68.3473 46.8546 68.977 47.1908 69.5263 47.6264C70.0803 48.062 70.5324 48.5805 70.8828 49.1818C71.2332 49.7784 71.4581 50.4366 71.5575 51.1563L68.4325 51.1563Z" fill="black"/>
    <path d="M86.7071 44.2929C86.3166 43.9024 85.6834 43.9024 85.2929 44.2929L78.9289 50.6569C78.5384 51.0474 78.5384 51.6805 78.9289 52.0711C79.3195 52.4616 79.9526 52.4616 80.3431 52.0711L86 46.4142L91.6569 52.0711C92.0474 52.4616 92.6805 52.4616 93.0711 52.0711C93.4616 51.6805 93.4616 51.0474 93.0711 50.6569L86.7071 44.2929ZM87 63L87 45L85 45L85 63L87 63Z" fill="black"/>
    <path fill-rule="evenodd" clip-rule="evenodd" d="M303.907 50.9564C301.091 51.6033 298.499 52.8264 296.351 54.5214C292.702 57.1664 287.735 60.1664 284.759 56.923C282.81 54.803 281.467 50.9347 282.093 44.248C283.681 27.303 291.214 31.893 291.214 33.3047C291.214 34.7164 292.801 40.013 302.32 39.3047C311.839 38.5964 310.252 49.898 303.907 50.9564Z" stroke="black" stroke-width="1.5" stroke-linecap="round" stroke-linejoin="round"/>
    <path fill-rule="evenodd" clip-rule="evenodd" d="M288.566 43.518C287.292 45.1498 287.517 47.3255 289.106 48.7381C290.695 50.1508 293.215 50.416 295.153 49.3746L295.291 49.298C296.899 48.3736 297.714 46.7148 297.364 45.0784C297.013 43.442 295.565 42.1419 293.679 41.7713L293.543 41.7463C291.62 41.4156 289.655 42.1151 288.566 43.518Z" stroke="black" stroke-width="1.5" stroke-linecap="round" stroke-linejoin="round"/>
    <path d="M290.98 45.8329C291.143 45.1324 291.779 44.5848 292.594 44.4446" stroke="black" stroke-width="1.5" stroke-linecap="round"/>
</svg>
