<svg xmlns="http://www.w3.org/2000/svg" width="21" height="21" viewBox="0 0 21 21" fill="none">
  <path fill-rule="evenodd" clip-rule="evenodd" d="M9.76663 1.52783C5.2166 1.52783 1.52808 5.21636 1.52808 9.76639C1.52808 14.3164 5.2166 18.0049 9.76663 18.0049C14.3167 18.0049 18.0052 14.3164 18.0052 9.76639C18.0052 5.21636 14.3167 1.52783 9.76663 1.52783ZM0.0280762 9.76639C0.0280762 4.38793 4.38818 0.027832 9.76663 0.027832C15.1451 0.027832 19.5052 4.38793 19.5052 9.76639C19.5052 15.1448 15.1451 19.5049 9.76663 19.5049C4.38818 19.5049 0.0280762 15.1448 0.0280762 9.76639Z" fill="#131313"/>
  <path fill-rule="evenodd" clip-rule="evenodd" d="M15.4873 15.9552C15.7798 15.6619 16.2547 15.6613 16.548 15.9538L20.072 19.4687C20.3653 19.7612 20.3659 20.2361 20.0734 20.5294C19.7808 20.8227 19.306 20.8233 19.0127 20.5308L15.4887 17.0159C15.1954 16.7234 15.1948 16.2485 15.4873 15.9552Z" fill="#131313"/>
</svg>