<svg width="337" height="87" viewBox="0 0 337 87" fill="none" xmlns="http://www.w3.org/2000/svg">
    <rect x="1" y="1" width="335" height="85" rx="20" fill="#FFD5C2"/>
    <rect x="1" y="1" width="335" height="85" rx="20" stroke="black" stroke-width="2"/>
    <path d="M23.6974 33L21.2344 24.2727L22.9347 24.2727L24.5071 30.6861L24.5881 30.6861L26.267 24.2727L27.8139 24.2727L29.4972 30.6903L29.5739 30.6903L31.1463 24.2727L32.8466 24.2727L30.3835 33L28.8239 33L27.0767 26.8764L27.0085 26.8764L25.2571 33L23.6974 33ZM34.2433 33L32.5558 33L35.6282 24.2727L37.5799 24.2727L40.6566 33L38.9691 33L36.6381 26.0625L36.57 26.0625L34.2433 33ZM34.2987 29.5781L38.9009 29.5781L38.9009 30.848L34.2987 30.848L34.2987 29.5781ZM40.3679 25.598L40.3679 24.2727L47.331 24.2727L47.331 25.598L44.6335 25.598L44.6335 33L43.0653 33L43.0653 25.598L40.3679 25.598ZM48.6733 33L48.6733 24.2727L54.3494 24.2727L54.3494 25.598L50.2543 25.598L50.2543 27.9673L54.0554 27.9673L54.0554 29.2926L50.2543 29.2926L50.2543 31.6747L54.3835 31.6747L54.3835 33L48.6733 33ZM55.9624 33L55.9624 24.2727L59.2351 24.2727C59.9055 24.2727 60.468 24.3892 60.9226 24.6222C61.38 24.8551 61.7251 25.1818 61.9581 25.6023C62.1939 26.0199 62.3118 26.5071 62.3118 27.0639C62.3118 27.6236 62.1925 28.1094 61.9538 28.5213C61.718 28.9304 61.37 29.2472 60.9098 29.4716C60.4496 29.6932 59.8842 29.804 59.2138 29.804L56.8828 29.804L56.8828 28.4915L59.0007 28.4915C59.3928 28.4915 59.7138 28.4375 59.9638 28.3295C60.2138 28.2188 60.3984 28.0582 60.5178 27.848C60.6399 27.6349 60.701 27.3736 60.701 27.0639C60.701 26.7543 60.6399 26.4901 60.5178 26.2713C60.3956 26.0497 60.2095 25.8821 59.9595 25.7685C59.7095 25.652 59.3871 25.5938 58.9922 25.5938L57.5433 25.5938L57.5433 33L55.9624 33ZM60.4709 29.0455L62.6314 33L60.8672 33L58.745 29.0455L60.4709 29.0455ZM66.147 24.2727L67.9325 24.2727L70.0675 28.1335L70.1527 28.1335L72.2876 24.2727L74.0732 24.2727L70.8984 29.7443L70.8984 33L69.3217 33L69.3217 29.7443L66.147 24.2727ZM82.4989 28.6364C82.4989 29.5767 82.3228 30.3821 81.9705 31.0526C81.6211 31.7202 81.1438 32.2315 80.5387 32.5866C79.9364 32.9418 79.2532 33.1193 78.489 33.1193C77.7248 33.1193 77.0401 32.9418 76.435 32.5866C75.8327 32.2287 75.3555 31.7159 75.0032 31.0483C74.6538 30.3778 74.479 29.5739 74.479 28.6364C74.479 27.696 74.6538 26.892 75.0032 26.2244C75.3555 25.554 75.8327 25.0412 76.435 24.6861C77.0401 24.331 77.7248 24.1534 78.489 24.1534C79.2532 24.1534 79.9364 24.331 80.5387 24.6861C81.1438 25.0412 81.6211 25.554 81.9705 26.2244C82.3228 26.892 82.4989 27.696 82.4989 28.6364ZM80.9094 28.6364C80.9094 27.9744 80.8058 27.4162 80.5984 26.9616C80.3938 26.5043 80.1097 26.1591 79.7461 25.9261C79.3825 25.6903 78.9634 25.5724 78.489 25.5724C78.0146 25.5724 77.5955 25.6903 77.2319 25.9261C76.8683 26.1591 76.5827 26.5043 76.3754 26.9616C76.1708 27.4162 76.0685 27.9744 76.0685 28.6364C76.0685 29.2983 76.1708 29.858 76.3754 30.3153C76.5827 30.7699 76.8683 31.1151 77.2319 31.3509C77.5955 31.5838 78.0146 31.7003 78.489 31.7003C78.9634 31.7003 79.3825 31.5838 79.7461 31.3509C80.1097 31.1151 80.3938 30.7699 80.5984 30.3153C80.8058 29.858 80.9094 29.2983 80.9094 28.6364ZM89.495 24.2727L91.076 24.2727L91.076 29.9744C91.076 30.5994 90.9283 31.1491 90.6328 31.6236C90.3402 32.098 89.9283 32.4688 89.397 32.7358C88.8658 33 88.245 33.1321 87.5348 33.1321C86.8217 33.1321 86.1996 33 85.6683 32.7358C85.1371 32.4688 84.7251 32.098 84.4325 31.6236C84.1399 31.1491 83.9936 30.5994 83.9936 29.9744L83.9936 24.2727L85.5746 24.2727L85.5746 29.8423C85.5746 30.206 85.6541 30.5298 85.8132 30.8139C85.9751 31.098 86.2024 31.321 86.495 31.483C86.7876 31.642 87.1342 31.7216 87.5348 31.7216C87.9354 31.7216 88.282 31.642 88.5746 31.483C88.87 31.321 89.0973 31.098 89.2564 30.8139C89.4155 30.5298 89.495 30.206 89.495 29.8423L89.495 24.2727ZM100.514 26.6719C100.474 26.2997 100.306 26.0099 100.011 25.8026C99.7184 25.5952 99.3377 25.4915 98.869 25.4915C98.5394 25.4915 98.2567 25.5412 98.021 25.6406C97.7852 25.7401 97.6048 25.875 97.4798 26.0455C97.3548 26.2159 97.2908 26.4105 97.288 26.6293C97.288 26.8111 97.3292 26.9688 97.4116 27.1023C97.4968 27.2358 97.6119 27.3494 97.7567 27.4432C97.9016 27.5341 98.0621 27.6108 98.2383 27.6733C98.4144 27.7358 98.592 27.7884 98.771 27.831L99.5891 28.0355C99.9187 28.1122 100.235 28.2159 100.539 28.3466C100.846 28.4773 101.12 28.642 101.362 28.8409C101.606 29.0398 101.799 29.2798 101.941 29.5611C102.083 29.8423 102.154 30.1719 102.154 30.5497C102.154 31.0611 102.024 31.5114 101.762 31.9006C101.501 32.2869 101.123 32.5895 100.629 32.8082C100.137 33.0241 99.5423 33.1321 98.8434 33.1321C98.1644 33.1321 97.5749 33.027 97.0749 32.8168C96.5778 32.6065 96.1886 32.2997 95.9073 31.8963C95.6289 31.4929 95.4783 31.0014 95.4556 30.4219L97.011 30.4219C97.0337 30.7259 97.1275 30.9787 97.2923 31.1804C97.457 31.3821 97.6715 31.5327 97.9357 31.6321C98.2028 31.7315 98.5011 31.7813 98.8306 31.7813C99.1744 31.7813 99.4755 31.7301 99.734 31.6278C99.9954 31.5227 100.2 31.3778 100.348 31.1932C100.495 31.0057 100.571 30.7869 100.574 30.5369C100.571 30.3097 100.504 30.1222 100.373 29.9744C100.243 29.8239 100.059 29.6989 99.8235 29.5994C99.5906 29.4972 99.3178 29.4063 99.0053 29.3267L98.0124 29.071C97.2937 28.8864 96.7255 28.6065 96.3079 28.2315C95.8931 27.8537 95.6857 27.3523 95.6857 26.7273C95.6857 26.2131 95.8249 25.7628 96.1033 25.3764C96.3846 24.9901 96.7667 24.6903 97.2496 24.4773C97.7326 24.2614 98.2795 24.1534 98.8903 24.1534C99.5096 24.1534 100.052 24.2614 100.518 24.4773C100.987 24.6903 101.355 24.9872 101.622 25.3679C101.889 25.7457 102.027 26.1804 102.035 26.6719L100.514 26.6719ZM104.544 33L102.857 33L105.929 24.2727L107.881 24.2727L110.957 33L109.27 33L106.939 26.0625L106.871 26.0625L104.544 33ZM104.599 29.5781L109.202 29.5781L109.202 30.848L104.599 30.848L104.599 29.5781ZM112.278 24.2727L114.55 31.142L114.639 31.142L116.906 24.2727L118.645 24.2727L115.568 33L113.616 33L110.544 24.2727L112.278 24.2727ZM119.794 33L119.794 24.2727L125.471 24.2727L125.471 25.598L121.375 25.598L121.375 27.9673L125.176 27.9673L125.176 29.2926L121.375 29.2926L121.375 31.6747L125.505 31.6747L125.505 33L119.794 33ZM130.041 33L127.083 33L127.083 24.2727L130.1 24.2727C130.967 24.2727 131.711 24.4474 132.333 24.7969C132.958 25.1435 133.439 25.642 133.774 26.2926C134.109 26.9432 134.277 27.7216 134.277 28.6278C134.277 29.5369 134.108 30.3182 133.77 30.9716C133.434 31.625 132.95 32.1264 132.316 32.4759C131.686 32.8253 130.927 33 130.041 33ZM128.664 31.6321L129.964 31.6321C130.572 31.6321 131.079 31.5213 131.485 31.2997C131.892 31.0753 132.197 30.7415 132.402 30.2983C132.606 29.8523 132.708 29.2955 132.708 28.6278C132.708 27.9602 132.606 27.4063 132.402 26.9659C132.197 26.5227 131.895 26.1918 131.494 25.973C131.096 25.7514 130.602 25.6406 130.011 25.6406L128.664 25.6406L128.664 31.6321Z" fill="black"/>
    <path d="M27.5554 61.1989C26.4948 61.1989 25.5502 61.0166 24.7216 60.652C23.8977 60.2827 23.2467 59.776 22.7685 59.1321C22.295 58.4834 22.0511 57.7353 22.0369 56.8878L25.1335 56.8878C25.1525 57.2429 25.2685 57.5554 25.4815 57.8253C25.6993 58.0904 25.9882 58.2964 26.348 58.4432C26.7079 58.59 27.1127 58.6634 27.5625 58.6634C28.0312 58.6634 28.4455 58.5805 28.8054 58.4148C29.1652 58.2491 29.447 58.0194 29.6506 57.7259C29.8542 57.4323 29.956 57.0937 29.956 56.7102C29.956 56.322 29.8471 55.9787 29.6293 55.6804C29.4162 55.3774 29.1084 55.1406 28.706 54.9702C28.3082 54.7997 27.8348 54.7145 27.2855 54.7145L25.929 54.7145L25.929 52.456L27.2855 52.456C27.7495 52.456 28.1591 52.3755 28.5142 52.2145C28.8741 52.0535 29.1534 51.831 29.3523 51.5469C29.5511 51.258 29.6506 50.9219 29.6506 50.5384C29.6506 50.1738 29.563 49.8542 29.3878 49.5795C29.2173 49.3002 28.9759 49.0824 28.6634 48.9261C28.3556 48.7699 27.9957 48.6918 27.5838 48.6918C27.1671 48.6918 26.786 48.7675 26.4403 48.919C26.0947 49.0658 25.8177 49.2765 25.6094 49.5511C25.401 49.8258 25.2898 50.1477 25.2756 50.517L22.3281 50.517C22.3423 49.679 22.5814 48.9403 23.0455 48.3011C23.5095 47.6619 24.1345 47.1624 24.9205 46.8026C25.7112 46.438 26.6037 46.2557 27.598 46.2557C28.6018 46.2557 29.4801 46.438 30.233 46.8026C30.9858 47.1671 31.5705 47.6596 31.9872 48.2798C32.4086 48.8954 32.617 49.5866 32.6122 50.3537C32.617 51.1681 32.3636 51.8475 31.8523 52.392C31.3456 52.9366 30.6851 53.2822 29.8707 53.429L29.8707 53.5426C30.9408 53.6799 31.7552 54.0516 32.3139 54.6577C32.8774 55.259 33.1567 56.0118 33.152 56.9162C33.1567 57.7448 32.9176 58.4811 32.4347 59.125C31.9564 59.7689 31.2959 60.2756 30.4531 60.6449C29.6103 61.0142 28.6444 61.1989 27.5554 61.1989ZM41.0657 61.3196C39.8441 61.3149 38.793 61.0142 37.9123 60.4176C37.0363 59.821 36.3616 58.9569 35.8881 57.8253C35.4194 56.6937 35.1874 55.3324 35.1921 53.7415C35.1921 52.1553 35.4265 50.8035 35.8952 49.6861C36.3687 48.5687 37.0434 47.7187 37.9194 47.1364C38.8001 46.5492 39.8488 46.2557 41.0657 46.2557C42.2826 46.2557 43.329 46.5492 44.2049 47.1364C45.0856 47.7235 45.7627 48.5758 46.2362 49.6932C46.7096 50.8059 46.944 52.1553 46.9393 53.7415C46.9393 55.3371 46.7025 56.7008 46.229 57.8324C45.7603 58.964 45.088 59.8281 44.212 60.4247C43.3361 61.0213 42.2873 61.3196 41.0657 61.3196ZM41.0657 58.7699C41.899 58.7699 42.5643 58.3509 43.0614 57.5128C43.5586 56.6747 43.8048 55.4176 43.8001 53.7415C43.8001 52.6383 43.6864 51.7197 43.4592 50.9858C43.2366 50.2519 42.9194 49.7003 42.5075 49.331C42.1003 48.9616 41.6197 48.777 41.0657 48.777C40.2371 48.777 39.5742 49.1913 39.0771 50.0199C38.5799 50.8485 38.329 52.089 38.3242 53.7415C38.3242 54.8589 38.4355 55.7917 38.658 56.5398C38.8853 57.2831 39.2049 57.8419 39.6168 58.2159C40.0288 58.5852 40.5117 58.7699 41.0657 58.7699ZM54.8352 61.3196C53.6136 61.3149 52.5625 61.0142 51.6818 60.4176C50.8059 59.821 50.1312 58.9569 49.6577 57.8253C49.1889 56.6937 48.9569 55.3324 48.9616 53.7415C48.9616 52.1553 49.196 50.8035 49.6648 49.6861C50.1383 48.5687 50.813 47.7187 51.6889 47.1364C52.5696 46.5492 53.6184 46.2557 54.8352 46.2557C56.0521 46.2557 57.0985 46.5492 57.9744 47.1364C58.8551 47.7235 59.5322 48.5758 60.0057 49.6932C60.4792 50.8059 60.7135 52.1553 60.7088 53.7415C60.7088 55.3371 60.4721 56.7008 59.9986 57.8324C59.5298 58.964 58.8575 59.8281 57.9815 60.4247C57.1056 61.0213 56.0568 61.3196 54.8352 61.3196ZM54.8352 58.7699C55.6686 58.7699 56.3338 58.3509 56.831 57.5128C57.3281 56.6747 57.5743 55.4176 57.5696 53.7415C57.5696 52.6383 57.456 51.7197 57.2287 50.9858C57.0062 50.2519 56.6889 49.7003 56.277 49.331C55.8698 48.9616 55.3892 48.777 54.8352 48.777C54.0066 48.777 53.3438 49.1913 52.8466 50.0199C52.3494 50.8485 52.0985 52.089 52.0937 53.7415C52.0937 54.8589 52.205 55.7917 52.4276 56.5398C52.6548 57.2831 52.9744 57.8419 53.3864 58.2159C53.7983 58.5852 54.2812 58.7699 54.8352 58.7699ZM62.9869 61L62.9869 46.4545L66.0621 46.4545L66.0621 58.4645L72.2979 58.4645L72.2979 61L62.9869 61Z" fill="black"/>
    <path d="M90.7071 44.2929C90.3166 43.9024 89.6834 43.9024 89.2929 44.2929L82.9289 50.6569C82.5384 51.0474 82.5384 51.6805 82.9289 52.0711C83.3195 52.4616 83.9526 52.4616 84.3431 52.0711L90 46.4142L95.6569 52.0711C96.0474 52.4616 96.6805 52.4616 97.0711 52.0711C97.4616 51.6805 97.4616 51.0474 97.0711 50.6569L90.7071 44.2929ZM91 63L91 45L89 45L89 63L91 63Z" fill="black"/>
    <path fill-rule="evenodd" clip-rule="evenodd" d="M298.182 36.3955C298.013 32.9256 294.884 30.2365 291.182 30.3805C288.494 30.3338 286.012 31.7243 284.782 33.9655C284.183 33.7634 283.551 33.6606 282.914 33.6618C280.22 33.5537 277.94 35.5104 277.818 38.0362C277.818 38.0824 277.818 38.128 277.818 38.173C275.649 38.5832 274.068 40.3394 274 42.4124C274.122 44.9358 276.398 46.8916 279.09 46.7868H296.908C299.601 46.8927 301.878 44.9366 302 42.4124C301.918 40.2378 300.187 38.4301 297.89 38.1187C298.084 37.5623 298.182 36.9807 298.182 36.3955Z" stroke="black" stroke-width="1.5" stroke-linecap="round" stroke-linejoin="round"/>
    <path d="M281.725 50.2611C281.831 49.8609 281.593 49.4499 281.193 49.3432C280.793 49.2365 280.382 49.4744 280.275 49.8746L281.725 50.2611ZM278.525 56.4371C278.419 56.8374 278.657 57.2483 279.057 57.355C279.457 57.4618 279.868 57.2238 279.975 56.8236L278.525 56.4371ZM286.957 50.3191C287.095 49.9289 286.892 49.5 286.501 49.3612C286.111 49.2224 285.682 49.4263 285.543 49.8166L286.957 50.3191ZM283.793 54.7385C283.655 55.1288 283.858 55.5576 284.249 55.6964C284.639 55.8352 285.068 55.6313 285.207 55.241L283.793 54.7385ZM292.225 50.2611C292.331 49.8609 292.093 49.4499 291.693 49.3432C291.293 49.2365 290.882 49.4744 290.775 49.8746L292.225 50.2611ZM289.025 56.4371C288.919 56.8374 289.157 57.2483 289.557 57.355C289.957 57.4618 290.368 57.2238 290.475 56.8236L289.025 56.4371ZM297.457 50.3191C297.595 49.9289 297.392 49.5 297.001 49.3612C296.611 49.2224 296.182 49.4263 296.043 49.8166L297.457 50.3191ZM294.293 54.7385C294.155 55.1288 294.358 55.5576 294.749 55.6964C295.139 55.8352 295.568 55.6313 295.707 55.241L294.293 54.7385ZM280.275 49.8746L278.525 56.4371L279.975 56.8236L281.725 50.2611L280.275 49.8746ZM285.543 49.8166L283.793 54.7385L285.207 55.241L286.957 50.3191L285.543 49.8166ZM290.775 49.8746L289.025 56.4371L290.475 56.8236L292.225 50.2611L290.775 49.8746ZM296.043 49.8166L294.293 54.7385L295.707 55.241L297.457 50.3191L296.043 49.8166Z" fill="black"/>
</svg>
